<svg width="395" height="34" viewBox="0 0 395 34" fill="none" xmlns="http://www.w3.org/2000/svg">
<path d="M243.701 0.656416C259.805 0.755237 277.504 1.032 293.647 2.02316C295.648 2.14455 295.495 2.56801 296.051 2.64933C297.561 2.87278 298.491 2.41295 299.608 2.50417C304.996 2.9418 310.035 3.2825 315.316 3.74764C320.732 4.23011 318.133 5.31967 320 5.7297C323.649 6.53041 320.587 4.74159 322.064 4.47045C326.29 4.83449 330.549 5.29434 334.779 5.76808C333.755 5.83796 332.713 5.9065 331.641 5.96847C333.523 6.12949 336.102 6.54543 333.014 6.73898C333.696 6.89625 334.303 7.06736 335.009 7.22304C335.255 6.67679 338.491 6.86241 338.833 6.56044C339.155 6.25585 337.289 6.19318 337.315 6.1665C337.472 5.76275 344.963 6.89736 345.513 6.98782C346.034 7.07306 346.184 7.20345 346.231 7.33705C346.251 7.33886 346.314 7.34328 346.335 7.34574C346.412 7.57777 346.167 7.809 346.952 7.86724C349.077 8.02436 347.767 6.5316 350.455 8.62551C351.654 8.17808 351.668 8.48278 353.132 8.68833C353.321 8.71488 353.208 8.36846 353.293 8.36943C355.474 8.3756 353.755 8.79423 353.763 8.82937C353.89 9.41307 356.251 9.42935 356.726 9.54023C362.786 10.9252 367.23 11.8824 373.639 12.9424C375.028 13.1636 379.306 13.6267 380.647 13.9737C381.945 14.2998 381.19 14.5338 381.837 14.8345C383.107 14.1905 384.227 14.2839 386.575 15.499C387.675 15.1708 387.424 15.5668 389.23 16.1256C389.238 16.128 389.245 16.1305 389.253 16.1329C389.26 16.136 389.281 16.1448 389.288 16.1481C390.742 16.6742 393.399 17.2678 394.554 18.5899C392.907 17.6523 392.947 17.998 390.949 17.1895C390.757 17.1141 390.074 16.782 389.175 16.4014C389.169 16.399 389.154 16.3926 389.149 16.3904C386.819 15.4828 383.181 14.9521 383.475 15.4754C383.694 15.8548 386.139 16.1098 386.207 16.21C386.644 16.702 385.23 16.7725 384.099 16.3719C384.409 16.3646 384.768 16.37 385.106 16.3756C382.568 15.335 384.027 17.4514 382.32 15.5381C382.106 15.3044 382.229 15.1272 381.858 14.8514C381.76 14.9175 382.214 15.2137 381.783 15.1693C381.34 15.1227 380.556 14.5818 380.373 14.8867C380.105 15.3272 381.968 15.4708 382.107 15.5306C382.109 15.528 382.111 15.5254 382.113 15.5229C383.293 16.0081 380.723 15.5472 380.6 15.5794C379.764 15.7391 380.239 16.053 379.031 16.1062C378.323 16.1328 376.632 15.7901 375.968 15.742C375.341 15.6995 376.27 16.0681 375.846 16.0574C375.43 16.0481 374.893 15.7935 374.399 15.7839C374.185 15.7802 374.158 16.0397 374.053 16.0348C372.928 15.9849 373.704 15.54 372.715 15.4416C372.049 15.3725 369.798 15.6067 371.278 15.9456C370.565 15.9097 369.805 15.8556 369.1 15.8139C369.54 15.9459 370.007 16.0563 370.448 16.2034C369.083 15.9096 368.419 16.2912 367.557 16.2275C366.716 16.1671 365.978 15.5282 365.024 15.6949C362.94 16.0469 367.95 16.3244 368.562 16.5044C368.804 16.5721 367.801 16.8885 367.666 16.8866C367.046 16.872 366.322 16.4823 365.824 16.4417C364.092 16.3058 362.966 16.6034 361.276 16.52C356.402 16.2792 350.535 15.9801 345.514 15.6935L345.667 15.7061C344.83 15.685 344 15.662 343.191 15.6375C341.201 15.5805 339.977 15.0209 339.094 14.9943C336.956 14.9306 336.699 15.3651 334.834 15.3129C332.105 15.2401 328.199 14.6995 325.942 14.5346C324.332 14.4177 322.901 14.8223 322.48 14.8209C316.715 14.8032 309.736 14.6404 304.971 14.5686C302.748 14.5359 301.664 13.9799 301.219 13.9886C299.24 14.0262 299.757 14.4993 298.136 14.4325C297.253 14.3971 297.12 13.9461 297.002 13.9269C295.987 13.7658 295.765 14.3528 294.962 14.3648C290.365 14.4356 285.905 14.0218 281.369 13.9586C281.036 13.9538 281.071 13.6811 280.855 13.6948C279.927 13.7611 280.344 14.1916 279.391 14.2244C277.408 14.2953 275.325 14.2316 273.225 14.1886C273.015 14.1845 272.925 13.8262 272.443 13.8286C271.96 13.8311 271.591 14.1745 270.829 14.1612C268.877 14.1275 266.906 13.7318 264.828 13.7302C264.484 13.7304 264.055 14.1779 263.537 14.1798C261.903 14.1859 259.5 13.8142 258.106 13.8201C253.495 13.843 249.27 14.1899 244.924 14.3033C243.912 14.3291 243.006 13.919 242.475 13.922C241.277 13.9307 242.186 14.3179 240.97 14.353C231.105 14.6397 221.154 14.8217 211.188 15.338C209.911 15.4041 208.539 15.5243 207.134 15.6608C204.274 15.9402 201.257 16.2922 198.716 16.3514C197.138 16.3871 196.824 15.7701 195.704 15.8285C193.719 15.9359 193.398 16.7755 191.302 16.9888C189.621 17.1595 187.68 16.4538 185.937 16.6153C184.195 16.7778 183.428 17.6419 181.44 17.8767C179.802 18.0694 177.467 17.8581 175.688 18.0447C159.285 19.7633 143.145 21.5277 126.565 22.3105C120.713 22.5817 114.26 23.3219 108.153 22.9569C107.58 22.9214 108.375 21.9264 106.577 22.2853C105.61 22.479 104.312 23.3981 102.056 23.653C88.6789 25.1771 74.2289 24.8072 60.6202 26.5118C40.227 28.9404 19.7746 39.1224 0.996993 29.5495C0.0752539 29.0726 0.301325 26.2646 0.753915 25.4341C1.28872 25.9494 1.7962 26.5719 2.35974 27.1546C2.69172 23.6577 2.65929 24.5661 5.05477 24.6565C6.5297 24.7142 5.23465 23.3579 5.97491 22.8738C6.93438 22.2451 11.5182 20.1617 10.808 22.4851C11.0665 22.07 11.304 21.6738 11.5559 21.2686C14.9515 20.6323 18.2311 19.7894 21.5273 18.8759C22.0967 18.7167 22.0621 18.0233 22.6506 17.864C24.2309 17.4316 25.5458 17.7796 27.1952 17.5737C28.0917 17.4623 28.1466 16.6614 29.3294 16.617C30.5115 16.5736 30.5794 17.6364 32.0834 16.3531C30.9192 15.1057 35.6734 15.7006 37.3265 15.4858C37.5666 15.4552 39.4378 14.1182 40.5007 14.1737C41.5676 14.2259 43.2342 14.85 44.8267 14.2982C45.5734 14.0392 45.9578 13.0944 46.7775 12.9808C47.3547 12.9012 48.1224 13.6538 48.8599 13.6306C49.5972 13.6071 51.1286 12.8279 51.4187 12.7956C52.4652 12.6729 51.3553 13.3231 52.076 13.2968C55.5567 13.161 59.6075 13.1498 63.0013 12.5206C63.4182 12.4441 62.7807 11.8376 62.8347 11.8116C65.6227 10.8052 64.1703 11.7633 64.9905 12.2859C65.7819 12.7908 71.2253 12.0735 71.171 10.9602C71.4562 12.3424 72.5809 11.1883 72.8928 11.1254C74.1061 10.8795 73.9671 12.0972 75.1277 11.6385C75.5538 11.4717 74.6345 10.7234 75.1066 10.7132C76.2737 10.6897 77.4267 11.9112 78.9807 11.9257C79.356 11.9298 79.4295 11.3456 80.0935 11.3171C80.7579 11.2892 83.6037 11.7867 82.2181 10.6731C83.9872 11.5185 84.2835 10.9623 86.2473 10.8493C86.7445 10.8223 87.4588 11.6899 88.4962 11.3298C88.8468 11.2079 88.765 10.3301 89.3039 10.2851C90.5359 10.1802 91.77 11.0037 93.3341 10.9273C96.2698 10.7856 99.3237 9.94084 102.399 9.95442C103.233 9.95845 103.094 10.8329 104.3 10.7648C104.477 10.7519 105.87 9.91039 106.707 9.92392C107.211 9.93199 109.855 10.2714 110.381 10.2766C111.252 10.2834 111.344 9.454 111.831 9.58248C113.237 9.95222 112.227 11.2263 113.752 9.47232C114.366 10.3459 115.325 10.1893 115.718 11.2845C116.189 10.0224 117.006 11.1469 118.063 10.6634C119.121 10.1789 119.838 7.77261 120.289 10.2828C120.777 9.94044 122.911 9.27569 123.273 9.21457C124.344 9.03742 123.818 9.76881 124.624 9.62197C124.766 9.597 124.582 9.13257 125.503 9.12047C126.101 9.11294 130.539 8.8607 130.804 8.90918C133.864 9.45183 129.197 9.47652 128.58 10.0297C128.455 9.90349 128.331 9.77669 128.199 9.65241C126.85 9.51615 127.686 10.5325 128.307 10.7385C128.929 10.9444 130.023 10.3968 130.548 10.7115C130.81 10.8695 130.746 12.1485 129.98 12.0478C130.815 12.3829 129.742 12.8733 130.088 13.2189C130.47 13.5971 134.095 13.4592 134.071 12.7638C133.388 12.7873 132.551 12.8704 131.864 12.8901C130.882 11.7334 133.312 7.42283 135.934 8.91918C137.829 9.99247 134.909 11.1213 139.123 9.85592C138.462 9.84956 137.897 9.77295 137.295 9.76057C137.169 8.86525 138.209 9.79292 138.689 9.47579C138.92 9.32184 137.395 8.7767 138.667 8.4871C139.857 9.70167 140.633 8.35921 142.492 8.23593C141.99 8.49342 141.487 8.75066 140.985 9.0099C144.192 9.73845 136.909 10.5062 143.057 10.634C142.325 10.7219 141.592 10.758 140.857 10.8687C141.247 11.3137 140.766 12.7277 141.107 12.9966C141.999 13.7007 143.211 13.1542 144.237 13.1512C144.687 13.1484 144.434 13.5364 144.471 13.536C145.086 13.5342 144.915 13.0033 145.45 12.9324C146.119 12.8441 148.121 13.2333 148.432 13.1521C149.244 12.9452 147.807 11.9784 147.881 11.8933C148.372 11.3461 149.469 11.7023 149.37 11.0367C146.817 11.6637 139.375 11.5433 146.001 10.0008C144.085 9.02611 144.507 7.48319 147.174 7.21799C149.375 6.99674 147.99 7.67521 149.18 8.26685C149.336 8.34065 152.298 8.48413 152.422 8.01463C152.371 9.08461 153.393 9.96649 152.817 11.1013C152.731 11.2681 151.52 11.2809 151.997 12.1366C152.235 12.5667 152.902 13.4897 152.84 14.0596C153.065 13.6506 153.297 13.1927 153.524 12.768C155.332 12.5347 155.614 12.9396 156.648 13.5986C156.585 13.2995 155.592 12.0858 157.003 12.3835C157.076 12.402 157.166 12.8542 157.884 13.034C159.331 13.3943 159.644 13.5112 158.629 14.9207C161.541 13.9594 162.266 15.3956 165.259 14.7601C164.557 13.1083 163.525 13.5902 160.769 14.1049C160.624 13.7066 160.543 13.308 160.394 12.9054C164.144 13.588 162.312 13.6072 164.352 12.6563C164.846 12.4236 167.601 12.4695 166.621 11.3896C166.391 11.135 164.689 11.2664 164.86 10.832C164.893 10.7488 166.951 10.4252 167.139 10.524C169.499 11.7324 165.477 12.9042 171.726 12.0432C171.899 12.0187 171.933 11.5295 172.269 11.4425C172.9 11.2801 172.938 11.841 173.5 11.6787C174.062 11.5155 174.81 10.7203 175.7 11.3669C177.326 12.5382 173.691 13.484 172.006 12.912C171.439 14.6174 183.151 13.9203 183.864 13.7494C187.012 12.9624 181.744 13.6154 181.455 13.1798C181.333 12.9958 181.267 10.5639 180.011 12.2148C179.64 12.7057 181.322 13.2256 180.35 13.5409C179.378 13.8574 179.731 13.1174 179.657 13.0716C179.403 12.9142 178.366 13.242 178.224 13.1483C176.047 11.7204 176.113 9.36761 179.077 12.666C180.248 11.8199 177.403 10.7289 178.882 10.1188C180.681 9.38265 182.067 10.4239 182.298 10.4605C185.077 10.9076 181.822 9.45976 185.219 9.80674C187.108 9.99793 182.465 11.0134 186.74 10.6929C190.308 10.427 188.352 9.97102 188.554 8.70008C188.601 8.40273 190.541 7.95772 187.882 8.20294C187.822 8.53418 187.7 8.9729 187.545 9.28353C186.88 9.07548 185.708 7.47682 185.356 7.43327C183.637 7.23175 183.757 8.08978 182.705 7.11977C183.474 8.1979 182.279 7.58095 181.853 7.8356C180.273 8.77664 182.423 9.00181 178.715 8.05731C179.218 8.55972 179.675 9.0532 180.162 9.55159C179.726 9.59155 179.288 9.63217 178.851 9.67256C178.139 8.55037 175.811 8.80885 177.864 7.54085C175.311 7.3277 174.308 7.62908 173.8 8.56669C173.704 8.74557 173.328 8.83442 172.881 8.87424C172.98 9.12613 173.131 9.91159 173.066 10.0124C172.483 10.9011 171.422 9.47748 171.725 8.89465C171.41 8.88395 171.16 8.8652 171.071 8.85604C170.511 8.79699 171.572 8.22993 171.112 8.07787C170.958 8.02835 169.411 8.21879 169.368 8.012C169.103 6.68447 171.73 7.52299 166.525 6.99927C166.471 8.22988 168.852 7.83697 168.31 9.16422C167.73 10.5931 166.275 8.79616 166.079 10.5275C165.953 10.2517 165.891 10.0191 165.778 9.70313C163.73 10.5702 163.628 9.13815 162.971 8.85488C161.702 8.29958 156.004 8.71354 161.197 9.67702C160.457 9.84459 159.697 9.94675 158.959 10.1013C158.63 7.51104 159.146 8.51988 155.546 8.32087C154.752 8.27734 154.422 7.13583 153.734 8.55152C153.754 7.19906 151.467 8.14283 151.243 7.99187C149.775 6.99488 154.878 5.24621 155.689 7.58374C156.507 6.61429 156.579 7.83348 157.544 7.61907C158.934 7.31067 159.127 7.06678 160.857 7.8691C162.433 6.52874 154.357 7.65137 159.176 5.72735C163.99 3.74172 192.664 1.82115 199.371 1.51409C202.019 1.36326 204.423 1.23248 206.622 1.1207C214.525 0.724808 220.303 0.527112 228.832 0.563789C229.92 0.561374 238.046 0.484174 236.377 1.69994C236.132 1.87175 232.641 2.34623 235.657 3.29947C235.036 2.73365 236.802 2.36339 236.948 2.3048C240.324 0.963863 238.341 0.627425 243.701 0.656416ZM259.529 11.1432C252.59 10.9361 257.69 11.6674 256.248 13.4316C257.142 13.4229 258.029 13.4148 258.915 13.4077C258.682 13.3018 258.452 13.1961 258.219 13.0899C258.218 13.0899 258.217 13.09 258.216 13.09C258.653 12.4386 259.093 11.7896 259.529 11.1432ZM372.355 16.8585C372.069 16.9827 371.782 17.1079 371.464 17.2263C370.594 17.0707 369.663 16.9111 368.79 16.7606C368.912 16.6645 369.029 16.5669 369.15 16.471C370.212 16.6001 371.267 16.7325 372.355 16.8585ZM171.052 13.2816C169.718 12.5753 169.914 13.9718 168.16 13.4399C168.43 14.4665 168.721 15.4676 169.001 16.4803C170.298 16.2358 170.565 15.8233 172.004 15.9796C171.82 15.6591 171.631 15.3367 171.451 15.0133C171.216 15.1001 170.972 15.1977 170.747 15.276C170.329 14.3683 172.594 14.0863 171.057 13.2792C171.055 13.28 171.054 13.2808 171.052 13.2816ZM157.82 14.5692C157.119 14.4789 154.329 14.1445 153.978 14.6146C152.8 16.2107 160.512 14.6998 154.868 16.4456C154.907 16.6544 154.894 16.8629 154.907 17.0716C155.957 17.0674 157.001 17.0535 158.054 17.0347C157.947 16.213 157.934 15.3949 157.82 14.5692ZM234.48 11.6193C233.424 11.5442 228.309 12.2847 229.995 13.0402C230.493 13.2578 232.754 12.0463 233.615 12.0752C234.174 12.0922 233.56 12.7324 234.656 12.4734C234.603 12.2004 234.568 11.897 234.477 11.6212C234.478 11.6206 234.479 11.6199 234.48 11.6193ZM236.44 7.96602C235.324 8.09243 234.207 8.25075 233.096 8.38878C233.921 9.08509 235.507 8.60119 235.622 9.59483C235.317 9.67611 235.011 9.75725 234.711 9.83899C234.476 9.6256 234.244 9.41162 234.011 9.19751C233.066 9.75936 233.651 10.0179 231.866 9.89955C232.975 11.3958 233.168 12.1888 236.206 10.5985C235.638 11.4281 236.225 14.0668 237.887 12.1305C238.199 11.7724 236.875 11.5683 236.858 11.5126C236.645 10.8205 237.373 10.3612 237.146 9.70849C237.044 9.41299 236.234 9.43212 236.107 9.02048C236.048 8.81921 236.81 8.23187 236.44 7.96602ZM238.698 11.4503C238.363 11.8785 239.539 12.8458 240.549 12.6197C242.138 12.2721 239.619 11.3846 238.698 11.4503ZM372.361 16.8587C372.359 16.8586 372.357 16.8586 372.355 16.8585C372.356 16.8581 372.357 16.8576 372.358 16.8571C372.359 16.8577 372.36 16.8582 372.361 16.8587ZM161.445 14.906C160.651 15.3883 159.431 15.4116 159.562 16.086C159.154 15.9808 158.742 15.8778 158.338 15.7719C158.354 15.9768 158.374 16.1818 158.39 16.3846C159.593 16.4259 160.804 16.467 162.009 16.5101C161.826 15.9762 161.654 15.439 161.445 14.906ZM148.348 15.3456C146.833 15.3848 148.161 16.2414 147.859 16.7237C147.559 17.2068 146.188 16.9366 146.39 17.5836C147.28 17.5404 148.209 17.4947 149.109 17.4493C148.826 16.7542 148.613 16.0396 148.345 15.3459C148.346 15.3458 148.347 15.3457 148.348 15.3456ZM287.786 11.7598C286.767 11.6024 287.201 11.0874 285.154 11.673C285.156 11.673 285.157 11.673 285.159 11.673C287.093 12.1186 289.535 12.514 291.68 12.1386C290.402 11.5827 289.37 12.0055 287.786 11.7598ZM174.746 15.0814C175.149 14.5124 173.113 14.1853 172.695 14.7198C172.021 15.5867 174.134 15.9474 174.746 15.0814ZM329.307 9.70101C330.927 8.68753 328.044 7.26898 324.897 7.63139C324.626 7.66426 326.625 8.13238 326.017 8.31701C325.959 8.33528 324.843 8.24775 324.569 8.38979C324.293 8.53215 324.557 8.91003 324.11 9.04016C323.33 9.26863 321.57 8.68369 320.969 9.00891C320.883 9.05261 321.969 9.59573 322.036 9.6172C323.155 9.96544 324.254 9.38027 324.426 9.38536C325.318 9.40837 325.166 9.89877 325.386 10.0265C325.806 10.2666 326.567 10.0844 326.619 10.1035C327.951 10.6031 324.856 10.3277 324.423 10.4887C323.281 10.9234 324.312 11.4179 321.584 11.5822C321.31 11.5959 318.264 11.4499 322.104 12.1624C314.472 13.0624 325.863 12.9579 327.134 12.7701C327.705 12.6763 326.874 12.17 327.228 11.9731C328.019 11.5227 329.408 11.5047 329.316 10.8214C329.126 9.38304 327.307 10.2247 326.102 9.92453C326.246 9.61833 326.311 9.31596 326.564 9.02304C326.179 9.41526 329.179 9.77701 329.307 9.70381C329.307 9.70287 329.307 9.70194 329.307 9.70101ZM309.976 10.5469C308.301 10.0319 308.387 10.9982 306.836 10.3982C305.415 11.2255 308.158 11.2468 308.465 11.3048C309.893 11.5657 309.825 12.4975 311.324 12.2533C310.836 11.6879 310.44 11.1173 309.976 10.5469ZM324.803 11.5006C323.632 11.9139 325.691 11.9934 325.769 12.0849C326.613 13.0543 320.535 12.6292 324.803 11.5006ZM227.793 9.38231C227.213 9.35491 227.593 9.92895 227.086 10.1144C226.579 10.3017 224.81 9.84748 224.862 10.2114C224.918 10.5783 228.153 11.4275 224.929 11.7309C225.044 11.9328 225.01 12.0871 225.067 12.271C225.956 12.2476 226.849 12.2283 227.731 12.2066C227.235 11.6344 226.724 11.0299 226.244 10.4732C226.732 9.99102 227.024 10.5847 227.05 10.5838C227.05 10.5831 227.05 10.5825 227.05 10.5819C227.975 10.5085 229.094 9.44336 227.793 9.38231ZM273.484 10.6607C273.672 9.36724 272.288 10.8057 271.721 10.9676C271.154 11.1273 270.384 10.6438 270.669 11.2053C271.582 11.5915 273.464 10.8035 273.484 10.659C273.484 10.6596 273.484 10.6601 273.484 10.6607ZM300.712 10.2741C299.275 10.5273 299.496 10.847 297.739 10.4481C297.799 10.7412 297.859 11.0405 297.919 11.3289C299.321 11.3638 299.25 10.5202 300.842 10.897C301.102 10.9591 300.522 11.6153 301.707 11.4275C301.376 11.0631 301.041 10.6582 300.712 10.2741ZM293.581 11.2009C295.238 11.183 296.614 8.83938 293.536 9.84286C293.087 9.99339 292.353 11.2142 293.581 11.2009ZM242.961 9.03571C240.157 8.99336 243.349 9.39569 244.075 9.80586C237.562 10.2416 244.82 9.68169 245.462 11.0672C246.254 10.6556 247.747 9.7339 246.082 9.5108C245.386 9.41816 245.644 9.83034 245.602 9.82911C244.339 9.74337 244.487 9.05989 242.961 9.03571ZM312.952 10.5936C312.847 10.6069 312.995 11.0011 312.659 11.0675C312.323 11.1335 311.574 10.8352 311.489 11.0722C311.406 11.3112 312.919 11.5462 313.386 11.3871C313.854 11.2263 313.903 10.4783 312.952 10.5936ZM302.254 9.26489C300.84 9.51342 303.092 11.0594 303.395 11.0579C306.067 11.0534 302.168 9.73495 302.254 9.26489ZM249.439 6.05008C246.068 6.92954 248.558 8.45307 250.656 9.33638C250.931 9.15007 251.222 8.96389 251.498 8.78025C250.232 9.90489 248.012 11.0357 252.96 10.013C250.247 9.77487 252.518 9.45515 252.535 9.39317C252.824 7.34804 248.818 8.31755 249.442 6.05008C249.441 6.05008 249.44 6.05008 249.439 6.05008ZM317.466 11.1663C318.963 11.2143 322.754 11.0834 321.014 10.2797C319.846 10.5704 318.667 10.8662 317.466 11.1663ZM194.13 7.28799C192.908 6.74737 191.801 6.79813 190.319 6.8965C191.694 7.70373 190.82 7.83688 190.379 8.0674C189.711 8.41426 191.364 8.3172 191.371 8.37502C191.377 9.19276 190.332 9.3664 192.725 9.24067C192.146 9.5503 191.574 9.86322 190.995 10.1738C192.823 10.1256 193.274 10.6383 194.454 11.2297C193.27 9.70199 194.774 10.6212 196.093 9.77818C196.75 9.35856 194.748 7.56691 194.126 7.28817C194.127 7.28811 194.129 7.28805 194.13 7.28799ZM245.939 5.77653C245.588 6.02866 245.278 6.37019 244.946 6.65992C244.582 6.68927 244.216 6.71549 243.851 6.74528C243.804 6.52219 243.764 6.28868 243.709 6.07406C243.226 6.01123 243.417 6.32175 243.274 6.35178C243.274 6.35058 243.274 6.34938 243.274 6.34818C241.221 6.77335 240.362 6.73894 238.753 6.05194C238.762 6.74529 238.771 7.43865 238.78 8.13201C239.14 8.06111 239.503 7.99212 239.862 7.92361C240.05 7.54976 240.235 7.1763 240.425 6.80359C240.85 7.00449 241.27 7.20355 241.693 7.40354C242.029 7.26735 242.432 7.12418 242.721 6.99277C244.414 8.89464 240.596 7.62901 240.566 8.43058C240.554 8.94543 244.385 8.87174 244.924 8.5168C245.002 8.465 244.169 7.05055 245.566 7.77971C245.785 7.89635 245.89 10.955 247.385 8.46372C247.599 8.11173 246.833 6.21914 245.939 5.77653ZM232.011 4.85286C234.205 6.85752 226.202 4.80718 229.664 6.44146C228.706 7.39546 228.884 7.38347 229.888 8.19742C229.976 8.27025 229.297 8.54183 229.357 8.57355C230.29 9.01395 231.4 8.7481 231.422 9.57988C231.67 9.53014 231.904 9.48574 232.152 9.4363C231.101 8.67441 232.742 8.11484 233.366 7.44819C233.651 7.14584 232.983 7.0634 233.223 6.79887C233.312 6.70235 234.244 6.88004 234.278 6.60708C234.347 5.99 233.751 5.1634 232.75 4.71559C232.75 4.71497 232.75 4.71436 232.75 4.71374C232.501 4.75653 232.26 4.80801 232.011 4.85286ZM278.074 6.65262C278.424 7.65481 279.888 7.95589 277.061 8.40375C277.198 8.60189 277.339 8.79822 277.476 8.99594C277.952 8.98425 278.412 8.97278 278.893 8.96332C280.363 6.06773 282.994 9.40215 281.32 7.31155C281.139 7.08435 279.997 7.31163 281.13 6.72627C281.128 6.7257 281.127 6.72513 281.125 6.72455C279.545 6.87823 279.372 7.22845 278.074 6.65262ZM267.651 7.20965C264.049 9.34002 272.578 8.44151 271.168 7.87087C271.031 7.816 267.371 8.24799 267.651 7.20965ZM296.484 6.05085C294.88 5.95932 294.737 7.03242 294.891 7.42411C295.045 7.81682 296.169 7.45838 296.31 7.5241C296.771 7.73884 295.778 7.84188 296.376 8.13478C296.568 8.22989 299.361 8.69155 299.493 8.64987C300.214 8.41859 299.198 7.51163 299.405 7.41766C300.082 7.11236 300.966 7.59743 301.171 7.14141C301.616 6.16935 299.909 7.14426 299.622 7.15284C298.761 7.17049 298.852 6.61368 298.207 6.47823C297.56 6.34295 297.151 6.52125 296.586 6.46213C296.398 6.44238 296.565 6.05725 296.484 6.05085ZM291.107 8.16831C292.816 7.39217 288.712 6.38227 288.243 6.56241C286.809 7.10534 290.284 8.54343 291.107 8.16831ZM237.452 7.8357C238.983 7.12802 235.381 6.6089 234.365 6.90177C234.549 7.18962 236.931 8.08101 237.452 7.8357ZM250.371 6.05338C248.97 6.26274 250.829 7.76522 252.022 7.73533C252.712 6.75 252.061 6.9462 251.285 6.90682C250.512 6.86703 251.468 5.8918 250.371 6.05338ZM313.889 7.69523C313.607 7.66415 308.646 8.1442 311.471 8.5469C311.689 8.57576 315.115 8.59984 315.39 8.48733C315.926 8.25612 314.686 7.76855 313.889 7.69523ZM257.157 4.6356C256.404 5.46907 255.661 5.45655 256.355 6.44747C256.356 6.44747 256.357 6.44748 256.358 6.44748C254.467 6.7467 254.386 4.71507 253.977 4.75541C252.549 4.90069 253.906 6.35628 253.011 6.83139C255.092 6.38512 254.494 7.36107 256.069 7.4223C256.428 7.43504 257.855 6.85927 258.063 6.50165C258.271 6.14344 257.545 5.06125 257.157 4.6356ZM320.836 7.85556C319.209 7.5014 317.628 8.56752 319.92 8.85555C321.029 8.99538 321.828 8.06951 320.836 7.85556ZM155.062 8.6522C155.343 9.09081 155.631 9.52642 155.93 9.95836C155.327 10.1039 154.723 10.2524 154.118 10.4013C154.592 10.2284 155.067 10.0582 155.545 9.88837C154.389 9.79906 153.811 9.00254 155.059 8.65237C155.06 8.65232 155.061 8.65226 155.062 8.6522ZM114.22 10.8821C113.669 10.4438 112.775 11.9816 112.911 12.0878C113.935 12.8711 114.983 11.4874 114.22 10.8821ZM235.121 4.44693C233.215 4.30159 234.541 6.12952 235.727 6.23999C235.001 5.89685 236.215 4.52902 235.121 4.44693ZM128.58 10.0297C128.765 10.2176 128.952 10.4053 129.158 10.5918C128.535 10.3552 128.417 10.1755 128.58 10.0297ZM313.17 6.36092C312.89 6.23386 310.733 6.03517 310.429 6.16248C309.806 6.43131 311.477 7.32617 312.47 7.11971C312.58 7.09732 313.453 6.48757 313.165 6.3607C313.167 6.36078 313.168 6.36085 313.17 6.36092ZM152.423 7.95452C152.428 7.97546 152.427 7.99572 152.422 8.01463C152.423 7.99481 152.422 7.97446 152.423 7.95452ZM71.1445 10.8436C71.1596 10.8828 71.1692 10.922 71.171 10.9602C71.1634 10.9231 71.1509 10.8844 71.1445 10.8436ZM297.986 4.39433C297.317 2.89364 295.644 3.60549 296.926 4.38963C296.999 4.43082 297.811 4.38408 297.986 4.39433Z" fill="#DA001A"/>
</svg>
