<svg width="166" height="19" viewBox="0 0 166 19" fill="none" xmlns="http://www.w3.org/2000/svg">
<path d="M101.936 0.881043C108.689 0.98873 116.111 1.1351 122.877 1.68059C123.714 1.74727 123.648 2.03037 123.881 2.08048C124.513 2.21805 124.905 1.90412 125.373 1.95582C127.63 2.20319 129.741 2.38093 131.953 2.63095C134.22 2.88941 133.12 3.64523 133.899 3.8959C135.42 4.38351 134.155 3.2304 134.777 3.03112C136.546 3.21967 138.33 3.46609 140.1 3.71604C139.669 3.77841 139.229 3.8398 138.779 3.89695C139.567 3.97638 140.646 4.21345 139.346 4.38953C139.63 4.48394 139.885 4.58869 140.177 4.68125C140.288 4.31402 141.642 4.38592 141.79 4.17905C141.929 3.97099 141.149 3.95969 141.159 3.94138C141.229 3.67146 144.359 4.3004 144.59 4.34925C145.008 4.44059 144.852 4.6681 144.908 4.79779C144.92 4.79892 144.956 4.80102 144.967 4.8025C144.99 4.85644 145.049 4.89489 145.201 4.90321C146.093 4.95135 145.575 3.99503 146.66 5.31343C147.175 4.98374 147.174 5.1858 147.786 5.28181C147.865 5.29421 147.825 5.06725 147.861 5.06557C148.781 5.00904 148.046 5.33486 148.049 5.35798C148.091 5.74238 149.083 5.68632 149.282 5.74624C151.804 6.48964 153.655 6.99121 156.335 7.45786C156.917 7.55526 158.717 7.68794 159.28 7.85132C159.821 8.00496 159.491 8.19506 159.757 8.36188C160.324 7.87212 160.805 7.88901 161.77 8.52559C162.274 8.23271 162.137 8.5215 162.925 8.71947C162.936 8.72244 162.947 8.72534 162.958 8.72815C162.963 8.73008 162.977 8.73542 162.981 8.73752C163.619 8.91922 164.797 8.99795 165.216 9.67226C164.526 9.27936 164.512 9.49038 163.647 9.207C163.565 9.18106 163.283 9.05432 162.908 8.90939C162.905 8.90787 162.895 8.90401 162.891 8.90261C161.882 8.54423 160.325 8.36419 160.432 8.69862C160.507 8.93923 161.544 8.95657 161.573 9.01372C161.733 9.30239 161.119 9.44962 160.659 9.25184C160.786 9.22796 160.949 9.21185 161.088 9.19335C160.048 8.6616 160.583 9.96651 159.934 8.80065C159.853 8.65772 159.909 8.53441 159.765 8.37203C159.721 8.42039 159.903 8.59295 159.721 8.58505C159.531 8.57618 159.221 8.25698 159.13 8.46612C159 8.76976 159.79 8.7758 159.843 8.8064C159.844 8.80462 159.845 8.80284 159.846 8.80106C160.332 9.06099 159.251 8.88662 159.202 8.91239C158.838 9.05614 159.034 9.24276 158.517 9.33176C158.219 9.38196 157.512 9.22587 157.236 9.2207C156.972 9.2176 157.354 9.42435 157.175 9.43418C157 9.4448 156.777 9.29691 156.573 9.31018C156.482 9.31597 156.463 9.48871 156.419 9.48942C155.943 9.49873 156.289 9.17577 155.873 9.14714C155.591 9.12613 154.638 9.36153 155.253 9.53331C154.952 9.53489 154.637 9.52623 154.339 9.5226C154.522 9.59515 154.712 9.6515 154.895 9.7336C154.332 9.58749 154.036 9.8619 153.679 9.84924C153.325 9.8372 153.035 9.43818 152.627 9.57923C151.741 9.87985 153.843 9.90237 154.094 9.99863C154.194 10.0354 153.76 10.2788 153.708 10.2826C153.448 10.2938 153.15 10.0589 152.945 10.0487C152.219 10.0147 151.738 10.2476 151.032 10.2444C149 10.2344 146.562 10.1998 144.468 10.1418L144.565 10.1494C144.203 10.1506 143.844 10.1501 143.494 10.1479C142.663 10.1449 142.159 9.79283 141.789 9.78985C140.894 9.78267 140.784 10.0762 140.003 10.0708C138.864 10.0656 137.235 9.76243 136.295 9.68339C135.622 9.62765 135.022 9.91592 134.845 9.92043C132.436 9.98456 129.523 9.95232 127.534 9.94854C126.605 9.9476 126.158 9.58624 125.971 9.59588C125.144 9.63784 125.357 9.94874 124.681 9.91739C124.313 9.90093 124.26 9.60127 124.21 9.58944C123.787 9.48996 123.691 9.88282 123.356 9.89678C121.437 9.97792 119.576 9.72899 117.684 9.70831C117.545 9.70666 117.56 9.52469 117.47 9.53486C117.082 9.58327 117.256 9.86836 116.857 9.89445C116.029 9.95029 115.161 9.91565 114.284 9.89358C114.196 9.89145 114.16 9.65294 113.959 9.65595C113.757 9.65905 113.602 9.88908 113.284 9.88224C112.471 9.86496 111.647 9.60534 110.781 9.60742C110.637 9.60807 110.458 9.90703 110.241 9.90895C109.559 9.91524 108.557 9.66904 107.975 9.67321C106.051 9.68941 104.288 9.91595 102.475 9.98165C102.052 9.99649 101.673 9.72069 101.452 9.72122C100.952 9.72368 101.332 9.98442 100.825 10.0042C96.7093 10.1653 92.5561 10.2284 88.3994 10.4857C87.8709 10.5184 87.3038 10.5852 86.7231 10.6621C85.5267 10.8215 84.2647 11.0264 83.1997 11.038C82.541 11.0444 82.4041 10.6297 81.9368 10.6559C81.1083 10.7045 80.9823 11.2601 80.1087 11.3769C79.4081 11.4702 78.59 10.9757 77.8629 11.0607C77.1363 11.1462 76.825 11.7117 75.9966 11.8411C75.3142 11.9472 74.336 11.7738 73.5941 11.8725C66.7558 12.7806 60.0275 13.6718 53.0943 13.871C50.6468 13.9379 47.955 14.3007 45.3887 13.9313C45.1479 13.8958 45.4648 13.2504 44.7167 13.4519C44.3146 13.5606 43.7855 14.145 42.8442 14.2671C37.2613 14.9991 31.1919 14.4317 25.5105 15.2531C16.9937 16.4007 8.59932 22.6808 0.527711 15.8692C0.131376 15.5302 0.172764 13.6688 0.347055 13.1276C0.581568 13.4829 0.806643 13.9088 1.05451 14.3096C1.12724 11.9928 1.13096 12.5959 2.13905 12.7132C2.75978 12.7866 2.18984 11.8541 2.4916 11.55C2.88268 11.1549 4.76868 9.87904 4.5146 11.4067C4.61532 11.1369 4.70755 10.8791 4.80565 10.6158C6.22006 10.2736 7.58182 9.79121 8.94928 9.26212C9.18547 9.1698 9.15775 8.70798 9.40197 8.61603C10.0577 8.36604 10.6167 8.62853 11.3058 8.53063C11.6803 8.47773 11.6883 7.9466 12.1844 7.94504C12.6802 7.94404 12.7287 8.65226 13.3364 7.83456C12.8238 6.97782 14.8324 7.48532 15.5229 7.38124C15.6232 7.3665 16.3843 6.52151 16.8319 6.58326C17.2811 6.64294 17.993 7.0968 18.6518 6.76702C18.9606 6.61224 19.1045 5.99301 19.4468 5.93653C19.6879 5.89701 20.0244 6.41529 20.3338 6.41695C20.6432 6.41841 21.2721 5.93579 21.3934 5.92104C21.8308 5.86364 21.3765 6.27029 21.6788 6.26947C23.1387 6.25964 24.8403 6.34523 26.2545 6.00404C26.4283 5.96267 26.1494 5.54487 26.1716 5.52884C27.3246 4.92303 26.7319 5.52704 27.0859 5.89324C27.4276 6.24709 29.7012 5.89296 29.6584 5.15122C29.8031 6.07686 30.2548 5.33455 30.3848 5.29973C30.8901 5.16334 30.8534 5.97008 31.3327 5.69091C31.5088 5.58947 31.1092 5.07135 31.3074 5.07512C31.7973 5.08549 32.3034 5.92351 32.9563 5.96757C33.114 5.97863 33.1346 5.59173 33.413 5.58745C33.6916 5.58363 34.8956 5.97709 34.2941 5.206C35.052 5.80716 35.1667 5.44375 35.9896 5.41142C36.198 5.40432 36.5131 5.99693 36.9425 5.77995C37.0876 5.70647 37.038 5.12092 37.2636 5.10265C37.7793 5.05957 38.3118 5.63391 38.9673 5.61665C40.1977 5.58545 41.466 5.08831 42.7575 5.16173C43.1079 5.18187 43.064 5.76071 43.5694 5.74057C43.6435 5.73564 44.2146 5.20483 44.5662 5.23112C44.7777 5.24696 45.8934 5.52717 46.1143 5.54132C46.4802 5.56366 46.5053 5.0137 46.7117 5.10908C47.308 5.38365 46.9049 6.21082 47.5167 5.07478C47.7884 5.66842 48.1887 5.58353 48.3713 6.32009C48.5484 5.48988 48.9094 6.25444 49.3456 5.9538C49.7818 5.65255 50.0447 4.06561 50.2739 5.7448C50.4733 5.52667 51.3583 5.12626 51.5096 5.09263C51.9561 4.99565 51.7468 5.47207 52.0829 5.39005C52.1421 5.37619 52.0576 5.06359 52.4441 5.0734C52.695 5.08018 54.5538 4.99729 54.6655 5.03437C55.958 5.45336 54 5.3816 53.7493 5.73768C53.695 5.65131 53.6413 5.56457 53.5838 5.47933C53.0154 5.36275 53.3819 6.05517 53.6458 6.20413C53.9099 6.35308 54.3604 6.00954 54.5857 6.22896C54.698 6.33904 54.6904 7.18903 54.3677 7.1074C54.7232 7.34633 54.2804 7.65225 54.4306 7.88878C54.5967 8.1479 56.1148 8.12453 56.0945 7.6612C55.8083 7.66403 55.4584 7.70355 55.1707 7.70367C54.7411 6.91534 55.6958 4.09281 56.8189 5.13717C57.6298 5.88643 56.4211 6.58411 58.1706 5.81925C57.8932 5.80295 57.6551 5.7416 57.4022 5.72227C57.3363 5.12409 57.7861 5.76062 57.9831 5.55832C58.0778 5.46009 57.4296 5.06934 57.9593 4.89988C58.4762 5.72998 58.7822 4.85064 59.5604 4.80195C59.3535 4.96433 59.1462 5.1265 58.9392 5.28997C60.2952 5.83275 57.2515 6.21241 59.8317 6.40821C59.5261 6.45363 59.2194 6.46447 58.9125 6.52488C59.0826 6.82813 58.9016 7.76057 59.0482 7.94569C59.4326 8.4305 59.9325 8.08856 60.3629 8.10481C60.5511 8.11098 60.4506 8.36471 60.4664 8.36511C60.7242 8.37488 60.645 8.01847 60.8682 7.98071C61.1471 7.93385 61.9917 8.22801 62.1211 8.17935C62.4584 8.05575 61.8427 7.38714 61.8724 7.3318C62.0707 6.97613 62.5357 7.23229 62.4847 6.78747C61.4232 7.16115 58.301 6.94797 61.0577 6.03909C60.2405 5.35637 60.3951 4.33705 61.5105 4.20726C62.4312 4.09833 61.8594 4.52585 62.3669 4.94033C62.4332 4.99226 63.6779 5.13851 63.7236 4.82796C63.7167 5.53941 64.1572 6.14381 63.9309 6.8895C63.897 6.99909 63.3898 6.98699 63.6014 7.56482C63.707 7.85516 63.999 8.48101 63.9809 8.8593C64.0692 8.59087 64.1605 8.28993 64.2499 8.01102C65.0043 7.88621 65.1282 8.16039 65.5701 8.6163C65.5394 8.41617 65.1073 7.59163 65.7028 7.81324C65.7335 7.82674 65.7771 8.12931 66.0802 8.26085C66.6915 8.52449 66.8235 8.60738 66.4171 9.52922C67.624 8.93667 67.9464 9.90454 69.1911 9.52845C68.8769 8.41756 68.4504 8.72257 67.3029 9.02084C67.237 8.75333 67.198 8.48666 67.1303 8.21613C68.7099 8.73086 67.9425 8.71426 68.7849 8.1134C68.9888 7.96633 70.1436 8.03951 69.7197 7.30529C69.62 7.13225 68.9089 7.19326 68.9749 6.90665C68.9879 6.8518 69.8463 6.66828 69.9261 6.73684C70.9294 7.57738 69.2593 8.29735 71.8659 7.81777C71.9381 7.80402 71.9466 7.47873 72.0862 7.42577C72.3486 7.32692 72.3714 7.70101 72.6048 7.6011C72.8382 7.50067 73.1423 6.98187 73.5226 7.42529C74.2165 8.22855 72.7057 8.80658 71.9934 8.4005C71.7767 9.52968 76.6695 9.23136 76.9658 9.1245C78.2747 8.64178 76.0775 9.00733 75.952 8.71292C75.8989 8.58863 75.8447 6.96806 75.3368 8.05041C75.187 8.37231 75.8968 8.74165 75.4935 8.93834C75.09 9.13578 75.2298 8.64775 75.1984 8.61622C75.0903 8.50792 74.6599 8.71184 74.5995 8.64742C73.6719 7.66571 73.6728 6.09988 74.951 8.33806C75.4319 7.79077 74.2283 7.02461 74.841 6.63884C75.5864 6.17346 76.1782 6.88547 76.2755 6.91299C77.4435 7.24772 76.0652 6.24042 77.4916 6.51607C78.2846 6.66786 76.3513 7.28427 78.1376 7.1259C79.6287 6.99393 78.8055 6.66536 78.8771 5.82133C78.8939 5.62383 79.7024 5.35156 78.5908 5.48175C78.5691 5.70165 78.5224 5.99237 78.4606 6.19733C78.18 6.05036 77.6723 4.97041 77.5243 4.93683C76.8021 4.78029 76.8611 5.35329 76.41 4.69323C76.7439 5.42158 76.2364 4.99477 76.0609 5.15865C75.4088 5.76403 76.3125 5.94353 74.748 5.26349C74.9647 5.60509 75.1615 5.94006 75.3709 6.27868C75.1885 6.29931 75.0059 6.32035 74.8232 6.34119C74.5124 5.58396 73.5394 5.72335 74.3857 4.90766C73.3132 4.72993 72.896 4.91586 72.6943 5.53298C72.6561 5.65072 72.4993 5.70442 72.3126 5.7244C72.3569 5.89359 72.4295 6.4189 72.4034 6.4851C72.1695 7.06843 71.7084 6.10464 71.8283 5.72099C71.6961 5.70921 71.591 5.693 71.5539 5.68559C71.3184 5.63791 71.7563 5.27608 71.5616 5.16797C71.4965 5.13273 70.8502 5.23641 70.8298 5.09802C70.7026 4.20984 71.8144 4.80846 69.6252 4.38034C69.618 5.19904 70.6112 4.97374 70.4002 5.84929C70.1746 6.79198 69.5427 5.57304 69.4819 6.72283C69.4257 6.53724 69.3968 6.38143 69.3455 6.16925C68.4982 6.71475 68.4374 5.7594 68.1582 5.56044C67.6192 5.17095 65.2353 5.35411 67.425 6.07958C67.1171 6.17929 66.7998 6.23502 66.4922 6.32587C66.3207 4.59584 66.5502 5.27644 65.0377 5.08431C64.7042 5.04211 64.5506 4.27664 64.2808 5.20754C64.2713 4.30757 63.3244 4.89713 63.2284 4.79273C62.5987 4.10412 64.7165 3.02662 65.0881 4.59595C65.4183 3.96408 65.4648 4.77699 65.8667 4.65011C66.4456 4.46754 66.5235 4.30834 67.2592 4.87037C67.9034 4.00368 64.5301 4.61975 66.5266 3.41725C68.5199 2.18636 80.5325 1.30932 83.345 1.15922C84.4605 1.08664 85.4731 1.02313 86.3991 0.969151C89.7053 0.77899 92.1272 0.691132 95.7001 0.761674C96.156 0.767477 99.5645 0.750306 98.868 1.55345C98.7656 1.66723 97.3047 1.969 98.5714 2.61689C98.3092 2.23725 99.0481 1.99742 99.1093 1.95883C100.521 1.07672 99.6884 0.84706 101.936 0.881043ZM108.57 7.88807C105.671 7.75126 107.802 8.23801 107.199 9.41427C107.573 9.40857 107.943 9.4031 108.313 9.39803C108.216 9.32753 108.12 9.25711 108.022 9.18639C108.022 9.18639 108.022 9.1864 108.021 9.18641C108.204 8.75209 108.388 8.31921 108.57 7.88807ZM155.679 10.0986C155.555 10.1914 155.43 10.2847 155.293 10.3747C154.933 10.3036 154.547 10.2306 154.183 10.1607C154.236 10.0928 154.289 10.024 154.342 9.95636C154.783 10.005 155.223 10.0551 155.679 10.0986ZM71.5987 8.63244C71.0317 8.14214 71.1306 9.07513 70.3895 8.6942C70.5151 9.38194 70.6493 10.053 70.7786 10.7317C71.3186 10.5885 71.4253 10.3178 72.029 10.4433C71.9482 10.2272 71.8656 10.0096 71.7861 9.7916C71.689 9.84593 71.588 9.90722 71.4947 9.95604C71.3089 9.34533 72.2537 9.19133 71.6005 8.6309C71.5999 8.63141 71.5993 8.63192 71.5987 8.63244ZM66.0736 9.28188C65.7788 9.21033 64.6055 8.94112 64.4652 9.24807C63.9935 10.2911 67.2026 9.41394 64.8624 10.482C64.8817 10.6217 64.879 10.7602 64.8872 10.8994C65.3268 10.9143 65.7638 10.9224 66.2041 10.9272C66.1486 10.3784 66.1325 9.83351 66.0736 9.28188ZM98.1071 8.15811C97.6654 8.10426 95.5312 8.57218 96.2388 9.08423C96.4475 9.23192 97.3871 8.43532 97.7473 8.45828C97.9807 8.47206 97.7263 8.89618 98.1832 8.72822C98.1601 8.546 98.1445 8.34361 98.1058 8.15938C98.1062 8.15896 98.1067 8.15854 98.1071 8.15811ZM98.914 5.73077C98.4472 5.81071 97.9811 5.91155 97.5167 5.99856C97.8644 6.46651 98.5257 6.15053 98.5773 6.81332C98.4499 6.86628 98.3227 6.91909 98.1975 6.97232C98.0983 6.82908 98.0005 6.68544 97.9026 6.54171C97.5091 6.91205 97.7549 7.08716 97.0079 6.99993C97.4776 8.0024 97.5606 8.53253 98.8244 7.48469C98.59 8.03546 98.8433 9.79704 99.5318 8.51234C99.6609 8.27478 99.1071 8.13386 99.1 8.0966C99.0086 7.63441 99.3117 7.33097 99.2145 6.89503C99.1709 6.69767 98.8327 6.70732 98.778 6.43239C98.7527 6.298 99.0698 5.90943 98.914 5.73077ZM99.8684 8.06175C99.7295 8.34602 100.224 8.995 100.644 8.84742C101.307 8.62055 100.253 8.02129 99.8684 8.06175ZM155.682 10.0985C155.681 10.0986 155.68 10.0986 155.679 10.0986C155.68 10.0983 155.68 10.0979 155.681 10.0976C155.681 10.0979 155.681 10.0982 155.682 10.0985ZM67.5961 9.56509C67.2698 9.87353 66.7593 9.86918 66.8229 10.3203C66.6507 10.2436 66.4773 10.1683 66.3064 10.0911C66.3159 10.2278 66.327 10.3646 66.3364 10.4999C66.8404 10.5472 67.3481 10.5942 67.8529 10.6422C67.7695 10.2838 67.6907 9.92338 67.5961 9.56509ZM62.1164 9.63805C61.4824 9.63766 62.0507 10.231 61.9311 10.5468C61.8119 10.8632 61.2338 10.6591 61.3277 11.0934C61.7001 11.0804 62.0884 11.0662 62.4645 11.0516C62.3363 10.584 62.2372 10.1046 62.1151 9.63815C62.1155 9.63811 62.1159 9.63808 62.1164 9.63805ZM120.373 8.20836C119.948 8.10943 120.132 7.76384 119.273 8.16549C119.274 8.1655 119.275 8.1655 119.275 8.1655C120.082 8.45205 121.099 8.70087 121.998 8.4362C121.466 8.07421 121.034 8.36269 120.373 8.20836ZM73.1658 9.88531C73.3279 9.51225 72.472 9.26488 72.3035 9.61457C72.0318 10.182 72.9199 10.4533 73.1658 9.88531ZM137.757 6.41677C138.448 5.71824 137.257 4.81622 135.932 5.09958C135.818 5.12518 136.651 5.4099 136.394 5.54112C136.37 5.55413 135.902 5.51083 135.787 5.60917C135.67 5.70766 135.777 5.95586 135.588 6.04848C135.259 6.2111 134.526 5.84408 134.273 6.0683C134.237 6.09855 134.684 6.44646 134.713 6.4599C135.178 6.67753 135.645 6.27311 135.717 6.27421C136.088 6.27751 136.021 6.60622 136.111 6.68829C136.285 6.84259 136.606 6.71078 136.627 6.72273C137.18 7.03717 135.885 6.89631 135.704 7.00919C135.221 7.31381 135.647 7.62996 134.503 7.77462C134.39 7.78737 133.117 7.72867 134.715 8.15443C131.515 8.85038 136.277 8.63742 136.813 8.49163C137.054 8.42122 136.711 8.09561 136.861 7.95954C137.199 7.6486 137.778 7.61658 137.748 7.16279C137.684 6.20763 136.915 6.79421 136.412 6.61066C136.476 6.40473 136.507 6.20245 136.616 6.00387C136.451 6.27062 137.702 6.46944 137.757 6.41864C137.757 6.41801 137.757 6.41739 137.757 6.41677ZM129.657 7.21919C128.962 6.89329 128.989 7.53624 128.345 7.15166C127.744 7.71676 128.891 7.70427 129.019 7.73967C129.615 7.89902 129.577 8.52059 130.206 8.34202C130.007 7.97051 129.846 7.59447 129.657 7.21919ZM135.851 7.67802C135.36 7.96915 136.217 7.99427 136.249 8.05416C136.591 8.68877 134.055 8.48667 135.851 7.67802ZM95.3033 6.63425C95.0606 6.61277 95.2219 6.99752 95.0107 7.11828C94.7996 7.24037 94.0579 6.92707 94.0812 7.16989C94.1066 7.41488 95.4626 8.00004 94.1169 8.1831C94.1656 8.3184 94.1524 8.42106 94.1771 8.54395C94.5482 8.53372 94.9214 8.52607 95.2899 8.5165C95.08 8.1323 94.8638 7.7265 94.6605 7.35259C94.8622 7.03405 94.9871 7.43139 94.998 7.43093C94.998 7.43052 94.998 7.4301 94.998 7.42968C95.3841 7.38603 95.8473 6.68201 95.3033 6.63425ZM114.401 7.5409C114.483 6.67808 113.901 7.64133 113.664 7.7508C113.426 7.85889 113.106 7.53855 113.224 7.91215C113.603 8.16727 114.393 7.63626 114.401 7.53979C114.401 7.54016 114.401 7.54053 114.401 7.5409ZM125.784 7.12479C125.182 7.30564 125.271 7.5169 124.541 7.26514C124.563 7.46 124.586 7.65902 124.61 7.85071C125.195 7.86272 125.171 7.30116 125.835 7.53884C125.943 7.57793 125.696 8.02027 126.193 7.88493C126.057 7.64493 125.92 7.37799 125.784 7.12479ZM122.797 7.79802C123.49 7.7742 124.079 6.20216 122.786 6.89324C122.598 6.99674 122.285 7.81555 122.797 7.79802ZM101.644 6.46515C100.471 6.42914 101.807 6.70638 102.111 6.98141C99.3898 7.25417 102.423 6.90123 102.693 7.82549C103.023 7.55285 103.646 6.94126 102.949 6.78923C102.658 6.72602 102.767 7.00132 102.75 7.00042C102.222 6.94045 102.282 6.48521 101.644 6.46515ZM130.902 7.21856C130.858 7.22856 130.916 7.48959 130.775 7.53752C130.634 7.5852 130.323 7.39448 130.285 7.55329C130.249 7.71343 130.88 7.85372 131.077 7.74245C131.274 7.63011 131.301 7.1313 130.902 7.21856ZM126.436 6.43888C125.844 6.61695 126.773 7.62743 126.901 7.62361C128.018 7.59618 126.397 6.75318 126.436 6.43888ZM104.349 4.48797C102.939 5.06885 103.984 6.08901 104.862 6.68041C104.976 6.55654 105.098 6.43274 105.213 6.3106C104.685 7.05881 103.758 7.81062 105.825 7.13372C104.691 6.9726 105.64 6.7615 105.647 6.72018C105.766 5.35733 104.092 5.99898 104.35 4.48797C104.35 4.48797 104.349 4.48797 104.349 4.48797ZM132.785 7.54848C133.411 7.56298 134.997 7.4275 134.279 6.91425C133.787 7.12268 133.289 7.33417 132.785 7.54848ZM81.1995 4.94776C80.6823 4.57339 80.219 4.59413 79.5986 4.64161C80.1827 5.19606 79.8178 5.27418 79.6355 5.42238C79.3588 5.6453 80.0504 5.60077 80.0538 5.63932C80.0641 6.18412 79.6282 6.2874 80.6291 6.23219C80.3897 6.43161 80.1534 6.63323 79.9136 6.83313C80.6786 6.82308 80.8723 7.16982 81.3718 7.5776C80.8617 6.54598 81.5001 7.17603 82.0442 6.6293C82.3154 6.35717 81.4612 5.14082 81.1976 4.94782C81.1982 4.9478 81.1989 4.94778 81.1995 4.94776ZM102.883 4.29948C102.737 4.46683 102.608 4.69383 102.47 4.88623C102.317 4.90497 102.164 4.92158 102.012 4.94054C101.991 4.79169 101.974 4.63593 101.951 4.49272C101.749 4.44961 101.829 4.65709 101.769 4.67675C101.769 4.67595 101.769 4.67515 101.769 4.67435C100.911 4.95237 100.552 4.92665 99.8765 4.46326C99.8821 4.9255 99.8878 5.38774 99.8934 5.84999C100.044 5.80396 100.196 5.75918 100.346 5.71466C100.423 5.46606 100.5 5.21767 100.578 4.96982C100.756 5.10507 100.933 5.23903 101.11 5.37357C101.25 5.28375 101.418 5.18943 101.539 5.1026C102.252 6.37506 100.651 5.52091 100.641 6.05486C100.637 6.39835 102.239 6.35984 102.464 6.12406C102.497 6.0897 102.145 5.14492 102.731 5.6341C102.823 5.7123 102.871 7.75174 103.493 6.09372C103.582 5.85944 103.259 4.59641 102.883 4.29948ZM97.0496 3.63653C97.9756 4.98378 94.6173 3.5769 96.0731 4.68393C95.6766 5.31485 95.751 5.30781 96.174 5.85556C96.2111 5.90457 95.9287 6.08209 95.9539 6.10354C96.3452 6.40201 96.8089 6.23017 96.8211 6.78472C96.9248 6.75276 97.0223 6.72428 97.1258 6.69248C96.6833 6.17964 97.3675 5.81445 97.6264 5.37277C97.7446 5.1725 97.4648 5.11456 97.5641 4.9393C97.6011 4.87537 97.9919 4.9979 98.005 4.81606C98.0317 4.405 97.7796 3.85151 97.3586 3.54844C97.3586 3.54803 97.3585 3.54762 97.3585 3.54721C97.2546 3.57461 97.1537 3.60781 97.0496 3.63653ZM116.332 4.8525C116.476 5.5191 117.087 5.71402 115.903 6.02382C115.959 6.15538 116.018 6.28571 116.074 6.41697C116.274 6.40731 116.466 6.39779 116.667 6.38947C117.292 4.45325 118.38 6.66325 117.688 5.27762C117.613 5.12704 117.134 5.28374 117.61 4.88836C117.61 4.88798 117.609 4.88761 117.609 4.88723C116.948 4.9969 116.873 5.23102 116.332 4.8525ZM111.969 5.25547C110.459 6.68328 114.028 6.06563 113.439 5.68792C113.383 5.65204 111.85 5.94851 111.969 5.25547ZM124.042 4.34425C123.37 4.29537 123.305 5.01141 123.367 5.27139C123.429 5.53204 123.902 5.28476 123.96 5.32746C124.152 5.46708 123.736 5.5433 123.984 5.73397C124.064 5.7961 125.229 6.08158 125.285 6.05254C125.589 5.89245 125.169 5.2964 125.256 5.23206C125.542 5.02306 125.909 5.33884 125.998 5.03316C126.191 4.38158 125.469 5.04578 125.349 5.05379C124.988 5.07261 125.03 4.70077 124.761 4.61565C124.492 4.53067 124.318 4.65266 124.082 4.61758C124.004 4.60585 124.076 4.3479 124.042 4.34425ZM121.779 5.7937C122.498 5.2652 120.786 4.61888 120.589 4.74133C119.986 5.11187 121.433 6.04947 121.779 5.7937ZM99.337 5.64772C99.9757 5.1816 98.4662 4.82233 98.0425 5.01288C98.1207 5.20567 99.1197 5.80949 99.337 5.64772ZM104.739 4.49141C104.153 4.62913 104.932 5.63338 105.431 5.6145C105.719 4.95823 105.447 5.08851 105.122 5.06143C104.799 5.03403 105.197 4.385 104.739 4.49141ZM131.32 5.27711C131.202 5.2601 129.119 5.6324 130.299 5.87088C130.391 5.8881 131.824 5.86629 131.941 5.78789C132.168 5.62772 131.652 5.31709 131.32 5.27711ZM107.579 3.55032C107.264 4.106 106.953 4.09748 107.243 4.7582C107.244 4.7582 107.244 4.75821 107.245 4.75821C106.454 4.95735 106.419 3.60263 106.247 3.62936C105.65 3.72532 106.219 4.69659 105.845 5.01271C106.715 4.71654 106.466 5.3668 107.124 5.40805C107.274 5.41666 107.871 5.03274 107.958 4.79424C108.045 4.55539 107.741 3.83409 107.579 3.55032ZM134.229 5.30166C133.55 5.0861 132.877 5.81539 133.835 5.97923C134.298 6.05866 134.641 5.4316 134.229 5.30166ZM64.8392 5.29683C64.963 5.59353 65.0897 5.88834 65.2208 6.18088C64.9697 6.26773 64.7183 6.35648 64.467 6.4455C64.6634 6.33836 64.8602 6.23299 65.0582 6.12787C64.5723 6.04912 64.3194 5.50914 64.838 5.2969C64.8384 5.29688 64.8388 5.29686 64.8392 5.29683ZM47.7361 6.02217C47.4974 5.71942 47.147 6.72441 47.2059 6.79782C47.6486 7.33982 48.0661 6.4403 47.7361 6.02217ZM98.3507 3.37963C97.5521 3.27471 98.1141 4.49895 98.6102 4.57736C98.3049 4.34569 98.8092 3.4388 98.3507 3.37963ZM53.7493 5.73768C53.83 5.86629 53.9113 5.99475 54.0006 6.12279C53.7355 5.95346 53.6832 5.8316 53.7493 5.73768ZM131.03 4.39605C130.914 4.31458 130.011 4.20521 129.882 4.29308C129.619 4.47868 130.312 5.05763 130.73 4.90923C130.777 4.89313 131.148 4.47733 131.028 4.39595C131.029 4.39598 131.029 4.39601 131.03 4.39605ZM63.7231 4.78796C63.7253 4.80198 63.7254 4.81546 63.7236 4.82796C63.7237 4.81478 63.7226 4.80121 63.7231 4.78796ZM29.6452 5.07313C29.6523 5.09949 29.657 5.12579 29.6584 5.15122C29.6546 5.1264 29.6486 5.1004 29.6452 5.07313ZM124.681 3.22857C124.411 2.23379 123.704 2.72085 124.237 3.23371C124.267 3.26061 124.609 3.22317 124.681 3.22857Z" fill="#DA001A"/>
</svg>
