<svg width="17" height="21" viewBox="0 0 17 21" fill="none" xmlns="http://www.w3.org/2000/svg">
<path d="M16.0075 13.1882C16.6618 11.9602 17.0027 10.5897 17 9.19824C17 4.50374 13.1945 0.698242 8.50001 0.698242C3.80551 0.698242 1.31058e-05 4.50374 1.31058e-05 9.19824C-0.00351474 11.2034 0.705284 13.1446 2.00001 14.6757L2.01001 14.6882L2.01901 14.6982H2.00001L7.04401 20.0532C7.23099 20.2517 7.45659 20.4099 7.70693 20.518C7.95728 20.6261 8.22708 20.6818 8.49976 20.6818C8.77245 20.6818 9.04225 20.6261 9.29259 20.518C9.54294 20.4099 9.76853 20.2517 9.95551 20.0532L15 14.6982H14.981L14.989 14.6887L14.99 14.6877C15.026 14.6447 15.0618 14.6014 15.0975 14.5577C15.4444 14.1316 15.7492 13.6733 16.0075 13.1882ZM8.50251 12.4477C7.70686 12.4477 6.9438 12.1317 6.38119 11.5691C5.81858 11.0065 5.50251 10.2434 5.50251 9.44774C5.50251 8.65209 5.81858 7.88903 6.38119 7.32642C6.9438 6.76381 7.70686 6.44774 8.50251 6.44774C9.29816 6.44774 10.0612 6.76381 10.6238 7.32642C11.1864 7.88903 11.5025 8.65209 11.5025 9.44774C11.5025 10.2434 11.1864 11.0065 10.6238 11.5691C10.0612 12.1317 9.29816 12.4477 8.50251 12.4477Z" fill="#005384"/>
</svg>
