<svg width="395" height="34" viewBox="0 0 395 34" fill="none" xmlns="http://www.w3.org/2000/svg"><path d="M243.701.656c16.104.1 33.803.376 49.946 1.367 2.001.122 1.848.545 2.404.626 1.51.224 2.44-.236 3.557-.145 5.388.438 10.427.779 15.708 1.244 5.416.482 2.817 1.572 4.684 1.982 3.649.8.587-.988 2.064-1.26 4.226.364 8.485.824 12.715 1.298-1.024.07-2.066.139-3.138.2 1.882.161 4.461.577 1.373.771.682.157 1.289.328 1.995.484.246-.546 3.482-.36 3.824-.663.322-.304-1.544-.367-1.518-.393.157-.404 7.648.73 8.198.82.521.086.671.216.718.35.02.002.083.006.104.009.077.232-.168.463.617.521 2.125.157.815-1.335 3.503.759 1.199-.448 1.213-.143 2.677.062.189.027.076-.32.161-.319 2.181.007.462.425.47.46.127.584 2.488.6 2.963.711 6.06 1.385 10.504 2.342 16.913 3.402 1.389.222 5.667.685 7.008 1.032 1.298.326.543.56 1.19.86 1.27-.643 2.39-.55 4.738.665 1.1-.328.849.068 2.655.627l.023.007.035.015c1.454.526 4.111 1.12 5.266 2.442-1.647-.938-1.607-.592-3.605-1.4-.192-.076-.875-.408-1.774-.789a1.292 1.292 0 01-.026-.01c-2.33-.908-5.968-1.439-5.674-.916.219.38 2.664.635 2.732.735.437.492-.977.563-2.108.162.31-.007.669-.002 1.007.004-2.538-1.041-1.079 1.075-2.786-.838-.214-.234-.091-.41-.462-.687-.098.066.356.363-.075.318-.443-.046-1.227-.587-1.41-.282-.268.44 1.595.584 1.734.644a.517.517 0 01.006-.008c1.18.485-1.39.024-1.513.056-.836.16-.361.474-1.569.527-.708.027-2.399-.316-3.063-.364-.627-.043.302.326-.122.315-.416-.009-.953-.263-1.447-.273-.214-.004-.241.256-.346.25-1.125-.05-.349-.494-1.338-.592-.666-.07-2.917.165-1.437.504-.713-.036-1.473-.09-2.178-.132.44.132.907.242 1.348.39-1.365-.294-2.029.087-2.891.023-.841-.06-1.579-.699-2.533-.532-2.084.352 2.926.63 3.538.81.242.067-.761.384-.896.382-.62-.015-1.344-.405-1.842-.445-1.732-.136-2.858.161-4.548.078-4.874-.24-10.741-.54-15.762-.826l.153.012c-.837-.021-1.667-.044-2.476-.069-1.99-.056-3.214-.616-4.097-.643-2.138-.063-2.395.371-4.26.319-2.729-.073-6.635-.614-8.892-.778-1.61-.117-3.041.287-3.462.286-5.765-.018-12.744-.18-17.509-.252-2.223-.033-3.307-.59-3.752-.58-1.979.037-1.462.51-3.083.443-.883-.035-1.016-.486-1.134-.505-1.015-.161-1.237.426-2.04.438-4.597.07-9.057-.343-13.593-.406-.333-.005-.298-.278-.514-.264-.928.066-.511.497-1.464.53-1.983.07-4.066.007-6.166-.036-.21-.005-.3-.363-.782-.36-.483.002-.852.345-1.614.332-1.952-.034-3.923-.43-6.001-.43-.344 0-.773.447-1.291.449-1.634.006-4.037-.366-5.431-.36-4.611.023-8.836.37-13.182.483-1.012.026-1.918-.384-2.449-.381-1.198.009-.289.396-1.505.431-9.865.287-19.816.469-29.782.985a91.812 91.812 0 00-4.054.323c-2.86.28-5.877.631-8.418.69-1.578.036-1.892-.58-3.012-.522-1.985.107-2.306.947-4.402 1.16-1.681.17-3.622-.535-5.365-.374-1.742.163-2.509 1.027-4.497 1.262-1.638.192-3.973-.019-5.752.168-16.403 1.718-32.543 3.483-49.123 4.265-5.852.272-12.305 1.012-18.412.647-.573-.036.222-1.03-1.576-.672-.967.194-2.265 1.113-4.521 1.368-13.377 1.524-27.827 1.154-41.436 2.859C40.227 28.94 19.775 39.122.997 29.549c-.922-.476-.696-3.284-.243-4.115.535.515 1.042 1.138 1.606 1.72.332-3.496.3-2.588 2.695-2.497 1.475.057.18-1.3.92-1.783.96-.629 5.543-2.712 4.833-.389.258-.415.496-.811.748-1.216 3.396-.637 6.675-1.48 9.971-2.393.57-.16.535-.853 1.124-1.012 1.58-.432 2.895-.084 4.544-.29.897-.112.952-.913 2.134-.957 1.183-.043 1.25 1.02 2.754-.264-1.164-1.247 3.59-.652 5.244-.867.24-.03 2.11-1.368 3.174-1.312 1.067.052 2.733.676 4.326.124.746-.259 1.13-1.204 1.95-1.317.578-.08 1.345.673 2.083.65.737-.024 2.269-.803 2.559-.835 1.046-.123-.064.527.657.5 3.48-.135 7.532-.146 10.925-.775.417-.077-.22-.683-.166-.71 2.788-1.006 1.335-.048 2.155.475.792.505 6.235-.213 6.181-1.326.285 1.382 1.41.228 1.722.165 1.213-.245 1.074.972 2.235.514.426-.167-.493-.916-.021-.926 1.167-.023 2.32 1.198 3.874 1.213.375.004.449-.58 1.113-.609.664-.028 3.51.47 2.124-.644 1.77.845 2.066.29 4.03.176.496-.027 1.21.84 2.248.48.35-.121.269-.999.808-1.044 1.232-.105 2.466.719 4.03.642 2.936-.141 5.99-.986 9.065-.973.834.004.695.879 1.901.81.177-.012 1.57-.854 2.407-.84.504.008 3.148.347 3.674.353.871.006.963-.823 1.45-.695 1.406.37.396 1.644 1.921-.11.614.874 1.573.717 1.966 1.813.471-1.263 1.288-.138 2.345-.622 1.058-.484 1.775-2.89 2.226-.38.488-.343 2.622-1.007 2.984-1.068 1.071-.178.545.554 1.351.407.142-.025-.042-.49.879-.502.598-.007 5.036-.26 5.301-.21 3.06.542-1.607.567-2.224 1.12-.125-.127-.249-.253-.381-.378-1.349-.136-.513.88.108 1.087.622.205 1.716-.342 2.241-.028.262.159.198 1.438-.568 1.337.835.335-.238.825.108 1.17.382.38 4.007.241 3.983-.454-.683.023-1.52.106-2.207.126-.982-1.157 1.448-5.467 4.07-3.97 1.895 1.072-1.025 2.201 3.189.936-.661-.006-1.226-.083-1.828-.095-.126-.896.914.032 1.394-.285.231-.154-1.294-.7-.022-.989 1.19 1.215 1.966-.128 3.825-.251-.502.257-1.005.515-1.507.774 3.207.728-4.076 1.496 2.072 1.624-.732.088-1.465.124-2.2.235.39.445-.091 1.859.25 2.128.892.704 2.104.157 3.13.154.45-.003.197.385.234.385.615-.002.444-.533.979-.604.669-.088 2.671.301 2.982.22.812-.207-.625-1.174-.551-1.259.491-.547 1.588-.19 1.489-.856-2.553.627-9.995.506-3.369-1.036-1.916-.975-1.494-2.518 1.173-2.783 2.201-.221.816.457 2.006 1.049.156.074 3.118.217 3.242-.252-.051 1.07.971 1.951.395 3.086-.086.167-1.297.18-.82 1.036.238.43.905 1.353.843 1.923.225-.41.457-.867.684-1.292 1.808-.233 2.09.172 3.124.83-.063-.299-1.056-1.512.355-1.215.073.019.163.471.881.651 1.447.36 1.76.477.745 1.887 2.912-.962 3.637.475 6.63-.16-.702-1.653-1.734-1.17-4.49-.656-.145-.398-.226-.797-.375-1.2 3.75.683 1.918.702 3.958-.249.494-.232 3.249-.187 2.269-1.266-.23-.255-1.932-.124-1.761-.558.033-.083 2.091-.407 2.279-.308 2.36 1.208-1.662 2.38 4.587 1.52.173-.025.207-.514.543-.601.631-.163.669.398 1.231.236.562-.164 1.31-.959 2.2-.312 1.626 1.171-2.009 2.117-3.694 1.545-.567 1.705 11.145 1.008 11.858.837 3.148-.787-2.12-.134-2.409-.57-.122-.183-.188-2.615-1.444-.964-.371.49 1.311 1.01.339 1.326-.972.316-.619-.424-.693-.47-.254-.157-1.291.171-1.433.077-2.177-1.428-2.111-3.78.853-.482 1.171-.846-1.674-1.937-.195-2.547 1.799-.736 3.185.305 3.416.341 2.779.448-.476-1 2.921-.653 1.889.19-2.754 1.206 1.521.886 3.568-.266 1.612-.722 1.814-1.993.047-.297 1.987-.742-.672-.497-.06.331-.182.77-.337 1.08-.665-.208-1.837-1.806-2.189-1.85-1.719-.201-1.599.657-2.651-.313.769 1.078-.426.46-.852.716-1.58.94.57 1.166-3.138.221.503.503.96.996 1.447 1.495l-1.311.12c-.712-1.122-3.04-.863-.987-2.131-2.553-.213-3.556.088-4.064 1.026-.096.179-.472.267-.919.307.099.252.25 1.038.185 1.138-.583.89-1.644-.535-1.341-1.117-.315-.011-.565-.03-.654-.039-.56-.059.501-.626.041-.778-.154-.05-1.701.14-1.744-.066-.265-1.328 2.362-.489-2.843-1.013-.054 1.23 2.327.838 1.785 2.165-.58 1.43-2.035-.368-2.231 1.364-.126-.276-.188-.509-.301-.825-2.048.867-2.15-.565-2.807-.848-1.269-.555-6.967-.141-1.774.822-.74.168-1.5.27-2.238.424-.329-2.59.187-1.581-3.413-1.78-.794-.044-1.124-1.185-1.812.23.02-1.352-2.267-.408-2.491-.56-1.468-.996 3.635-2.745 4.446-.407.818-.97.89.25 1.855.035 1.39-.308 1.583-.552 3.313.25 1.576-1.34-6.5-.218-1.681-2.142 4.814-1.985 33.488-3.906 40.195-4.213 2.648-.15 5.052-.282 7.251-.393 7.903-.396 13.681-.594 22.21-.557 1.088-.003 9.214-.08 7.545 1.136-.245.172-3.736.646-.72 1.6-.621-.566 1.145-.937 1.291-.995 3.376-1.341 1.393-1.678 6.753-1.649zm15.828 10.487c-6.939-.207-1.839.524-3.281 2.289.894-.01 1.781-.017 2.667-.024l-.696-.318h-.003c.437-.651.877-1.3 1.313-1.947zm112.826 5.715c-.286.125-.573.25-.891.368-.87-.155-1.801-.315-2.674-.465.122-.096.239-.194.36-.29 1.062.13 2.117.262 3.205.387zm-201.303-3.576c-1.334-.707-1.138.69-2.892.158.27 1.027.561 2.028.841 3.04 1.297-.244 1.564-.657 3.003-.5-.184-.32-.373-.643-.553-.967-.235.087-.479.185-.704.263-.418-.908 1.847-1.19.31-1.997l-.005.003zm-13.232 1.287c-.701-.09-3.491-.425-3.842.046-1.178 1.596 6.534.085.89 1.83.039.21.026.418.039.627 1.05-.005 2.094-.018 3.147-.037-.107-.822-.12-1.64-.234-2.466zm76.66-2.95c-1.056-.075-6.171.666-4.485 1.421.498.218 2.759-.994 3.62-.965.559.017-.055.657 1.041.398-.053-.273-.088-.576-.179-.852l.003-.002zm1.96-3.653c-1.116.126-2.233.285-3.344.423.825.696 2.411.212 2.526 1.206-.305.081-.611.162-.911.244-.235-.213-.467-.427-.7-.641-.945.561-.36.82-2.145.702 1.109 1.496 1.302 2.289 4.34.698-.568.83.019 3.469 1.681 1.532.312-.358-1.012-.562-1.029-.617-.213-.693.515-1.152.288-1.805-.102-.295-.912-.276-1.039-.688-.059-.2.703-.788.333-1.054zm2.258 3.484c-.335.429.841 1.396 1.851 1.17 1.589-.348-.93-1.235-1.851-1.17zm133.663 5.409h-.006a.04.04 0 00.003-.002l.003.002zm-210.916-1.953c-.794.482-2.014.506-1.883 1.18-.408-.105-.82-.208-1.224-.314.016.205.036.41.052.613 1.203.04 2.414.082 3.619.125-.183-.534-.355-1.071-.564-1.604zm-13.097.44c-1.515.039-.187.895-.489 1.378-.3.483-1.671.213-1.469.86l2.719-.135c-.283-.695-.496-1.41-.764-2.103h.003zm139.438-3.586c-1.019-.158-.585-.673-2.632-.087h.005c1.934.446 4.376.841 6.521.466-1.278-.556-2.31-.133-3.894-.38zm-113.04 3.321c.403-.569-1.633-.896-2.051-.361-.674.867 1.439 1.227 2.051.361zm154.561-5.38c1.62-1.013-1.263-2.432-4.41-2.07-.271.033 1.728.501 1.12.686-.058.018-1.174-.07-1.448.073-.276.142-.012.52-.459.65-.78.229-2.54-.356-3.141-.031-.086.044 1 .587 1.067.608 1.119.348 2.218-.237 2.39-.232.892.023.74.514.96.642.42.24 1.181.057 1.233.077 1.332.5-1.763.224-2.196.385-1.142.434-.111.929-2.839 1.093-.274.014-3.32-.132.52.58-7.632.9 3.759.796 5.03.608.571-.094-.26-.6.094-.797.791-.45 2.18-.468 2.088-1.152-.19-1.438-2.009-.596-3.214-.896.144-.307.209-.609.462-.902-.385.392 2.615.754 2.743.68v-.002zm-19.331.846c-1.675-.515-1.589.451-3.14-.149-1.421.828 1.322.849 1.629.907 1.428.26 1.36 1.193 2.859.948-.488-.565-.884-1.136-1.348-1.706zm14.827.954c-1.171.413.888.492.966.584.844.97-5.234.544-.966-.584zm-97.01-2.119c-.58-.027-.2.547-.707.732-.507.188-2.276-.267-2.224.097.056.367 3.291 1.216.067 1.52.115.202.081.356.138.54.889-.023 1.782-.043 2.664-.064-.496-.573-1.007-1.177-1.487-1.734.488-.482.78.112.806.11v-.001c.925-.074 2.044-1.139.743-1.2zm45.691 1.279c.188-1.294-1.196.145-1.763.307-.567.16-1.337-.324-1.052.237.913.386 2.795-.402 2.815-.546v.002zm27.228-.387c-1.437.253-1.216.573-2.973.174.06.293.12.592.18.88 1.402.036 1.331-.808 2.923-.431.26.062-.32.718.865.53-.331-.364-.666-.769-.995-1.153zm-7.131.927c1.657-.018 3.033-2.362-.045-1.358-.449.15-1.183 1.371.045 1.358zm-50.62-2.165c-2.804-.043.388.36 1.114.77-6.513.436.745-.124 1.387 1.261.792-.411 2.285-1.333.62-1.556-.696-.093-.438.32-.48.318-1.263-.086-1.115-.77-2.641-.793zm69.991 1.558c-.105.013.043.407-.293.474-.336.066-1.085-.233-1.17.004-.083.24 1.43.474 1.897.315.468-.16.517-.909-.434-.793zm-10.698-1.33c-1.414.25.838 1.795 1.141 1.794 2.672-.005-1.227-1.323-1.141-1.793zM249.439 6.05c-3.371.88-.881 2.403 1.217 3.286.275-.186.566-.372.842-.556-1.266 1.125-3.486 2.256 1.462 1.233-2.713-.238-.442-.558-.425-.62.289-2.045-3.717-1.075-3.093-3.343h-.003zm68.027 5.116c1.497.048 5.288-.083 3.548-.886-1.168.29-2.347.586-3.548.886zM194.13 7.288c-1.222-.54-2.329-.49-3.811-.392 1.375.808.501.94.06 1.171-.668.347.985.25.992.308.006.818-1.039.991 1.354.866-.579.31-1.151.622-1.73.933 1.828-.048 2.279.464 3.459 1.056-1.184-1.528.32-.609 1.639-1.452.657-.42-1.345-2.211-1.967-2.49h.004zm51.809-1.511c-.351.252-.661.593-.993.883-.364.03-.73.055-1.095.085-.047-.223-.087-.456-.142-.67-.483-.064-.292.247-.435.277v-.004c-2.053.425-2.912.39-4.521-.296l.027 2.08 1.082-.208c.188-.374.373-.748.563-1.12l1.268.6c.336-.137.739-.28 1.028-.411 1.693 1.902-2.125.636-2.155 1.438-.012.514 3.819.44 4.358.086.078-.052-.755-1.466.642-.737.219.116.324 3.175 1.819.684.214-.352-.552-2.245-1.446-2.687zm-13.928-.924c2.194 2.005-5.809-.046-2.347 1.588-.958.954-.78.942.224 1.756.088.073-.591.345-.531.377.933.44 2.043.174 2.065 1.006.248-.05.482-.094.73-.144-1.051-.762.59-1.321 1.214-1.988.285-.302-.383-.385-.143-.65.089-.096 1.021.082 1.055-.19.069-.618-.527-1.445-1.528-1.892v-.002c-.249.043-.49.094-.739.139zm46.063 1.8c.35 1.002 1.814 1.303-1.013 1.75.137.199.278.395.415.593.476-.012.936-.023 1.417-.033 1.47-2.895 4.101.44 2.427-1.651-.181-.228-1.323 0-.19-.586l-.005-.001c-1.58.153-1.753.503-3.051-.072zm-10.423.557c-3.602 2.13 4.927 1.232 3.517.66-.137-.054-3.797.378-3.517-.66zm28.833-1.16c-1.604-.09-1.747.982-1.593 1.374.154.393 1.278.034 1.419.1.461.215-.532.318.066.61.192.096 2.985.558 3.117.516.721-.231-.295-1.138-.088-1.232.677-.306 1.561.18 1.766-.277.445-.972-1.262.003-1.549.012-.861.017-.77-.54-1.415-.675-.647-.135-1.056.043-1.621-.016-.188-.02-.021-.405-.102-.411zm-5.377 2.118c1.709-.776-2.395-1.786-2.864-1.606-1.434.543 2.041 1.981 2.864 1.606zm-53.655-.332c1.531-.708-2.071-1.227-3.087-.934.184.288 2.566 1.179 3.087.934zm12.919-1.783c-1.401.21.458 1.712 1.651 1.682.69-.985.039-.789-.737-.828-.773-.04.183-1.015-.914-.854zm63.518 1.642c-.282-.03-5.243.45-2.418.852.218.029 3.644.053 3.919-.06.536-.23-.704-.718-1.501-.792zm-56.732-3.06c-.753.834-1.496.822-.802 1.812h.003c-1.891.3-1.972-1.732-2.381-1.692-1.428.146-.071 1.601-.966 2.076 2.081-.446 1.483.53 3.058.591.359.013 1.786-.563 1.994-.92.208-.359-.518-1.44-.906-1.866zm63.679 3.22c-1.627-.354-3.208.713-.916 1 1.109.14 1.908-.785.916-1zm-165.774.797c.281.439.569.874.868 1.306-.603.146-1.207.294-1.812.443.474-.173.949-.343 1.427-.513-1.156-.089-1.734-.885-.486-1.236h.003zm-40.842 2.23c-.551-.438-1.445 1.1-1.309 1.206 1.024.783 2.072-.6 1.309-1.206zm120.901-6.435c-1.906-.145-.58 1.683.606 1.793-.726-.343.488-1.711-.606-1.793zM128.58 10.03c.185.188.372.375.578.562-.623-.237-.741-.417-.578-.562zm184.59-3.67c-.28-.126-2.437-.325-2.741-.198-.623.27 1.048 1.164 2.041.958.11-.023.983-.632.695-.76h.005zM152.423 7.956a.122.122 0 01-.001.06l.001-.06zm-81.279 2.889c.016.039.025.078.027.116-.008-.037-.02-.076-.027-.116zm226.842-6.45c-.669-1.5-2.342-.789-1.06-.004.073.04.885-.006 1.06.004z" fill="#DA001A"/></svg>