<svg width="166" height="19" viewBox="0 0 166 19" fill="none" xmlns="http://www.w3.org/2000/svg"><path d="M101.936.881c6.753.108 14.175.254 20.941.8.837.066.771.35 1.004.4.632.137 1.024-.177 1.492-.125 2.257.247 4.368.425 6.58.675 2.267.258 1.167 1.014 1.946 1.265 1.521.488.256-.666.878-.865 1.769.189 3.553.435 5.323.685a76.46 76.46 0 01-1.321.18c.788.08 1.867.317.567.494.284.094.539.199.831.291.111-.367 1.465-.295 1.613-.502.139-.208-.641-.22-.631-.238.07-.27 3.2.36 3.431.408.418.092.262.32.318.449.012 0 .048.003.059.005.023.053.082.092.234.1.892.048.374-.908 1.459.41.515-.33.514-.127 1.126-.031.079.012.039-.215.075-.216.92-.057.185.269.188.292.042.384 1.034.328 1.233.388 2.522.744 4.373 1.245 7.053 1.712.582.097 2.382.23 2.945.393.541.154.211.344.477.51.567-.489 1.048-.472 2.013.165.504-.293.367-.005 1.155.193l.033.01c.005.001.019.006.023.009.638.181 1.816.26 2.235.934-.69-.393-.704-.182-1.569-.465-.082-.026-.364-.153-.739-.298a.231.231 0 00-.017-.006c-1.009-.359-2.566-.539-2.459-.204.075.24 1.112.258 1.141.315.16.288-.454.436-.914.238.127-.024.29-.04.429-.059-1.04-.531-.505.774-1.154-.392-.081-.143-.025-.267-.169-.429-.044.048.138.221-.044.213-.19-.009-.5-.328-.591-.119-.13.304.66.31.713.34l.003-.005c.486.26-.595.086-.644.111-.364.144-.168.33-.685.42-.298.05-1.005-.106-1.281-.111-.264-.003.118.203-.061.213-.175.01-.398-.137-.602-.124-.091.006-.11.179-.154.18-.476.009-.13-.314-.546-.343-.282-.02-1.235.215-.62.386-.301.002-.616-.007-.914-.01.183.072.373.129.556.21-.563-.146-.859.129-1.216.116-.354-.012-.644-.41-1.052-.27-.886.3 1.216.323 1.467.42.1.036-.334.28-.386.284-.26.01-.558-.224-.763-.234-.726-.034-1.207.199-1.913.195a305.48 305.48 0 01-6.564-.102l.097.007c-.362.002-.721.001-1.071-.001-.831-.003-1.335-.355-1.705-.358-.895-.007-1.005.286-1.786.28-1.139-.004-2.768-.308-3.708-.387-.673-.055-1.273.233-1.45.237-2.409.065-5.322.032-7.311.029-.929-.001-1.376-.363-1.563-.353-.827.042-.614.353-1.29.321-.368-.016-.421-.316-.471-.328-.423-.099-.519.294-.854.308-1.919.08-3.78-.168-5.672-.189-.139-.001-.124-.183-.214-.173-.388.048-.214.333-.613.36-.828.055-1.696.02-2.573-.001-.088-.003-.124-.241-.325-.238-.202.003-.357.233-.675.226-.813-.017-1.637-.277-2.503-.275-.144.001-.323.3-.54.302-.682.006-1.684-.24-2.266-.236-1.924.016-3.687.243-5.5.309-.423.014-.802-.261-1.023-.26-.5.002-.12.262-.627.282-4.116.161-8.269.224-12.426.482-.528.032-1.095.1-1.676.176-1.196.16-2.458.364-3.523.376-.659.006-.796-.408-1.263-.382-.829.048-.955.604-1.828.72-.7.094-1.519-.4-2.246-.315-.727.085-1.038.65-1.866.78-.683.106-1.661-.067-2.403.032-6.838.908-13.566 1.799-20.5 1.998-2.447.067-5.139.43-7.705.06-.241-.035.076-.68-.672-.48-.402.11-.931.694-1.873.816-5.583.732-11.652.165-17.334.986-8.516 1.148-16.91 7.428-24.982.616-.397-.339-.355-2.2-.18-2.741.234.355.459.78.707 1.182.072-2.317.076-1.714 1.084-1.597.62.074.05-.859.353-1.163.39-.395 2.277-1.671 2.023-.143l.29-.791c1.415-.342 2.777-.825 4.144-1.354.236-.092.209-.554.453-.646.656-.25 1.215.013 1.904-.085.374-.053.382-.584.878-.586.496-.001.545.707 1.152-.11-.512-.857 1.496-.35 2.187-.454.1-.014.861-.86 1.309-.798.45.06 1.161.514 1.82.184.309-.155.453-.774.795-.83.24-.04.577.478.887.48.31.001.938-.481 1.06-.496.437-.057-.017.35.285.348 1.46-.01 3.161.076 4.576-.265.173-.041-.106-.46-.083-.475 1.153-.606.56-.002.914.364.342.354 2.615 0 2.572-.742.145.926.597.184.727.149.505-.137.468.67.948.39.176-.1-.224-.619-.026-.615.49.01.996.849 1.65.893.157.01.178-.376.456-.38.279-.004 1.483.39.881-.382.758.601.873.238 1.696.205.208-.007.523.586.953.369.145-.074.095-.66.32-.677.516-.043 1.049.53 1.704.514 1.23-.032 2.499-.529 3.79-.455.35.02.307.599.812.579.075-.005.646-.536.997-.51.212.016 1.327.296 1.548.31.366.023.391-.527.598-.432.596.275.193 1.102.805-.034.271.593.672.509.854 1.245.177-.83.538-.066.975-.366.436-.301.699-1.888.928-.21.2-.217 1.084-.618 1.236-.651.446-.097.237.38.573.297.06-.014-.025-.326.361-.317.251.007 2.11-.076 2.221-.039 1.293.42-.665.348-.916.704-.054-.087-.108-.173-.165-.259-.569-.116-.202.576.062.725.264.15.714-.194.94.025.112.11.104.96-.218.878.355.24-.088.545.063.782.166.259 1.684.236 1.663-.228-.286.003-.636.043-.923.043-.43-.789.525-3.611 1.648-2.567.81.75-.398 1.447 1.352.682-.278-.016-.516-.077-.769-.097-.066-.598.384.039.581-.164.095-.098-.553-.489-.024-.658.517.83.823-.05 1.601-.098l-.62.488c1.355.543-1.688.922.892 1.118-.306.046-.613.056-.92.117.17.303-.01 1.236.136 1.42.385.486.884.144 1.315.16.188.006.088.26.103.26.258.01.179-.347.402-.384.28-.047 1.124.247 1.253.198.337-.123-.278-.792-.249-.847.199-.356.664-.1.613-.545-1.062.374-4.184.161-1.427-.748-.818-.683-.663-1.702.453-1.832.92-.109.348.319.856.733.066.052 1.31.199 1.357-.112-.007.711.433 1.316.207 2.061-.034.11-.541.098-.33.676.106.29.398.916.38 1.294.088-.268.18-.57.269-.848.754-.125.878.15 1.32.605-.03-.2-.463-1.024.133-.803.03.014.074.316.377.448.612.263.743.346.337 1.268 1.207-.592 1.53.376 2.774 0-.314-1.111-.74-.806-1.888-.508-.066-.268-.105-.534-.173-.805 1.58.515.813.498 1.655-.103.204-.147 1.359-.073.935-.808-.1-.173-.811-.112-.745-.398.013-.055.871-.239.951-.17 1.003.84-.667 1.56 1.94 1.08.072-.013.08-.338.22-.391.263-.1.285.275.519.175.233-.1.537-.62.918-.176.694.804-.817 1.382-1.53.975-.216 1.13 4.677.831 4.973.724 1.309-.482-.888-.117-1.014-.411-.053-.124-.107-1.745-.615-.663-.15.322.56.692.156.888-.403.198-.263-.29-.295-.322-.108-.108-.538.096-.598.031-.928-.981-.927-2.547.351-.309.48-.547-.723-1.313-.11-1.7.745-.465 1.337.247 1.434.275 1.168.335-.21-.673 1.217-.397.793.152-1.14.768.646.61 1.49-.132.667-.46.74-1.305.016-.197.824-.47-.287-.34-.022.22-.069.511-.13.716-.281-.147-.789-1.227-.937-1.26-.722-.157-.663.416-1.114-.244.334.729-.174.302-.35.466-.651.605.252.785-1.312.104.217.342.413.677.623 1.016l-.548.062c-.31-.757-1.284-.618-.437-1.433-1.073-.178-1.49.008-1.692.625-.038.118-.195.171-.381.191.044.17.117.695.09.761-.234.583-.695-.38-.575-.764a3.043 3.043 0 01-.274-.035c-.236-.048.202-.41.008-.518-.066-.035-.712.068-.732-.07-.127-.888.984-.29-1.205-.718-.007.819.986.594.775 1.47-.225.942-.857-.277-.918.873-.056-.186-.085-.342-.136-.554-.848.546-.909-.41-1.188-.609-.539-.389-2.923-.206-.733.52-.308.1-.625.155-.933.246-.171-1.73.058-1.05-1.454-1.242-.334-.042-.487-.807-.757.124-.01-.9-.957-.31-1.053-.415-.63-.689 1.488-1.766 1.86-.197.33-.632.377.181.779.054.579-.182.656-.342 1.392.22.644-.866-2.729-.25-.732-1.453C68.52 2.187 80.532 1.31 83.345 1.16c1.115-.072 2.128-.136 3.054-.19C89.705.78 92.127.691 95.7.762c.456.005 3.864-.012 3.168.791-.102.114-1.563.416-.297 1.064-.262-.38.477-.62.538-.658 1.412-.882.58-1.112 2.827-1.078zm6.634 7.007c-2.899-.137-.768.35-1.371 1.526l1.114-.016-.291-.212h-.001l.549-1.298zm47.109 2.21a7.63 7.63 0 01-.386.277c-.36-.071-.746-.144-1.11-.214l.159-.205c.441.049.881.1 1.337.143zm-84.08-1.466c-.567-.49-.468.443-1.21.062.126.688.26 1.359.39 2.038.54-.143.646-.414 1.25-.289-.08-.216-.163-.433-.243-.651-.097.054-.198.115-.291.164-.186-.61.759-.765.105-1.325l-.001.001zm-5.525.65c-.295-.072-1.468-.34-1.609-.034-.472 1.043 2.738.166.397 1.234.02.14.017.278.025.417.44.015.877.023 1.317.028-.055-.549-.072-1.093-.13-1.645zm32.033-1.124c-.442-.054-2.576.414-1.868.926.209.148 1.148-.649 1.508-.626.234.014-.02.438.436.27-.023-.182-.039-.384-.077-.569h.001zm.807-2.427c-.467.08-.933.18-1.397.268.347.468 1.009.152 1.06.814l-.38.16-.294-.431c-.394.37-.148.545-.895.458.47 1.002.553 1.533 1.816.485-.234.55.02 2.312.708 1.027.129-.237-.425-.378-.432-.415-.091-.463.212-.766.115-1.202-.044-.197-.382-.188-.437-.463-.025-.134.292-.523.136-.701zm.954 2.33c-.138.285.356.934.776.786.663-.226-.391-.826-.776-.785zm55.814 2.037h-.003.003zm-88.086-.533c-.326.309-.837.304-.773.755-.172-.076-.346-.152-.517-.229l.03.409 1.517.142c-.084-.358-.162-.719-.257-1.077zm-5.48.073c-.634 0-.065.593-.185.909-.12.316-.697.112-.603.546l1.136-.041c-.128-.468-.227-.947-.349-1.414h.001zm58.257-1.43c-.425-.099-.241-.444-1.1-.043a.23.23 0 00.002 0c.807.287 1.824.536 2.723.271-.532-.362-.964-.073-1.625-.228zM73.166 9.885c.162-.373-.694-.62-.862-.27-.272.567.616.838.862.27zm64.591-3.468c.691-.699-.5-1.6-1.825-1.317-.114.025.719.31.462.441-.024.013-.492-.03-.607.068-.117.099-.01.347-.199.44-.329.162-1.062-.205-1.315.02-.036.03.411.377.44.39.465.219.932-.186 1.004-.185.371.004.304.332.394.414.174.155.495.023.516.035.553.314-.742.173-.923.286-.483.305-.057.621-1.201.766-.113.012-1.386-.046.212.38-3.2.695 1.562.482 2.098.337.241-.07-.102-.396.048-.532.338-.311.917-.343.887-.797-.064-.955-.833-.369-1.336-.552.064-.206.095-.409.204-.607-.165.267 1.086.465 1.141.415v-.002zm-8.1.802c-.695-.326-.668.317-1.312-.067-.601.565.546.552.674.588.596.159.558.78 1.187.602-.199-.371-.36-.748-.549-1.123zm6.194.459c-.491.291.366.316.398.376.342.635-2.194.433-.398-.376zM95.303 6.634c-.242-.021-.081.364-.292.484-.211.122-.953-.19-.93.052.026.245 1.382.83.036 1.013.049.135.035.238.06.361l1.113-.027c-.21-.385-.426-.79-.63-1.164.202-.319.327.078.338.078V7.43c.386-.044.85-.748.305-.796zm19.098.907c.082-.863-.5.1-.737.21-.238.108-.558-.212-.44.161.379.255 1.169-.276 1.177-.372zm11.383-.416c-.602.18-.513.392-1.243.14.022.195.045.394.069.586.585.012.561-.55 1.225-.312.108.039-.139.481.358.346-.136-.24-.273-.507-.409-.76zm-2.987.673c.693-.024 1.282-1.596-.011-.905-.188.104-.501.923.011.905zm-21.153-1.333c-1.173-.036.163.241.467.516-2.721.273.312-.08.582.844.33-.272.953-.884.256-1.036-.291-.063-.182.212-.199.211-.528-.06-.468-.515-1.106-.535zm29.258.754c-.044.01.014.27-.127.319-.141.047-.452-.144-.49.015-.036.16.595.3.792.19.197-.113.224-.612-.175-.524zm-4.466-.78c-.592.178.337 1.188.465 1.185 1.117-.028-.504-.87-.465-1.185zm-22.087-1.951c-1.41.58-.365 1.601.513 2.192.114-.123.236-.247.351-.37-.528.749-1.455 1.5.612.824-1.134-.161-.185-.373-.178-.414.119-1.363-1.555-.721-1.297-2.232h-.001zm28.436 3.06c.626.015 2.212-.12 1.494-.634l-1.494.634zM81.2 4.948c-.518-.375-.981-.354-1.601-.306.584.554.219.632.036.78-.276.223.415.179.419.217.01.545-.426.648.575.593-.24.2-.476.401-.715.601.765-.01.958.337 1.458.745-.51-1.032.128-.402.672-.949.271-.272-.583-1.488-.846-1.681h.002zm21.683-.649c-.146.168-.275.395-.413.587l-.458.055c-.021-.15-.038-.305-.061-.448-.202-.043-.122.164-.182.184v-.003c-.858.278-1.217.253-1.893-.21l.017 1.386.453-.135.232-.745.532.404c.14-.09.308-.185.429-.271.713 1.272-.888.418-.898.952-.004.343 1.598.305 1.823.07.033-.035-.319-.98.267-.49.092.077.14 2.117.762.459.089-.235-.234-1.498-.61-1.795zm-5.833-.662c.926 1.347-2.433-.06-.977 1.047-.396.63-.322.624.101 1.172.037.049-.245.226-.22.248.391.298.855.126.867.68l.305-.092c-.443-.512.242-.878.5-1.32.119-.2-.161-.257-.062-.433.037-.064.428.059.441-.123.027-.411-.225-.964-.646-1.268-.104.027-.205.06-.31.089zm19.282 1.216c.144.666.755.861-.429 1.17.056.132.115.263.171.394.2-.01.392-.02.593-.028.625-1.936 1.713.274 1.021-1.111-.075-.151-.554.006-.078-.39h-.001c-.661.109-.736.343-1.277-.035zm-4.363.402c-1.51 1.428 2.059.81 1.47.433-.056-.036-1.589.26-1.47-.433zm12.073-.91c-.672-.05-.737.666-.675.926.062.261.535.014.593.056.192.14-.224.216.024.407.08.062 1.245.348 1.301.319.304-.16-.116-.757-.029-.82.286-.21.653.106.742-.2.193-.651-.529.013-.649.02-.361.02-.319-.352-.588-.437-.269-.085-.443.037-.679.002-.078-.012-.006-.27-.04-.274zm-2.263 1.449c.719-.529-.993-1.175-1.19-1.053-.603.37.844 1.308 1.19 1.053zm-22.442-.146c.639-.466-.87-.826-1.294-.635.078.193 1.077.796 1.294.635zm5.402-1.157c-.586.138.193 1.142.692 1.123.288-.656.016-.525-.309-.553-.323-.027.075-.676-.383-.57zm26.581.786c-.118-.017-2.201.355-1.021.594.092.017 1.525-.005 1.642-.083.227-.16-.289-.47-.621-.51zM107.579 3.55c-.315.556-.626.547-.336 1.208h.002c-.791.2-.826-1.155-.998-1.129-.597.096-.028 1.068-.402 1.384.87-.296.621.354 1.279.395.15.009.747-.375.834-.614.087-.239-.217-.96-.379-1.244zm26.65 1.752c-.679-.216-1.352.513-.394.677.463.08.806-.547.394-.677zm-69.39-.005c.124.297.25.591.382.884-.251.087-.503.175-.754.264.196-.107.393-.212.591-.317-.486-.079-.739-.619-.22-.831h.001zm-17.103.725c-.239-.303-.589.702-.53.776.443.542.86-.358.53-.776zM98.351 3.38c-.799-.105-.237 1.119.26 1.197-.306-.231.198-1.138-.26-1.197zM53.749 5.738c.081.128.162.257.252.385-.265-.17-.318-.291-.252-.385zm77.281-1.342c-.116-.081-1.019-.19-1.148-.103-.263.186.43.765.848.616.047-.016.418-.432.298-.513h.002zm-67.307.392a.135.135 0 010 .04v-.04zm-34.078.285a.383.383 0 01.013.078c-.003-.025-.01-.05-.013-.078zm95.036-1.844c-.27-.995-.977-.508-.444.005.03.027.372-.01.444-.005z" fill="#DA001A"/></svg>