<svg width="898" height="503" viewBox="0 0 898 503" fill="none" xmlns="http://www.w3.org/2000/svg"><path fill-rule="evenodd" clip-rule="evenodd" d="M642.163 486.579l-.902-.182-.927-1.413c-.227-2.631 1.784-8.323-.89-10.143.591-.941.851-2.657.795-3.738-.576-.669-2.052-3.588-2.473-3.81l-1.277.089-2.644-.023c-.897.031-1.764.518-2.62.551-.796.033-1.742-.299-2.521-.215-1.383.151-4.608 1.709-5.035 1.684l-1.578-1.567-2.098.304-1.054-.443c-.438-.579-1.025-1.486-1.18-2.214-.668.03-1.81-.543-2.343-.891l-.627-1.004-2.526-.37c-1.051.291-2.368 1.449-3.041 2.258-.671-.047-1.644-1.519-1.895-2.031.528-1.006.762-3.194.841-4.295-.979-3.602-2.373-4.152-5.417-5.425l-1.848 1.465c-.566.101-2.674-.072-3.146-.487-.556-.489-1.34-1.363-1.96-1.722-.309-.178-1.999-.545-2.229-.703-1.332-.9-2.699-3.217-4.377-3.477l-2.268 2.456-3.238.713c-1.19.262-3.21-1.574-5.785-.143-.922 2.349-2.172 4.978-3.652 7.035-.396.554-1.069.979-1.486 1.524-.506.662-.821 1.554-1.35 2.193-.616.744-1.96 1.524-2.748 2.137-.101.077-.826.357-.988.425-1.122-.537-1.75-1.545-2.512-2.486l-.867-.18-1.983 2.28c-.074.01-.489.091-.537.071-.993-.377-5.438-2.135-6.343-2.125-1.196.013-2.601.686-3.816.8-1.55.148-4.059-.482-5.769-.533-.315-.01-.505.047-.814-.025-1.063-.246-1.983-1.243-3.189-1.153-2.901.216-6.235.771-9.14.379-2.093-.28-7.714-2.566-9.442-3.61-1.04-.631-4.438-3.686-5.129-4.888v.95c-.875-.083-1.775-1.679-2.399-2.221-1.375-1.195-2.96-2.277-4.41-3.392l.005-1.142 1.07-1.513c-.798-.858-1.2-1.031-2.251-1.52l-.614 1.94-1.716-1.039.354-2.06-.668-.176-.553-.701-2.36.757-.431-1.338-2.086-.673-1.292-1.545c-.824.257-3.747-.694-3.831-1.74l1.141-.999-.188-.715-1.096-.821-1.66.349c-.879-.487-5.939-.614-6.608-.675-.601 1.533-1.932 3.332-3.257 4.313-1.563-.22-4.872-.716-6.274-1.49l-2.792.573c-.303-.732-4.069-4.572-5.055-5.411l-2.535-.397-1.511-1.966c-1.66-.266-3.651-.135-5.29.19-3.173-2.18-4.915-2.504-8.719-3.83-1.221-1.015-.996-3.282-1.881-4.703l-3.324-1.171-.485-1.338-1.327 1.034-.548-.066-.867-.828c-2.407.443-4.503-.627-5.935-2.529l-1.487-.309-2.862-3.122c-1.688-.331-3.552-.444-5.268-.385l-.84 1.231-1.413-.576-1.335.349-.666-.215c-.174-1.113-1.255-2.839-2.341-3.285l-.423 1.232.735 2.003-1.107 2.341-.63.25-.206.568.166.934-1.287.767c-2.718-.565-5.385-1.722-7.684.535-.52.512-.642 1.286-1.43 1.574-1.125-.002-2.063-1.18-2.832-1.878l.032-2.236c-.535-.54-.894-1.745-.914-2.479l-1.731-.652 1.106-.746c.219-.527.142-1.488-.141-1.981-1.536-.945-3.237-.767-4.945-.79l-.767-.584-.926.034-1.455.977c-.753-.272-2.456-.488-3.259-.182-.341-.684-.389-1.903-.206-2.63l-.711-.672c-1.813.505-3.273.502-4.714-.8-1.178.836-2.06 1.1-3.416 1.17.138 1.945-.01 4.014-2.05 4.617-.369.309-1.068 1.32-1.042 1.85.051.994.196 2.093.158 3.08-.071 1.852-.6 2.514.354 4.612l-.913 1.129c.975 1.506 2.427 4.638 2.307 6.521-.214.357-.662 1.437-.446 1.867l-.744.879-.158 2.634-.971.026c-.451.45-.182 3.206-.164 3.869l1.16 1.544-1.338 1.22c-.291 1.869-1.379 3.826-2.1 5.573l.313 1.315c-.655 1.536-.505 1.011-.515 2.916.443.943 2.585 1.157 3.423 1.475.074.03 1.01.845 1.135.95l.257 1.352-.357.739.141.382-2.496 1.318a127.692 127.692 0 01-4-.401c-.27-.224-1.167-1.026-1.302-1.1-.961-.52-4.903-1.363-5.981-1.208l-.194-1.166c-1.392-1.105-3.113.613-4.298.216l-1.259-1.098-1.101.38-1.406-.565-1.929 1.204.072.602-.393.641.665 1.032.008.779c-1.313 2.23-1.843 2.784-.518 5.518-2.977.774-3.15 5.367-6.593 4.811l-.328.462c-2.152.573-3.223 2.302-4.048 4.271l.145 1.202c-1.198 1.453-1.436 4.015-1.828 5.832l.637.479.266.896c-.446.927.018 1.818-.112 2.728-.111.779-.487 1.679-.498 2.456-.007.608.364 1.513.505 2.109-.485 1.021-1.078 2.023-1.611 3.021l.054.741-.72.739c-1.448-.385-3.666.084-5.108.232-.515-1.511-.999-3.939-2.144-5.164l-.684-.026c-.803.704-1.338.832-2.304.982l-1.211-4.104-1.334-.779c-1.35 2.055-5.432 3.326-5.919 4.763-1.068-.563-1.7-1.286-2.565-2.145l-2.069.054-.867-.871-.762-.171c-.404.165-.977.321-1.342.547l-1.096-1.304-.023-1.098-.571-.652-1.067-.343-1.755-2.467c-1.132.184-3.14-.015-3.535 1.369l1.509 2.21c.135.968-1.495 4.623-1.943 5.411-.257.453-2.1 1.987-2.629 2.33-1.325-.852-2.587-.583-4.186-.662l-.682.839c-.22.615.872 2.471 1.2 2.956-.296.754-1.42 1.654-2.128 1.97l-.587-1.381-.579-.155c-1.471.275-3.244 4.7-4.938 6.157l-1.253.145-.816-3.143c-.6-.061-1.987-.316-2.384-.841-.517-.681-1.035-1.498-1.611-2.125-.721-.782-1.558-1.202-2.201-2.187-.868-.228-2.36.114-3.048.692-.788.183-1.672-1.103-2.282-1.414-.161-.081-1.145-.153-1.395-.232-1.605-.509-3.053-1.408-4.805-1.354-.816.781-2.748-.026-3.594-.34-.433-.165-2.353.082-3.391-.272l-2.297 1.413-1.966-.425-.032-1.551-3.804.077-.24-1.756-.871.505-.765-.122-1.514-1.832.869-1.834-.125-.558-.584-.563-.956.408-.856-.176c-.452-.443-2.076-1.747-2.012-2.343l1.843-2.418c.689-.535 2.294-.407 3.036-.11l.967-.955c.298-.858.004-3.033-.839-3.551l-2.034-.292c-.566-.354-3.119-3.73-3.389-4.163-.05-.083-.285-1.194-.323-1.354-.668-.671-2.975-1.333-3.636-.816-.979-.148-2.131-.522-3.087-.8l-.476-1.232-2.009-.563c-.07-.146-.421-.923-.497-1.006-2.843-3.121-7.003-9.053-11.964-8.636-2.488.155-3.83.247-4.989-2.071.775-.692 1.292-2.547 1.351-3.525-1.961-1.827-1.52-2.483-2.262-4.135-.273-.605-1.012-1.253-1.386-1.869-1.632-.155-1.221.043-2.414-.726l-2.402-5.11.316-1.386c-.453-.743-1.555-2.382-2.353-2.822l-.423-1.365-1.678 1.67c-.719.174-1.817-.331-2.524-.559-.432.565-2.61.741-3.247.751l-.512-.415c-.003-.683-.299-2.263-.941-2.688l-1.018.043c-.7-.341-2.816-7.201-4.718-9.014l1.004-1.368c-.908-.211-2.445.084-3.192.65-.769-.658-1.129-1.322-1.639-2.191l.179-.937c-.424-.839-.691-1.029-1.453-1.684l-.824-.077-.653.579c-2.738-1.154-1.141.601-3.283.111l-1.726-1.255c-.767.384-2.409.967-3.301.795l-.497 1.413.563 2.833-.913.922-1.369-.125-1.838-2.038-.693-.017c-.538-.207-1.185-1.052-1.423-1.541-.787-.263-3.086-1.241-3.495-2.048l-1.267-.294-.627-1.199-.772-.115-1.619-1.47.438-4.29-.805-1.26c.548-.662.053-3.334-.137-4.071l-.916-1.08.105-.675.869-.884-.104-.418-1.183-.652-1.889-.58c-.128-1.315-3.054-4.514-4.097-4.649l-.502-1.641-7.825-6.432c-1.253-.466-5.182 1.578-7.334.866-.598-.198-1.331-.693-2.167-1.25a30.334 30.334 0 00-4.784-3.775l-.371-1.034c.487-1.213.875-2.906.743-4.224l-.579-.779c-1.807.132-3.362-2.815-4.525-3.76-.801-.65-2.047-1.22-2.949-1.755-.743-.973-.564-2.361-.571-3.513-.207-.748-2.297-1.671-2.935-1.889l-.339-.894.309-1.437c-.243-.461-.627-1.063-1.033-1.406l-2.193-.372c-.637-.341-1.062-1.924-1.123-2.556l-.812-.751-2.345-.242-.711-.878c-.882-2.26 1.509-3.659-.066-6.754l-2.193-.366c-3.383-2.647-4.825-7.568-9.689-7.703l-2.777-.079-.727-.695-3.602-.752-.321 1.022.61 1.442-.887 1.816c-.36-1.15-2.132-1.723-3.2-1.626l-1.022-1.084c-2.374.345-6.197.54-8.515-.324l-.45-.675.211-2.031c-.33-.875-1.982-2.271-2.69-2.816-.099-2.085-.138-3.162-.739-5.068-.89-.891-3.207-2.689-4.56-2.779l-1.614-2.365c-1.889.119-5.048-.543-6.548-1.794l-1.029-6.187-2.596-2.983 1.629-1.147c.727-2.205-1.41-3.845-.203-7.218l-1.17-1.64c-1.828.07-4.928-.409-6.07-2.115l.397-.877c-.685-.47-2.17-2.692-2.31-3.37-.61-2.962.641-4.38.297-5.766l-1.678-1.727c.219-1.335-.199-2.334-.697-3.515l.208-.849-1.031-.537-1.777.637-1.1-1.447-.784-.105-.264-.749c.295-.445.808-1.643.547-2.193l-.874-.161-.357-.801 1.346-1.193-.171-1.818.595-1.048c.028-.665-.786-1.768-1.225-2.188l-.12-1.973c-1.587.47-3.041.4-4.45-.472l-.691-1.325c-1.624-.165-2.75-1.288-4.379-1.339-1.151-.616-2.571-4.306-2.935-5.456l-1.37-.424c-.461-.708-1.15-1.546-1.505-2.299-.322-.684-.436-3.356.346-3.806l8.143-4.672.217-.397-.61-4.693.854-1.306c-.044-1.528-.33-3.187.505-4.56.65-.01 2.172.186 2.664.701l.379-3.572 1.648-.652c1.035-1.41 1.066-2.99 1.585-4.572.508-1.546 3.858-2.063 3.621-5.285-.05-.688-.33-1.542-.478-2.227-.014-.064-.525-.682-.596-.772-2.13-.348-4.604-.84-6.57-1.778l-.377-.619-.773.258-.95-.436-.793-1.834c-.016-.619.328-1.75.874-2.125l1.392-.348c.548-.762.69-2.491.6-3.373l-.755-1.149-1.167-.139c-.72-.479-1.487-1.715-1.578-2.579l-3.958 1.845-.861-.971.833-1.034-.017-1.004-.804-.515-.906.161c-1.308-.298-2.841-1.309-3.776-2.241l-1.048.155-.405-.807-1.031-.077-.517-1.177-1.601-.618c-.323-.819-1.051-1.825-1.794-2.319l-.93-.16-.766.762c-.826-1.055-1.611-1.995-1.567-3.44-1.543-.917-5.484-.782-7.79-1.569l1.577-2.712-.495-.943-1.221-.636c-.83-1.368-.81-1.508-2.03-2.423l-1.796.049-.166-1.513-1.874-.133-.935-.751c-.722-1.672-1.778-5.105-1.402-6.985 1.077-.777 2.263-2.532 2.562-3.828l-.225-.788-.72-.458c-.473-3.748-2.035-5.568-4.337-8.151l-.523.01-.533.828-1.492-3.98c-2.156-.929-3.359-1.499-5.583-1.8l-1.3-2.188-.723.176-.99-.663 1.328-1.319-.505-.856.42-.518 1.263-.46.456.216.813-.127c.454-.879 1.653-1.844 2.45-2.374l-.338-1.121c-.81-.515-1.825-1.776-2.022-2.739l.788-1.629-2.009-2.237 2.08.056c2.636-2.071 5.284-.051 6.825-1.348l1.03.166.124 2.563 1.528.563-.253 2.717.619 1.182-.097 1.911.664 1.138c2.027.709 4.404.342 6.511.281l1.302 3.331-.509.464c-.552.082-1.433-.305-1.791-.718l-1.03 1.11c.916.892 2.012 2.226 3.035 2.955 1.218.866 2.85.714 3.749 2.229a6.884 6.884 0 01-1.284 1.911l.961 1.619-1.408 1.722c.13.64.767 1.669 1.408 1.921l.525 1.773 3.753.91c.743-1.557 1.44-3.104 2.021-4.733l-1.441-1.47-.086-.741a46.62 46.62 0 001.48-2.054l-.888-3.099 1.085-1.147c.686-.183 1.9.089 2.524.364l.388-1.38-.916-2.761c.07-.584.526-1.679 1.1-1.965l-.046-1.194c.216-.617 1.022-1.342 1.593-1.613l.4-.884c.536-.404 1.606-.718 2.276-.608l.948-.614c.646-2.094-.165-2.809-.11-3.378l.246-2.535c1.665.028 2.544-.766 4.39-.41l.68-.768-.109-1.6c.907-1.029 2.626-2.061 3.814-2.683l1.962.375.784-.304c.662-.646-.46-3.68.218-5.048 1.203-.466 2.224-1.854 2.108-3.169l3.402-1.612 1.447.338.65-.409 1.298.376c1.08-.354 2.65-1.051 3.477-1.879l2.185.53 2.16-2.026 1.664-.01.836.795c1.99.362 3.383.3 4.844-1.175 1.122 1.116 2.822 3.162 4.196 3.743l.732-.811-.271-1.255 3.412-3.76c2.55-2.82 4.975-2.336 7.673-4.356l.568.049 1.012 2.083c.684-.708 2.384-2.912 2.242-4.014 2.467.754 9.083 5.476 10.844 7.02l1.269.143 3.597 2.894c.697-1.234 4.085-1.68 5.351-1.988.057-.015 1.331-1.116 1.433-1.204l.493-1.745 3.543-2.535.615-1.59-.77-3.12c.278-.822.662-1.592 1.024-2.379l-.199-1.52c.975-1.764.969-2.889 1.184-4.787l1.804.607 1.366 1.75c3.736.876 6.724-.89 9.165-3.485 1.956.677 1.281.158 1.936 2.303 2.311-.854 4.604.825 6.992.038l.441-.647-.331-1.076c1.285-1.061 2.786-4.049 3.648-5.489l-.122-.741c.27-.336.514-.705.718-1.082l-.728-2.248c.377-.313 2.39-1.793 2.376-2.22l-.345-.894 2.285-3.049 2.653.176.401.31 1.126 2.789 1.038.089.861-.519c.637.058 2.075.035 2.652-.32l.551-.824c-.441-1.162-.533-3.17.251-4.223l1.112-.133.717-1.032c.849.102 2.661-.88 3.321-1.314.217-.693.962-1.63 1.614-1.96-.612-.735-.48-3.6-.512-4.7l.466.766c.563.924 1.673 1.503 2.447 2.256 1.257 1.216 1.375 2.268 1.877 2.87.477.574 1.366 1.178 1.945 1.675.038.035.242.5.28.575l1.966.353c.579.745 1.845 1.444 2.695 1.784.677-.996 1.381-2.294 2.167-3.188 1.012-1.154 2.452-1.562 3.073-3.197l2.185-.86.661-1.448-.148-.927-.785.204-.536-.364-.147-.469 2.116-3.103.397-.188 1.563.139-.299-.852.655-2.313c-.004-.668-1.365-2.38-1.781-2.854l.117-.718c1.004-.685.652-.364 1.249-1.536l1.757-.894c.695.242 1.868.336 2.575.094l.533.408.983-.275 1.255.387c1.313-.365 2.631-.723 3.939-1.11.132-1.302 3.953-3.14 5.233-3.091 1.26.846 2.149 1.42 3.102 2.512.742.202 1.426.365 2.208.382l1.081-.767c.401-.884.716-1.596 1.603-2.137l.722-.071c.36.33 1.196.75 1.708.657 3.923-3.008 3.11-.953 8.667-.994l2.371 1.634 3.103-.396 1.092-.861.372-2.248c.923.507 2.358.685 3.387.636.689-.348 1.482-1.45 1.795-2.12l-.15-.878-1.384-1.454-.316-1.783c1.098-1.51 1.526-2.642 1.95-4.367l.533.1c2.001.382 4.121 1.28 5.611-.668.178-.233.466-1.314.642-1.541.945-1.219 4.555-3.278 6.105-3.402l.801 1.536 1.738-.11c.283.367 1.133 1.169 1.655 1.16.576-.444 2.192-1.465 2.978-1.407.458.275 1.603.507 2.116.387 1.192-.28 1.815-1.816 2.668-2.535l2.196-1.297c.181-.076.821.03 1.012-.045 2.022-.787 4.26-2.11 5.937-3.495 1.83.028 4.512-.433 6.167-1.098 1.382-.555 3.972-4.09 3.722-5.578l-.559-.6c.22-.172.873-.761 1.107-.791.268-.035 1.766-.186 1.937-.242 1.058-.352 1.611-1.13 2.917-1.22l1.703 1.579c1.177.673 2.381-.259 3.507-.431 1.801-.279 3.239.033 5.036-.789l.473-.774c.873.227 3.073.413 3.866-.215l.583-.901.051-2.236c1.063-1.137 2.429-4.193.421-5.118l-1.558-.137c-5.328-.472-2.75-.828-5.93-1.834-.968-.306-2.113.237-3.191-.314l-.077-1.513-1.178-.664-.218-1.12c.517-.491 1.656-.806 2.349-.774l.636-.53-.403-1.597-1.63-.066c-.828.61-2.597 1.542-3.68 1.513l-.074-.646c-.885-.573-1.647-1.14-2.759-1.233l-.685-1.253 1.527-1.63-.995-1.468c.559-.658 1.793-1.243 2.613-1.435l-.051-1.332.643-1.038-.512-1.965c.835-.711 1.894-2.086 2.179-3.171l1.084-.673 1.159-.022c1.175.674 2.42 1.814 3.205 2.916.721.304 2.036-.451 2.733-.734l2.314.867c.317.435.561 1.29.475 1.828 1.749 2.173 3.969 2.584 6.561 1.745l2.496-2.083c.877-.128 1.338-.067 2.254.089l1.567 1.525 1.156.027c.989-1.11.663-3.14 1.47-4.517l.9.133.641 1.619-1.166 2.214.229 1.44c.653.988 2.935 1.072 3.911.807l.538.37.115.653-.421.785.301.76c.872.045 3.036-.902 3.806-1.264 1.097 2.023 2.251 3.788 4.087 5.214l-.023 2.331.303.305-.461.227c.003 2.56-2.562 6.193-3.924 8.383l-.013.955.809.95c1.853.926 5.996-1.387 8.081-2.104l.798-1.518c.497.166 1.68.787 1.817 1.374l.133 3.49c.001.056-.344.88-.344.88-2.027 1.825-1.739 4.239-2.771 6.665-.41.967-.9 1.392-1.073 2.68 1.055 1.074 2.995.878 3.806 2.08 2.616-.422 4.094.701 6.12 2.364l2.445.028c.462.152.946.85 1.053 1.297l-.237.387.156 1.16 1.104.022 1.409-.999c2.915.407 3.656 2.494 6.364 1.027l1.373.601c.051-.094.358-.625.37-.695.178-1.145.278-2.43.556-3.55.546-2.213 2.689-3.413 2.85-5.97 2.08 1.101 4.913 1.938 5.851-1.077l1.486.431c.286.567 1.211 1.141 1.831 1.199l.759-1.325c2.088.561 7.334 2.78 8.764 2.517.582-.107 1.206-.766 1.787-.861l2.012-.333c.25-.232.492-.48.758-.694.254-.878-.426-3.6-.582-4.457l.861-2.374-.223-.574c-.704-.516-1.385-1.064-2.074-1.596l-.295-1.175c2.417-.909 2.889-1.999 4.471-4.076-.116-.63-.897-3.675-.422-4.086l1.052-.713c-.624-.812-1.655-2.465-1.751-3.53l-1.816-.143c-.432.42-1.447.801-2.054.647l-1.139-1.353 2.153-3.932c.283-.064 3.009-.542 3.193-.894l.196-1.63 1.748-1.32.051.779.518.513c.118.552.52 1.656.179 2.127l.44.779c.928-.283 1.846-.626 2.767-.938l.596-1.768 2.32 1.578 2.922.176.525.42-1.163 1.661.189.847c.499.727 4.125 1.592 5.034 1.867l1.008-.758-1.127-1.081 1.03-2.546c.606-.671 3.283-1.244 4.125-1.38.436 2.266.295 4.44.292 6.759.508.497 1.556.886 2.242.978l.667-.708.173-1.032 5.301-1.938.678 2.733.875.734 2.918.183.688 1.088c-.007 2.76.342 2.08 2.31 3.96-.716 1.55-1.902 2.683-3.036 3.92l-.545 2.867c.446 1.147 2.075 4.182 1.45 5.472 1.545 1.629 3.184 3.681 4.158 5.721 2.024.315 3.821 1.625 5.563 2.634.078.045.241.104.295.172 2.225 2.672 2.789 6.254 1.473 9.499 1.214 1.38.707 2.764 1.349 4.224.916.596 1.507.73 2.613 1.027 1.499-1.962 3.472-3.289 3.533-6.007.98-.86 1.93-2.092 3.369-1.59l.826 2.247 1.376.518c.212.624.917 1.133 1.42 1.444 3.337 2.058 3.865.14 4.879.832l1.611 2.06c1.237-.46 4.224-.819 5.244.325 4.393-.508 6.045-.828 9.346 2.817 1.619-.043 5.67.789 6.75 2.065l-.213 1.303c.066.397 1.797 1.232 2.166 1.44l3.381-.154 1.572.823c.87-1.137 2.387-2.084 3.865-2.016.46.393 1.467.61 2.052.469.638-.366 1.49-1.307 1.657-2.048 2.007-1.816 5.221 2.046 4.422 5.146.604 1.133 1.546 3.028 2.915 3.413.646 2.227 1.92 4.896 1.545 7.283l2.608.585.77-1.099c1.109-.367 2.236-.8 3.36-1.11.273-.075 1.058-.086 1.268-.17.573-.226 1.091-.76 1.664-.99 2.167-.862 4.908-1.58 6.894.094.877 2.348 2.209 5.644 1.888 8.062-.272 2.05-.28 4.723-1.601 6.449.447.605.943 1.12 1.515 1.618 1.312-.206 2.653-.282 3.949.094l1.906-1.551 1.295.558c.961-.56 1.036-4.445 2.063-5.782.569-.74 1.764-1.376 2.447-2.054.107-.107 1.206-1.963 1.357-2.208 1.132.225 2.243.254 3.39.286l1.524 1.11c2.777-.558 5.57 3.88 7.045 5.77.708-.617 2.327-1.41 3.313-1.292l1.038-1.292c.046-1.83.551-5.502 2.108-6.655 2.149.004 4.729.892 6.396 2.236 3.556.568 4.53-2.093 8.602.652l.955 2.49c2.56 1.073 3.394 3.438 5.135 5.303 2.554 2.735 4.467 3.017 6.244 6.811.29.62.647 1.645.325 2.373-1.062-.275-2.916.156-3.861.63l-1.252-.276-.536.503c.056 1.103.319 2.364.765 3.38-.657.823-1.312 1.599-2.111 2.297.429.653.171 2.375-.035 3.049-2.909 1.373-3.271 4.733-5.631 5.35-1.502.094-3.789-.942-4.824-1.998l-1.278.596-.16 1.032.991.601.25.689c-.785.975-2.946 1.899-4.079 2.259l-1.72-.359-.377 1.642c-.572-.104-1.591.029-2.063.408l.543.657-.239.464-.949-.309-.309 1.055-1.529-.101-.9 1.133.515 1.529.842.618-.345.767-1.358.028-1.199-1.004-1.359.028c-.274.436-.588.853-.882 1.276.503 3.615 1.964 2.514 2.422 6.504l1.247.277.961-.702 1.375.111.961 1.475-.357 1.789 1.379.109 1.109 1.452-.385.486.451 1.104c.727.226 1.621 1.275 1.932 1.927l3.566-2.63c1.706-.232 5.161-.037 6.642 1.044 1.29 2.251.02 4.29.82 5.986.717 1.518 2.366 3.217 3.351 4.656 1.963.222 3.933.125 5.903.242.095.077.697.542.735.607.655 1.103 1.28 2.353 2.018 3.397 1.183 1.681 1.278.92 1.976 3.223.544.708 1.379 1.026 1.864 1.63 1.425 1.765 1.15 3.279 3.776 3.854l1.34 3.38 1.025.668h.857c.762.764 3.056 2.596 2.982 3.622l-.237.851.934 1.546c-.465.667-.773 2.884-.678 3.596.236 1.733 1.356 2.278.491 4.71.059.793 2.463 2.484 3.08 2.876l.209.576-.703 1.441.486.675 3.164 1.203c.614 1.957 2.221 3.233 3.618 4.628l2.398-.005c1 1.073 2.114 1.847 3.529 2.064 1.794.277 2.462.395 4.236-.122a131.785 131.785 0 003.756-6.837l2.384-.143c1.373-1.054 3.046-3.102 3.75-4.656.486-1.071.644-2.477 1.034-3.605.258-.744.951-1.645 1.351-2.335l2.07-.248.373-1.783c.616-.856 1.656-1.688 2.572-2.191.63.248 1.279 1.234 1.443 1.853l2.034.624c1.477-1.014 2.172-2.839 2.58-4.512 2.56-1.623 3.895-1.189 6.534-.636.63-.156 2.111-.65 2.559-1.175l-.369-1.689c.507-.538 1.479-1.269 2.226-1.424 1.151 1.819 1.55 4.241 3.545 5.373l1.744-.49c.451-.743.857-1.528 1.209-2.32-1.023-1.546-2.075-3.404-2.619-5.191.839-.387 1.571-1.99 1.75-2.815l-.64-3.837c-.875-2.172-6.655-4.031-8.877-4.597l-1.816-2.39c-.071-.96-.04-1.956.082-2.911-3.52-4.149-1.086-5.686-2.964-8.918-1.569-1.05-5.301-3.375-6.203-4.766 1.045-1.918 2.228-3.826 3.016-5.866.764-.917 2.778-1.439 3.908-1.337 3.021 2.262 6.618 3.823 10.167 5.027 1.055.357 2.984.174 4.111.242.526.424 2.367 2.68 2.759 2.716l1.563-.762c1.609 1.583 4.149 1.267 6.136.734l1.073 1.32c-.168.432-.225 1.33.067 1.734l1.967.061 2.076 2.076 1.006-.409.813.486 1.364-1.17 1.13.591c.662-.707 2.017-.746 2.903-.912l.809 1.646-.926-.188-.935.978-.059.734c2.926 2.949 11.294 10.713 14.865 10.459 1.965-.586 4.072-1.208 5.917-2.12.569.183 1.277.635 1.642 1.116-1.092.369-2.371.65-3.529.69l-.078.586 1.164.884 1.518.115.568.95c-.484 1.645-.951 3.255-1.668 4.821l.515 2.983 1.425.563.566.95.776.199.245-.463c-.468-.892-.631-2.275-.551-3.264.765-.889 2.631-.654 3.643-.988.756-.249 2.169-.975 2.951-.481l.515.519.088.717c-.822.323-1.494.677-2.27 1.122l.383.679 1.135-.556 1.718.53c.476 1.057.677 2.547.601 3.694.661.287 2.037.135 2.703-.016a55.882 55.882 0 011.437-3.054c2.228-.304 4.423-.823 6.758-1.33 5.556 1.45 5.904.7 10.797-.326.495.746 1.103 1.508 1.754 2.12 1.279.116 2.437-1.02 3.595-1.407.929-.311 1.967-.506 2.918-.751 1.216-1.943 3.065-3.255 4.53-4.98l-.834-4.539.674-.652c2.077 1.316 5.032 2.331 5.973 4.705l2.279.188.596 1.236c-.152.955-.963 1.416-1.402 2.177-.823 1.419-1.43 2.971-1.878 4.544.466 2.342 1.295 3.46 3.522 4.39 1.064 1.265.329 5.236.205 6.925l-2.453.844c-.739-.13-1.517-.466-2.193-.772l-1.024.254c-.785 1.295-.74 3.528-1.18 4.03l-1.561.752c-.83.013-1.878-.211-2.623-.581-1.45 1.61-3.683 1.065-4.67 2.392-1.909.119-4.064.338-5.894.938l-.273 1.476c.321 2.194 5.056 5.026 6.7 5.92.173 1.241 1.47 3.012 2.391 3.788l2.009.502.542-.491.065-.734 1.926-.209c1.559 1.253 3.422 2.175 5.397 2.595.195 1.684.936 3.072 1.611 4.617l.752.531.33 1.473.621.586-.007.866c.734.884 1.581 2.247 1.792 3.401.049.27-.084 1.008-.021 1.238.133.496.617.988.756 1.485.188.665-.294 1.164.501 2.241l1.931.968.543 1.18c2.143.991 1.244 1.489 2.498 2.932 1.456 1.676 2.868 1.688 4.718 2.503 1.112.489 1.339 1.104 3.179 1.104.995 0 2.037-.33 3.101-.33 1.083 0 2.251-.545 3.166-1.061 1.157-.652 8.275-6.047 9.203-7.189l.741-.077c1.841 1.119 3.588 3.16 5.983 2.695.807-1.667.409-4.727-.13-6.495-1.717-.171-2.982.229-4.353 1.182l-.821-.636c-.158-1.073.301-2.961.602-3.97 1.164-1.039 2.799-1.441 4.325-1.464 1.283 1.037 4.283 4.015 5.983 4.004-.014.583-.071 1.165-.106 1.747.176.64 1.396 1.048 1.952 1.386.089 1.338-.597 2.784 0 4.048 1.527 1.391 1.555 1.636 3.403 2.395l1.146-.408.72 1.083.932.336.524.667.934.337 1.099-.833-.536-.813c.36-1.207 1.201-1.673 2.131-2.385 1.364-.344 2.572.197 3.686.923 1.254 1.74.041 4.114 1.247 5.942l1.588.851c1.591-.939 4.324-.237 5.864.415.686 1.498.951 4.059.917 5.686 1.456 1.312 3.123 2.325 4.828 3.27 1.833-.591 1.831-1.38 3.937-2.43-.676-.832-1.241-1.63-2.057-2.364l.176-.697 2.529.232c2.126 1.999 1.549 1.327 4.963 1.889 1.089.177 2.262.14 3.368.187 1.717 1.232 3.416 1.91 5.264 2.916 4.718 2.563 4.459 3.877 10.289 2.715.77-.97 1.305-2.766 1.435-3.97l.673-.26 1.107 1.009c.65-.171 1.628-.266 2.294-.08l.895 2.334c-.27 1.11-2.175 7.229-1.436 8.335l.498.437 2.491-.53 1.062.574.161 1.1c-1.196 1.75-2.606 3.288-3.768 5.069.015.13.13 1.493.16 1.536 2.882 4.394 4.919 9.007 6.473 14.026l.64 2.085c.566 1.814-.078 1.794.054 3.195.124 1.309 1.001 5.115 1.735 6.18l.644.932 1.353.438c-.15-1.324-.364-2.642-.548-3.959l2.307.066c.461.335.943.65 1.432.945.543-.035 1.318-.438 1.696-.819l1.45.372c2.132 1.772.26 3.825 4.743 5.825 1.531.173 3.426-1.192 5.047-1.426 1.313.455 2.733.998 3.819 1.879.833 1.063.695 2.891.961 4.168.634 3.051 1.611 6.253 1.874 9.351.061.733-.074 1.511 0 2.242.023.244 1.119 4.913 1.173 5.086.567 1.809 2.233 3.105 2.864 4.998-.142 1.335-1.549 1.783-1.842 3.064-.016.309.222 1.956.583 2.048-.769.377-19.17 7.064-20.32 7.026-1.907-.064-4.16-.637-6.068-.928-1.873-.287-3.801-1.205-5.582-1.843-5.18 1.467-6.713 1.492-9.885 6.582-.44.708-.705 1.518-1.189 2.198-2.163 3.044-4.462 6.192-7.08 8.875-.879.899-1.971 1.609-2.916 2.435-.689.605-1.344 1.194-1.699 2.071-.871 2.142-.326 4.905-1.417 6.902-.395.722-.876 1.924-1.389 2.54-1.522 1.831-6.299 4.249-8.561 5.015-1.774.597-3.755.826-5.57 1.392-2.616.814-5.158 1.915-7.809 2.588-2.215.563-5.914 1.536-7.714 3.044-1.126.944-2.514 4.524-2.95 5.855-.163.492-.038 1.2-.16 1.717-.492 2.092-1.882 4.173-.509 6.285-.413 1.105-1.893 6.781-2.504 7.698-1.012 1.515-2.336 2.817-3.355 4.378-.071.105-.104.281-.146.4-2.64 7.263-.418 11.649-6.482 18.034-1.581 1.664-3.044 3.407-4.681 5.019-1.545.043-3.191 1.362-4.696 1.884-1.703.591-3.635.164-5.216.816-2.561 1.06-9.189 9.139-10.799 11.2-1.164 1.491-2.755 3.826-4.282 4.871-.872.596-5.81 1.867-7.054 1.851-.424-.005-4.143-.53-4.592-.636-2.337.955-4.631 4.276-5.378 6.572-.674 2.083-2.69 6.727-4.143 8.084-1.351 1.262-7.37 2.283-8.908 2.981-4.323 1.961-9.06 7.942-14.01 3.795-1.161-.973-2.333-1.933-3.554-2.833-6.86-1.695-7.33 4.072-14.982 4.578-5.764.382-11.73-5.728-16.899-7.929-.35-.151-2.208-.994-2.298-.999-.267-.02-2.404-.196-2.531-.176-1.436.219-3.253 1.129-4.747 1.524-1.706.45-4.801 2.42-6.393 3.622-2.692 2.033-4.117 4.282-6.15 6.864-1.211 1.537-2.506 2.398-3.925 3.663-4.066 3.623-5.862 8.893-6.777 14.104-.348 1.982-2.357 2.69-3.531 4.179-.65.822-.726 1.645-.864 2.641-.168 1.218-.203 2.501-.412 3.699-.302 1.838-2.563 6.26-3.43 8.131z" fill="#fff" fill-opacity=".1"/><path d="M60.954 231.24s3.69 1.041 5.221.653c1.633-.413 2.932-2.866 4.569-3.265 1.345-.328 3.549-.284 4.569.653.962.884-.277 3.884.978 4.245 1.465.42 2.4-2.64 3.59-3.592 1.719-1.374 4.105-3.248 6.2-3.918 1.682-.538 4.11-.277 5.875-.326 2.348-.066 5.506-.335 7.832 0 1.717.247 3.838 1.334 5.547 1.632 1.643.286 3.901.583 5.548.327 1.347-.21 3.47-.508 4.242-1.633.887-1.292-.518-3.745 0-5.224.415-1.184 1.658-2.45 2.611-3.265 2.399-2.053 6.628-3.307 9.137-5.224 1.651-1.261 2.977-4.102 4.896-4.898 1.537-.637 3.89-.156 5.547 0 2.084.197 4.942.453 6.853 1.306 2.361 1.054 4.269 5.215 6.853 5.224.49.002 1.087-.541 1.306-.979.7-1.402-.098-3.66 0-5.224.098-1.577.238-3.081 1.305-4.245.947-1.033 2.64-1.378 3.916-1.959.891-.406 2.364-1.011 2.611-1.959.242-.933-1.31-1.974-1.306-2.938.005-1.184 1.727-2.412 1.632-3.592-.597-1.526-1.909-2.706-2.937-3.918-1.092-.585-4.625-.546-5.221-1.632-.389-.708.044-2.081.652-2.612.668-.584 2.15.081 2.937-.327 1.047-.542 2.192-1.836 2.611-2.939.278-.732.125-1.838 0-2.612-.248-1.528-.933-3.515-1.632-4.897-.919-1.819-3.462-3.564-3.916-5.551-.132-.581.563-1.412.327-1.959-.421-.972-2.705-.925-2.937-1.959-.251-1.114 1.798-2.134 1.958-3.265.212-1.506-1.319-3.377-1.306-4.897.013-1.427 1.049-3.168 1.306-4.571.212-1.161.501-2.752.326-3.918-.234-1.565-1.139-3.544-1.958-4.898-.468-.773-1.1-2.005-1.958-2.286-1.625-.53-3.839 1.364-5.548 1.306-1.331-.044-2.917-1.439-4.242-1.306-1.221.123-2.512 2.545-3.59 1.959-1.122-.609-.368-2.968-.326-4.244.022-.692.743-1.733.326-2.286-1.31-1.735-5.032-.638-7.179-.979-2.162-.344-5.072-.715-7.18-1.306-1.312-.369-3.031-1.006-4.242-1.633-1.254-.649-3.916-2.612-3.916-2.612" stroke="#fff" stroke-opacity=".75"/><path d="M160.16 193.039s2.758-.2 3.916 0c1.434.249 3.249 1.018 4.568 1.633 1.233.574 2.603 1.93 3.916 2.285.851.23 2.279.586 2.937 0 1.253-1.114-.547-4.38.653-5.55.775-.755 2.517-.466 3.59-.327 1.136.148 2.539 1.765 3.59 1.306 1.849-.808 2.211-4.224 2.61-6.203.291-1.441-.657-3.584 0-4.898.876-1.752 3.674-2.718 5.222-3.918.991-.768 2.043-2.324 3.263-2.612 1.364-.322 3.186 1.209 4.569.98 1.689-.281 3.823-1.602 4.895-2.939.387-.483.276-1.467.652-1.959 1.286-1.684 3.807-3.458 5.874-3.918 3.19-.71 5.66 2.171 8.811 1.306 1.342-.368 4.553-1.639 5.548-2.612 1.291-1.263 2.237-3.908 3.916-4.571.825-.326 2.138-.058 2.937.326 1.498.72 2.281 4.215 3.916 3.918 1.164-.211 1.013-2.583 1.632-3.591.656-1.069 1.499-2.684 2.611-3.265 1.304-.682 3.52.201 4.895-.327 1.627-.624 3.806-2.023 4.568-3.591.214-.441-.297-1.244 0-1.633.678-.887 2.977-.046 3.59-.979.38-.579-.221-1.601-.326-2.286-.183-1.177-.833-2.186-.327-3.265.578-1.232 2.248-2.714 3.59-2.938 2.462-.411 5.697 1.218 8.158 1.632 2.144.36 5.008.876 7.18.98 2.446.117 5.709-.278 8.158-.327 1.86-.037 4.351.203 6.2 0 .898-.098 2.159-.195 2.937-.653 1.017-.598 1.546-2.433 2.611-2.938 2.125-1.009 5.481-.278 7.832-.327.881-.018 2.237.535 2.937 0 .887-.678.675-2.517.979-3.591.473-1.67 1.596-3.816 1.632-5.551.025-1.211-.831-2.716-.979-3.918-.084-.681-.508-1.826 0-2.286.729-.66 2.297.142 3.263.327.7.134 1.618.906 2.285.653 1.193-.453 1.37-2.701 2.284-3.592.818-.797 2.309-1.332 3.263-1.959.705-.462 1.966-.852 2.285-1.632.639-1.565-.971-3.86-.979-5.551-.006-1.191.365-2.761.652-3.918.15-.601.752-1.347.653-1.959-.157-.967-1.082-2.174-1.958-2.612-.613-.307-1.704.364-2.284 0-3.043-1.907-3.318-7.728-5.222-10.775-.924-1.478-2.726-3.056-3.589-4.57-.937-1.644-1.771-4.057-2.285-5.878-.297-1.054.004-2.715-.652-3.591-.394-.526-1.79-.345-1.958-.98-.635-2.39 3.852-4.49 4.568-6.856.256-.844-.23-2.088 0-2.939.355-1.313 1.211-3.083 2.285-3.918 1.125-.875 3.956-.018 4.568-1.306.32-.674-1.001-1.54-.979-2.286.045-1.532 1.437-3.293 2.285-4.57.499-.753 1.735-1.41 1.958-2.286.345-1.36-.832-3.177-.979-4.571-.052-.487-.329-1.27 0-1.633.66-.73 2.283-.414 3.263-.326 1.42.127 3.217.853 4.569 1.306 1.293.433 2.887 1.479 4.242 1.632.688.078 1.795.164 2.284-.326.979-.98.144-3.283.653-4.571.439-1.112 1.362-2.505 2.284-3.265.745-.614 2.098-.832 2.937-1.306 1.041-.589 3.264-2.286 3.264-2.286" stroke="#fff" stroke-opacity=".75"/><path d="M316.801 110.107s1.815 3.454 3.263 3.592c.975.092 1.651-1.766 2.611-1.959.791-.16 1.804.674 2.611.653 1.331-.036 3.025-1.847 4.242-1.306 1.481.657.906 4.044 2.284 4.897 1.914 1.184 3.783-.694 6.513-1.087 1.785-.256 4.499 1.245 5.888.761 1.849-.644 3.967-2.414 5.222-3.918.561-.673.628-2.057 1.305-2.612.863-.709 3.013-.024 3.59-.98.932-1.546-2.082-4.246-1.306-5.877.282-.593 1.305-.911 1.958-.98 2.315-.242 5.247 2.521 7.506 1.959 1.547-.384 3.185-2.174 3.916-3.591.362-.702-.13-1.968.326-2.612 1.265-1.788 5.376-1.402 6.527-3.265.566-.917-.412-2.596 0-3.592.371-.896 1.315-2.285 2.284-2.285.693 0 1.038 1.277 1.632 1.632.878.525 2.363.496 3.263.98.674.362 1.203 1.513 1.958 1.632 1.042.165 2.234-1.53 3.264-1.306 2.774.605 3.869 5.857 6.526 6.857 1.013.38 2.632-.829 3.59-.327 2.291 1.202 2.246 5.865 4.243 7.51 1.433 1.182 4.149 1.268 5.874 1.959 3.415 1.368 7.489 5.952 11.095 5.224 2.582-.521 3.318-5.892 5.874-6.53 1.749-.437 2.195 1.46 4.195 2.386 1.814.841 6.5.327 7.879 1.206 1.986 1.265 1.93 5.437 4.243 5.877 2.412.458 5.362-1.936 6.2-4.245.598-1.647-1.586-2.515-1.305-4.245.332-2.051 3.482-4.357 5.548-4.571 3.025-.313 4.835 4.704 7.832 5.225 2.48.43 2.069-1.664 4.568-1.96.973-.115 6.362.848 6.853 0 1.585-2.732-3.976-6.239-5.221-9.142-.403-.94-.948-2.242-.979-3.265-.052-1.71 1.609-3.867 1.305-5.55-.313-1.738-2.717-3.219-3.263-4.898-.339-1.042 1.218-1.65 1.227-2.939.01-1.476-1.504-3.641-1.553-4.897-.104-2.644-.278-6.17-.327-8.816-.02-1.077.346-2.57 0-3.591-.672-1.986-4.242-5.55-4.242-5.55" stroke="#fff" stroke-opacity=".75"/><path d="M404.911 106.515s-3.1 2.397-3.263 3.918c-.271 2.527 3.086 5.109 3.916 7.51 1.042 3.014 2.73 7.354 1.958 10.448-.304 1.217-1.814 2.297-2.611 3.265-1.059 1.288-3.36 2.593-3.589 4.245-.163 1.172 1.012 2.583 1.631 3.591.656 1.069 1.481 2.722 2.611 3.265 1.235.594 3.269-.433 4.569 0 .929.31 1.948 1.238 2.61 1.959.625.681 1.311 1.746 1.632 2.612.448 1.208-.178 3.26.653 4.245 1.198 1.42 4.033 2.206 5.874 1.959 1.049-.141 1.881-1.877 2.937-1.959 1.397-.109 2.841 1.981 4.242 1.959 1.314-.02 2.638-1.657 3.916-1.959 1.048-.248 2.615-.457 3.59 0 .692.324 1.317 1.262 1.632 1.959.529 1.174.554 2.96.652 4.245.105 1.367-.182 3.211 0 4.571.148 1.107.753 2.498.979 3.591.281 1.357.601 3.187.653 4.571.055 1.472.43 3.634-.326 4.898-.475.793-2.163.824-2.611 1.632-.475.857-.444 2.393 0 3.265.604 1.188 2.343 2.143 3.59 2.612 1.012.381 2.549.031 3.589.327 1.053.3 2.688.701 3.264 1.632.669 1.084.9 3.345 0 4.245-.9.9-3.21-.745-4.243 0-.502.362-.523 1.353-.652 1.959-.206.963-.278 2.282-.327 3.265-.053 1.076.566 2.675 0 3.592-.345.559-1.706.372-1.958.979-.237.573.844 1.37.653 1.959-.26.802-1.899.884-2.284 1.633-.404.784-.575 2.27 0 2.938 1.292 1.501 4.7.215 6.526.98 1.807.756 4.251 2.217 5.222 3.918.439.77-.197 2.223.326 2.938 1.708 2.336 7.371 1.408 8.811 3.918.441.77-.155 2.069-.326 2.939-.138.7-.746 1.579-.653 2.286.075.566.979 1.061.979 1.632 0 2.285-3.349 4.317-3.916 6.53-.633 2.469 1.8 6.41.326 8.489-1.54 2.174-6.366.997-8.484 2.612-1.015.774-2.219 2.316-2.285 3.592-.079 1.531 2.204 3.04 2.285 4.571.044.836-.228 2.244-.979 2.612-1.475.721-3.635-2.051-5.222-1.633-2.076.547-2.962 4.289-4.895 5.224-1.061.514-2.756.115-3.916.327-1.402.256-3.394.497-4.568 1.306-.807.555-1.036 2.284-1.958 2.612-1.142.405-2.72-1.169-3.916-.979-.913.144-2.075.88-2.611 1.632-.759 1.064-.236 3.17-.979 4.245-.803 1.162-3.174 1.41-3.916 2.612-.83 1.343-.884 3.661-.653 5.224.141.954.639 2.241 1.305 2.938 1.362 1.425 4.417 1.613 5.875 2.939 1.366 1.243 3.706 3.43 3.263 5.224-.652 2.642-5.126 4.291-7.832 4.571-.616.064-1.391-.901-1.958-.653-1.085.473-1.179 2.498-1.632 3.591-.32.774-.161 2.435-.979 2.612-1.488.323-2.208-2.95-3.59-3.591-1.069-.496-2.739-.394-3.916-.327-1.495.086-3.404.832-4.895.98-2.24.222-5.326.565-7.505 0-.976-.253-1.939-1.772-2.937-1.633-.823.116-1.75 1.155-1.958 1.959-.179.691.553 1.58.652 2.286.095.679.467 1.784 0 2.286-.936 1.006-3.632-.68-4.568.326-.601.645.313 2.115 0 2.939-.419 1.102-1.639 2.271-2.611 2.938-.69.474-1.826 1.27-2.611.98-3.041-1.125-2.266-8.134-5.221-9.469-.823-.372-2.372-.051-2.937.653-.49.611.73 2.328 0 2.612-1.485.578-2.365-2.898-3.59-3.918-.71-.591-1.829-1.14-2.611-1.633-1.079-.681-2.326-2.102-3.589-2.285-.706-.103-1.67.291-2.285.653-1.074.632-2.366 1.83-2.937 2.938-.545 1.06-.554 2.731-.652 3.919-.065.78-.109 1.836 0 2.612.099.706.921 1.625.652 2.285-.297.731-1.545 1.029-2.284 1.306-.935.35-2.35.25-3.263.653-1.667.735-3.9 2.066-4.895 3.592-.494.756.051 2.373-.653 2.938-.764.613-2.322.27-3.263 0-.888-.255-1.758-1.279-2.611-1.632-1.207-.5-3.067-.41-4.242-.98-.565-.273-1.062-1.046-1.632-1.306-2.988-1.361-7.554-2.625-10.769-1.959-.691.143-1.254 1.255-1.958 1.306-2.271.164-4.663-2.641-6.853-3.265-.853-.243-2.134-.701-2.937-.326-.96.447-1.164 2.237-1.958 2.938-1.477 1.305-3.944 3.335-5.874 2.939-1.633-.336-2.249-3.253-3.59-4.245-1.199-.887-3.161-1.468-4.569-1.959-1.054-.368-2.474-.931-3.589-.979-1.094-.048-2.714-.004-3.59.653-1.051.788-.901 3.137-1.958 3.918-.958.708-2.755.386-3.916.653-1.691.388-3.82 1.786-5.548 1.632-.872-.077-1.735-1.306-2.61-1.306-.876 0-1.739 1.225-2.611 1.306-1.419.132-3.632-.231-4.569-1.306-.455-.522-.234-1.599-.326-2.285-.105-.783.265-2.09-.326-2.612-1.028-.908-3.28-.467-4.569 0-1.438.52-3.082 1.982-3.916 3.265-.778 1.195-.168 3.712-1.306 4.571-.703.531-2.079-.203-2.937 0-1.278.302-2.666 1.552-3.916 1.959-1.132.368-2.736.819-3.916.653-2.255-.317-4.593-3.55-6.853-3.265-.758.095-1.206 1.49-1.958 1.632-1.217.23-2.677-1.323-3.916-1.306-1.146.016-2.507.929-3.589 1.306-1.17.408-2.793 1.828-3.916 1.306-.479-.222-.653-1.632-.653-1.632" stroke="#fff" stroke-opacity=".75"/><path d="M191.255 416.226s1.569-5.062 2.191-6.714c.742-1.975.864-5.348 2.61-6.53 1.054-.714 3.343.9 4.243 0 .623-.624 1.003-2.078.814-2.939-.301-1.37-1.303-2.675-1.725-4.012-.33-1.044-1.906-2.167-1.7-3.242.174-.908 2.015-1.477 2.213-2.379.171-.771-.503-2.64-.442-3.427.055-.711-.033-2.555.536-2.984.547-.413 1.252.747 1.935.698 1.382-.098 3.293-.115 4.569-.653 1.48-.624 4.321-2.449 5.29-3.73.954-1.262.136-3.053.911-4.432 1.47-.952 3-1.747 3.354-2.803.353-1.055-3.344-3.477-3.354-4.38-.016-1.392 2.003-2.56 2.937-3.592.65-.719 2.263-1.316 2.284-2.286.035-1.594-3.257-2.358-3.59-3.918-.193-.908.458-.998 1.212-1.541.556-.401 1.711-.421 2.168-.932.591-.66-.562-2.525-.443-3.404.142-1.045.581-2.498 1.306-3.265 1.113-1.178 3.914-.994 4.895-2.285.72-.949.41-2.752.652-3.918.329-1.582 1.677-3.652 1.306-5.224-.208-.879-1.567-1.472-1.958-2.286-.908-1.887-1.546-4.776-1.306-6.856.111-.959 1.047-2.01 1.306-2.939.211-.761.36-1.823.326-2.612-.061-1.401-.515-3.248-.979-4.571-.435-1.24-1.748-2.621-1.958-3.918-.222-1.368.07-3.315.653-4.571.496-1.07 2.456-1.769 2.61-2.939.115-.868-.661-2.019-1.305-2.612-.776-.714-2.728-.397-3.263-1.306-2.006-3.401 3.274-9.47 1.631-13.06-.44-.963-1.887-1.818-2.937-1.959-.92-.123-2.033 1.193-2.937.979-.943-.222-2.204-1.319-2.284-2.285-.07-.84 1.236-1.542 1.632-2.286.393-.738 1.222-1.811.979-2.612-.492-1.612-5.01-1.638-4.569-3.265.283-1.044 2.637.186 3.59-.326.552-.297 1.489-1.033 1.305-1.633-.392-1.273-3.677-.1-4.242-1.306-.541-1.152.88-2.89 1.631-3.918.985-1.346.85-2.466 2.381-3.126.815-.35 3.228-1.566 4.101-1.723 1.191-.214 2.6 1.657 3.683 1.116.899-.45.859-2.46 2.14-3.443 1.29-.992 3.897-.959 4.012-1.966.127-1.11-1.922-1.882-2.284-2.938-.255-.742.028-1.829 0-2.612-.049-1.374-.323-3.197-.327-4.572-.003-1.472.026-3.456.327-4.897.532-2.548 1.209-6.217 2.937-8.163.581-.655 2.264-.501 2.61-1.306.676-1.57-.866-2.625-1.584-4.642-.701-1.967-.556-4.9-1.679-6.132-1.923-2.111-7.09-1.314-8.811-3.592-.535-.707.137-2.182-.326-2.938-1.085-1.77-4.13-.551-6.245-1.897-2.066-1.315-3.192-5.209-5.177-5.613-2.145-.437-5.026.914-7.18 1.306-1.076.196-2.533.942-3.589.653-1.875-.513-3.279-3.165-4.895-4.245-.717-.478-4.852-1.554-5.247-2.655-.409-1.137 3.389-2.419 2.701-2.983-.863-.708-3.608.113-4.96.088-.979-.018-2.291-.111-3.263 0-1.298.148-2.945.831-4.243.979-.972.111-2.626.744-3.263 0-.838-.977.262-3.017.653-4.244.265-.835 1.445-1.747 1.305-2.612-.177-1.094-2.611-2.612-2.611-2.612" stroke="#fff" stroke-opacity=".75"/><path fill-rule="evenodd" clip-rule="evenodd" d="M299.156 189.778c.798.096 1.988.314 2.677-.1.355-.212.639-.78.694-1.19.141-1.037-.885-2.326-.892-3.373-.003-.491.105-1.193.397-1.587.206-.279.656-.505.991-.595 2.011-.542 4.958.737 6.941.099.81-.261 1.472-1.42 2.28-1.687.819-.27 2.027.158 2.875 0 .408-.075 1.039-.165 1.289-.496.38-.5-.17-1.575.199-2.083.438-.604 1.541-.89 2.28-.992.863-.118 2.01.493 2.876.397.757-.084 1.617-.879 2.379-.893.564-.01 1.377.205 1.785.595.299.287.148 1.064.496 1.29.474.308 1.364-.324 1.883-.099.465.201.821.861 1.091 1.289.348.553.325 1.662.892 1.984.677.385 1.888-.657 2.578-.297.39.203.568.869.694 1.29.19.629-.144 1.621.199 2.182.349.57 1.238 1.016 1.884 1.19.804.218 1.958-.257 2.776-.099.863.167 1.985.649 2.677 1.191.267.209.572.576.694.892.149.39-.088 1.016.099 1.389.264.528.93 1.095 1.487 1.29.675.236 1.718-.37 2.38-.099.604.247 1.013 1.139 1.487 1.587.338.319 1.051.548 1.19.992.331 1.061-.24 2.752-.992 3.571-.751.818-2.434.89-3.47 1.29-.747.288-1.8.567-2.479.992-.374.234-.945.574-1.09.992-.237.684.458 1.659.396 2.381-.061.722-.713 1.561-.793 2.281-.085.774.026 1.849.298 2.58.313.843 1.753 1.582 1.685 2.48-.043.567-.894.979-1.289 1.388-.379.394-.754 1.174-1.289 1.29-.993.215-2.266-.731-3.173-1.19-.824-.418-1.69-1.431-2.577-1.687a17.816 17.816 0 00-7.933.695c-.794.842-1.389 1.926-1.982 2.876-.635.284-1.599-.53-2.281-.396-.826.161-1.755.923-2.38 1.488-.864.782-1.332 2.561-2.379 3.075-.641.314-1.714-.259-2.38 0-.451.176-.769.852-1.19 1.091-.54.307-1.363.556-1.983.595-.541.035-1.248-.378-1.784-.297-.395.059-.988.25-1.19.595-.316.54.117 1.458.099 2.083-.016.569.261 1.55-.198 1.885-.467.34-1.348-.182-1.884-.397-.682-.273-1.371-1.105-2.082-1.289-1.211-.314-2.933.416-4.165.198-.603-.107-1.665-.221-1.883-.794-.224-.584.433-1.459.892-1.884.304-.282 1.106-.124 1.289-.496.273-.558-.454-1.379-.595-1.985a13.676 13.676 0 01-.297-1.785c-.037-.445.288-1.148 0-1.488-.351-.415-1.256-.178-1.785-.298-.634-.143-1.587-.174-2.082-.595-.426-.362-.87-1.133-.794-1.686.081-.586 1.083-.935 1.289-1.488.136-.363.218-.97 0-1.29-.504-.74-1.973-.696-2.776-1.091-.622-.307-1.542-.655-1.983-1.191-.723-.879-.667-2.617-1.289-3.571-.494-.758-1.983-1.2-2.181-2.083-.091-.405.19-1.01.496-1.29.319-.292 1.153-.032 1.388-.397.325-.506-.201-1.39-.298-1.984-.082-.507-.297-1.289-.297-1.686s.452-1.952 0-2.579c-.165-.229-.61-.294-.892-.298-.932-.014-2.093 1.195-2.975.893-.484-.166-1.11-.891-.991-1.389.147-.622 1.297-.739 1.883-.992 1.184-.51 2.828-1.029 4.066-1.389.852-.248 2.109-.246 2.875-.694.49-.287.895-.98 1.289-1.389.204-.212.415-.601.694-.694.399-.134 1.067-.074 1.388.198.524.444.201 1.704.694 2.182.466.453 1.437.517 2.082.596z" fill="#DA001A" stroke="#DA001A" stroke-width="2"/><path d="M458.458 428.679s4.494-3.692 4.918-5.975c.304-1.639-.519-4.155-1.756-5.272-1.443-1.302-4.708-.325-6.324-1.406-1.069-.715-2.291-2.238-2.459-3.514-.322-2.447 1.272-5.804 2.811-7.733 2.378-2.98.563-1.09.878-1.68 1.072-2 2.409-4.212 4.04-5.349 1.698-1.184 5.953.185 6.674-1.757.712-1.919-2.602-4.012-3.864-5.623-.783-1-1.673-2.599-2.81-3.164-1.231-.611-3.194-.298-4.567-.351-3.896-.15-9.044 1.141-12.646-.352-3.993-1.654-8.72-5.918-10.538-9.841-1.068-2.303 2.361-6.182.351-7.732-2.882-2.222-7.338 1.491-10.89.703-2.512-.557-6.587-3.847-9.133-4.217-1.649-.24-3.637 2.092-5.269 1.757-2.487-.511-2.587-5.89-6.323-5.623-1.505.107-.156-3.708-1.054-4.921-.772-1.043-2.632-.443-3.947-1.414-1.984-1.466-3.623-4.266-5.538-3.858-1.546.33-1.585 4.094-3.161 4.218-2.651.207-4.009-3.674-6.485-6.159-2.452-2.46-6.034-3.512-6.161-6.142-.088-1.794 4.045-2.783 3.864-4.569-.19-1.868-4.532-2.03-4.918-3.867-.369-1.754 2.199-3.587 2.81-5.271 1.579-4.355 3.164-10.481 3.161-15.113-.001-2.048-1.824-4.674-1.405-6.678.186-.888 1.534-1.581 1.757-2.46.208-.824-.352-2.812-.352-2.812" stroke="#fff" stroke-opacity=".75"/><path d="M463.025 420.595s3.391-.36 4.567.352c.85.515.887 2.329 1.756 2.812 1.014.562 2.848.558 3.864 0 1.205-.662 1.281-3.159 2.459-3.866 1.178-.708 3.205-.538 4.567-.352 1.222.167 2.666 1.699 3.864 1.406 1.666-.408 2.535-3.132 3.864-4.218 1.428-1.166 3.77-2.089 5.269-3.163 1.459-1.045 2.882-3.248 4.567-3.866 1.187-.435 3.07.537 4.215 0 1.491-.698 2.022-3.519 3.513-4.217.954-.448 2.518.349 3.513 0 1.273-.447 2.163-2.829 3.513-2.812 2.617.033 4.056 5.609 6.674 5.623 2.321.013 3.692-4.483 5.972-4.92 2.716-.522 6.024 3.024 8.782 2.811 1.644-.126 4.315-.924 4.918-2.46.329-.838-1.414-1.986-1.054-2.811.773-1.778 4.156-1.785 5.971-2.461 1.562-.581 4.358-.362 5.27-1.757.637-.975-1.109-2.982-.352-3.866 1.1-1.283 4.282.679 5.621-.352 1.056-.813 1.668-2.91 1.405-4.217-.221-1.099-1.572-2.127-2.459-2.812-.559-.432-1.694-.48-2.108-1.054-.871-1.21-1.283-3.547-.702-4.921.558-1.321 3.678.071 4.566-1.054.849-1.076 1.576-4.707 1.054-5.975-.521-1.267-3.508-.583-4.215-1.757-1.202-1.995.153-5.341 1.756-7.029 1.027-1.082 3.278-.035 3.864-1.406.357-.834-1.197-1.746-1.756-2.461-.599-.765-2.145-1.488-2.108-2.46.069-1.788 3.318-2.67 4.216-4.217.603-1.04.335-2.903 1.054-3.866 1.557-2.087 5.003-3.501 7.376-4.569 1.004-.452 2.806-.212 3.513-1.055 1.325-1.579.525-3.421.609-5.958.063-1.904 1.237-4.508.796-5.992-.234-.789-1.476-1.334-1.756-2.108-.287-.793-.181-1.988 0-2.812.324-1.475 1.583-3.154 2.108-4.569.267-.72.959-1.737.702-2.46-.43-1.213-2.919-1.319-3.513-2.461-.292-.561-.447-1.661 0-2.108.746-.746 2.568.467 3.513 0 2.022-1 4.818-3.733 4.567-5.975-.183-1.637-3.043-2.358-4.216-3.515-.691-.682-2.068-1.489-2.107-2.46-.057-1.433 2.692-2.437 2.81-3.866.117-1.41-1.081-3.245-2.108-4.218-2.502-2.37-7.736-2.563-10.538-4.569-1.274-.912-2.397-2.766-3.513-3.866-1.702-1.677-3.887-4.103-5.972-5.272-2.501-1.402-6.496-1.687-9.133-2.811-.998-.426-2.099-1.538-3.161-1.758-1.038-.214-2.604.895-3.513.352-1.177-.703-.781-3.255-1.757-4.218-.808-.797-2.398-1.191-3.512-1.406-1.139-.219-2.813.488-3.864 0-1.629-.755-2.1-4.239-3.865-4.569-1.298-.242-2.995 1.114-3.864 2.109-1.557 1.785-.745 6.22-2.81 7.381-2.523 1.418-4.745-.553-7.377-1.757-1.227-.562-5.158-1.543-5.62-2.812-.368-1.01.291-2.521.702-3.515.291-.702-.839-2.082-1.054-2.811-.746-2.537-3.152-1.866-5.62-2.812-.622-.239-1.572-.307-2.108-.703-.729-.539-1.15-1.786-1.756-2.46-.848-.945-2.056-2.189-3.162-2.812-1.249-.703-3.286-.762-4.566-1.406-1.752-.88-3.387-3.318-5.27-3.866-1.521-.443-3.685.299-5.269.351-1.58.053-3.786.548-5.269 0-5.33-1.966-14.402-12.301-14.402-12.301" stroke="#fff" stroke-opacity=".75"/><path d="M737.375 439.926s-2.584-2.604-3.513-3.866c-1.233-1.674-1.936-4.62-3.513-5.975-1.291-1.11-4.386-.652-5.269-2.109-.549-.905.769-2.54.351-3.514-.947-2.21-3.978-4.393-6.323-4.921-2.844-.639-6.609 2.588-9.484 2.109-2.193-.365-4.343-2.855-6.323-3.866-1.221-.623-3.456-.617-4.216-1.757-.584-.878.497-2.585 0-3.515-.717-1.341-2.789-2.286-4.215-2.812-1.693-.623-4.573.437-5.972-.702-.517-.421-.251-1.619-.703-2.109-1.086-1.182-3.64.269-4.917-.703-.537-.409-1.182-2.526-1.406-3.163-.418-1.194.263-2.98 0-4.218-.215-1.016-.453-2.749-1.405-3.163-2.964-1.29-6.955 3.428-10.187 3.515-.767.02-1.997-.091-2.459-.703-.634-.842-.574-2.631 0-3.515.566-.871 2.494-.611 3.162-1.406 1.397-1.664.265-5.448 1.756-7.029 1.213-1.286 4.64-.287 5.621-1.757.646-.969-.203-2.711-.352-3.866-.081-.637.138-1.695-.351-2.109-1.287-1.091-4.428 1.193-5.62 0-.895-.895.271-2.982 0-4.218-.324-1.474-2.132-3.059-2.108-4.569.015-.943 1.324-1.872 1.405-2.812.095-1.096-1.278-2.436-1.054-3.514.366-1.758 3.598-2.793 3.864-4.569.238-1.588-1.645-3.383-2.107-4.921-.34-1.128-.04-2.891-.703-3.866-2.582-3.798-11.105-3.898-12.997-8.083-.793-1.753 1.769-4.541 1.053-6.327-.587-1.468-3.069-.668-4.215-1.757-1.193-1.134-2.612-4.245-3.513-5.623-1.418-2.171-2.488-5.535-3.864-7.733-.917-1.465-1.998-3.735-3.513-4.569-1.019-.561-2.729-.611-3.864-.351-1.797.411-4.849 1.367-5.269 3.163-.399 1.709 2.333 3.374 3.162 4.921.869 1.623 2.375 3.784 2.459 5.623.045.999-.529 2.312-1.054 3.163-1.097 1.776-2.871 4.516-4.918 4.921-1.344.266-3.103-.957-4.215-1.758-1.82-1.308-5.151-3.394-4.918-5.623.109-1.049 2.339-1.166 2.81-2.109.377-.754.322-2.032 0-2.812-.399-.964-2.023-1.511-2.459-2.46-1.148-2.498-.898-6.395-.703-9.138.069-.969.716-2.191.703-3.163-.012-.869 1.261-2.146.702-2.812-1.335-1.59-6.7-1.007-7.728-2.811-.893-1.569-.676-4.812.703-5.975 1.533-1.293 5.22 1.732 6.674.351.765-.725.585-2.637 0-3.514-1.321-1.983-2.649-1.225-5.47-1.979-2.047-.547-5.544-2.722-7.176-3.293-1.448-.507-3.407-1.139-4.918-1.406-1.456-.258-3.44.633-4.918.703-1.921.09-4.406-.159-6.323 0-1.05.087-2.629-.575-3.513 0-1.74 1.131-1.122 5.117-2.81 6.326-.946.678-2.71.507-3.864.352-.892-.121-1.919-.928-2.81-1.055-1.361-.193-3.194.299-4.567.352-.737.028-1.765-.252-2.459 0-1.548.56-4.215 3.514-4.215 3.514" stroke="#fff" stroke-opacity=".75"/><path d="M674.144 359.441s1.911-2.847 3.162-3.515c1.315-.701 3.436-.538 4.918-.703 2.626-.292 6.495.623 8.782-.703 2.099-1.217 3.017-4.81 4.566-6.677.952-1.148 3.274-2.043 3.513-3.515.226-1.396-1.617-2.891-2.108-4.218-.301-.815-.919-1.969-.702-2.811.501-1.951 2.613-5.407 4.566-4.921 1.588.396.108 4.275 1.406 5.272 1.337 1.028 3.972-.357 5.62 0 2.489.54 5.222 3.969 7.728 3.515 1.76-.319 3.531-2.565 4.216-4.218.282-.682-.495-1.912 0-2.46 2.057-2.283 7.118-.896 10.187-1.054 1.578-.082 3.855.707 5.269 0 .942-.472 1.999-1.763 2.108-2.812.18-1.736-2.667-3.539-2.459-5.272.08-.67.797-1.465 1.405-1.757 1.139-.548 2.984.29 4.215 0 .917-.217 1.875-1.524 2.81-1.406 2.076.261 3.256 4.002 5.27 4.569 1.851.521 4.802.123 6.323-1.055 1.641-1.271 1.053-2.843 1.053-4.92 0-1.038.09-3.564.352-4.569.265-1.02 1.883-1.607 2.81-2.109 1.085-.587 2.956-.57 3.864-1.406 1.111-1.022.628-4.271 2.108-4.569 1.682-.338 2.5 3.863 4.215 3.866 1.567.004 2.963-3.287 3.864-4.569 1.087-1.545 3.64-1.05 5.269-.703 1.678.358 2.65 3.165 4.216 3.867.966.432.346 2.448 1.405 2.46 4.122.047 11.716-3.667 15.807-3.163.993.122 2.238.671 3.162 1.054 1.742.722 3.874 2.1 5.62 2.812 2.562 1.043 6.016 2.796 8.782 2.811 1.434.008 3.209-1.865 4.567-1.405.859.29 1.248 1.709 1.757 2.46.984 1.452 2.039 3.572 3.161 4.92 1.479 1.777 4.702 3.15 5.621 5.272.418.968-.578 2.633 0 3.515 1.449 2.211 8.079 3.515 8.079 3.515M446.515 190.036s2.72.567 3.864.351c2.315-.437 5.458-1.754 7.025-3.514.821-.921.438-3.1 1.406-3.866 1.414-1.12 4.183-.94 5.971-.703 1.688.224 3.61 1.727 5.27 2.109 2.883.663 6.965 1.417 9.835.703 1.93-.48 4.003-2.358 5.621-3.515 1.768-1.264 3.524-4 5.62-4.569 1.338-.363 3.622-.311 4.567.703.866.928-.221 3.084.351 4.217.505 1.001 1.692 2.405 2.811 2.461 1.81.089 3.464-2.431 4.917-3.515.964-.719 2.012-2.111 3.162-2.46 1.415-.43 3.488-.028 4.918.351 2.825.75 7.132 1.805 8.782 4.218.776 1.134-.175 3.299.351 4.569.372.898 1.247 2.01 2.108 2.46.939.49 2.599-.184 3.513.351 1.11.651 1.44 2.73 2.459 3.515 1.69 1.303 4.984 1.157 6.674 2.46 1.019.786 1.478 2.683 2.459 3.515 2.05 1.738 5.43 3.417 8.079 3.866 1.882.319 3.844-2.076 5.751-2.134 2.11-.064 5.488 1.73 7.598 1.783.737.018.136-4.446.743-4.866 1.48-1.027 3.502 1.015 3.824-.758.225-1.245-.673-3.146 0-4.217 1.804-2.876 7.195-3.318 10.187-4.921 2.374-1.272 6.393-2.229 7.728-4.569.418-.732-.535-2.159 0-2.812.681-.831 2.46-.92 3.513-.702 1.632.337 3.033 2.511 4.566 3.163 1.979.84 7.026 1.406 7.026 1.406M632.043 172.9s-.432 3.446-.858 4.866c-.994 3.316-3.425 7.327-4.577 10.591-.534 1.512-1.091 3.584-1.431 5.152-.35 1.614-.792 3.788-.858 5.438-.045 1.119.44 2.612.286 3.721-.239 1.723-.944 4.059-2.002 5.439-1.088 1.417-3.147 2.941-4.864 3.435-1.487.427-3.988-1.31-5.149-.287-.904.797-.48 2.818-.286 4.008.179 1.101 1.066 2.379 1.43 3.434.841 2.443 1.871 5.752 2.289 8.301.25 1.528-.111 3.656.286 5.152.345 1.299 1.402 2.805 2.002 4.008.258.515.98 1.154.859 1.717-.373 1.73-3.858 2.104-4.578 3.721-.699 1.571-.318 4.115.286 5.725.73 1.946 3.118 3.722 4.292 5.438.955 1.398 2.174 3.318 2.86 4.866.583 1.316 1.273 3.149 1.431 4.58.113 1.027-.717 2.494-.286 3.435.486 1.061 2.083 1.809 3.147 2.289.721.326 2.079-.045 2.574.573 1.236 1.54.728 4.747 0 6.583-.738 1.864-3.714 3.057-4.577 4.866-.821 1.721-.841 4.391-.858 6.297-.014 1.47.233 3.436.572 4.866.232.978 1.144 3.149 1.144 3.149" stroke="#fff" stroke-opacity=".75"/><path d="M706.711 161.737s-.284 3.425-.572 4.866c-.246 1.226-.114 3.3-1.144 4.007-.782.537-2.199-.295-3.147-.286-.778.008-1.921-.134-2.575.286-1.264.812-1.303 3.495-2.575 4.294-.803.504-2.265-.062-3.147.286-.91.359-1.649 1.686-2.575 2.004-.811.278-2.093-.384-2.86 0-1.92.96-2.886 4.103-4.292 5.724-.556.642-1.727 1.2-2.002 2.004-.449 1.31 1.133 3.314.572 4.58-.425.958-2.377 1.074-2.861 2.003-.515.99-.103 2.61 0 3.721.129 1.392.729 3.188.858 4.58.088.941.432 2.309 0 3.149-1.351 2.627-6.551 3.155-8.01 5.724-.511.899-.243 2.402-.286 3.435-.05 1.201-.39 2.87 0 4.007.317.926 1.392 1.811 2.002 2.576.761.954 2.44 1.936 2.575 3.149.128 1.145-.979 2.55-1.716 3.435-.825.989-3.086 1.336-3.433 2.576-.25.89 1.103 1.938 1.144 2.862.04.896-.373 2.108-.858 2.862-.494.768-2.156 1.101-2.289 2.004-.355 2.404 2.077 5.871 4.291 6.87.952.429 2.533-.044 3.433-.573.474-.278.615-1.576 1.145-1.431 1.171.32.578 2.793.572 4.007-.006 1.13-1.24 2.81-.572 3.721.667.911 2.615.334 3.719.573 2.178.471 4.991 1.461 7.152 2.003 1.535.386 3.567 1.119 5.149 1.145 1.397.024 3.258-1.316 4.578-.858 1.724.597 3.052 3.023 4.005 4.579.724 1.183.708 3.342 1.716 4.294.988.931 2.98 1.082 4.292 1.431 1.269.337 3.026.508 4.291.859 1.23.34 2.737 1.568 4.005 1.431 1.61-.174 2.975-2.63 4.577-2.862 1.587-.23 2.41 1.649 3.72 2.576.855.605 2.444 1.37 3.433 1.717 1.435.503 3.35-1.277 4.863-1.431 1.028-.105 2.433.025 3.433.286 1.004.262 2.4.711 3.147 1.431.691.666 1.413 1.903 1.43 2.863.02 1.037-1.36 2.113-1.43 3.148-.121 1.789.691 4.254 1.716 5.725.737 1.056 2.147 2.609 3.433 2.576.671-.017 1.102-1.164 1.717-1.431.635-.276 1.645-.541 2.289-.287 1.247.493 2.049 2.368 2.861 3.435.821 1.081 1.674 2.705 2.574 3.721 2.056 2.322 5.942 4.331 7.725 6.87.796 1.135 1.733 2.906 1.716 4.293-.008.654-.776 1.355-.858 2.004-.142 1.12-.285 2.986.572 3.721.456.391 1.181-1.158 1.716-1.431 1.041-.53 1.408-1.723 2.575-1.718 1.477.007 2.051 2.772 2.861 4.008.823 1.256 2.575 4.293 2.575 4.293" stroke="#fff" stroke-opacity=".75"/><path d="M895.741 306.773c-.36-.094-.597-1.741-.582-2.048.293-1.281 1.7-1.731 1.841-3.064-.63-1.893-2.297-3.191-2.863-4.998-.054-.172-1.15-4.841-1.173-5.086-.074-.731.061-1.509 0-2.242-.264-3.098-1.241-6.3-1.874-9.351-.267-1.278-.129-3.105-.961-4.169-1.086-.879-2.506-1.422-3.819-1.878-1.621.235-3.518 1.6-5.047 1.426-4.484-2.001-2.611-4.053-4.744-5.825l-1.45-.372c-.378.38-1.153.784-1.696.818a20.113 20.113 0 01-1.432-.945l-2.306-.066c.184 1.317.398 2.638.547 3.96l-1.352-.438-.645-.932c-.732-1.063-1.611-4.871-1.734-6.18-.132-1.403.511-1.383-.055-3.196l-.64-2.084c-1.551-5.019-3.59-9.632-6.473-14.026-.03-.042-.145-1.406-.16-1.536 1.162-1.782 2.572-3.319 3.769-5.069l-.162-1.1-1.061-.575-2.491.53-.499-.436c-.739-1.106 1.167-7.225 1.437-8.335l-.896-2.334c-.664-.186-1.643-.091-2.293.08l-1.108-1.009-.673.26c-.13 1.204-.664 3-1.434 3.969-5.83 1.163-5.572-.153-10.289-2.714-1.848-1.006-3.548-1.685-5.264-2.916-1.106-.048-2.279-.01-3.369-.188-3.412-.563-2.836.109-4.962-1.888l-2.529-.232-.176.696c.816.733 1.38 1.533 2.056 2.364-2.104 1.051-2.102 1.838-3.937 2.43-1.703-.945-3.372-1.957-4.828-3.269.035-1.627-.23-4.188-.916-5.687-1.542-.651-4.275-1.353-5.865-.414l-1.588-.852c-1.204-1.827.007-4.203-1.247-5.941-1.114-.724-2.322-1.268-3.686-.924-.928.715-1.77 1.179-2.13 2.386l.536.813-1.099.833-.935-.337-.523-.667-.933-.336-.719-1.083-1.147.408c-1.848-.759-1.877-1.004-3.403-2.395-.597-1.265.089-2.71 0-4.049-.556-.337-1.774-.745-1.951-1.386.034-.581.094-1.164.105-1.746-1.7.013-4.698-2.967-5.983-4.004-1.525.023-3.161.424-4.324 1.463-.303 1.009-.76 2.898-.602 3.971l.821.636c1.37-.954 2.636-1.352 4.352-1.182.54 1.768.938 4.83.13 6.494-2.394.466-4.142-1.575-5.983-2.695l-.74.078c-.927 1.142-8.047 6.537-9.203 7.189-.915.515-2.083 1.06-3.166 1.06-1.063 0-2.105.331-3.102.331-1.838 0-2.067-.616-3.179-1.105-1.849-.813-3.261-.826-4.717-2.502-1.254-1.444-.356-1.943-2.498-2.932l-.543-1.18-1.932-.968c-.793-1.077-.311-1.576-.5-2.241-.14-.499-.624-.991-.757-1.485-.063-.23.071-.968.021-1.238-.21-1.154-1.058-2.517-1.792-3.401l.007-.866-.62-.586-.331-1.474-.752-.53c-.675-1.544-1.415-2.932-1.611-4.618-1.974-.42-3.837-1.341-5.397-2.594l-1.925.209-.066.734-.541.491-2.009-.502c-.924-.778-2.218-2.547-2.391-3.789-1.644-.892-6.38-3.724-6.701-5.92l.274-1.475c1.829-.601 3.985-.821 5.894-.938.987-1.325 3.22-.782 4.669-2.392.746.37 1.794.594 2.623.581l1.562-.753c.439-.503.395-2.734 1.18-4.03l1.023-.253c.676.306 1.455.642 2.193.772l2.454-.845c.123-1.689.859-5.66-.206-6.924-2.226-.93-3.054-2.048-3.521-4.391.446-1.572 1.055-3.124 1.877-4.543.44-.759 1.251-1.222 1.402-2.177l-.595-1.236-2.279-.188c-.942-2.374-3.897-3.39-5.973-4.705l-.675.652.834 4.539c-1.464 1.725-3.314 3.039-4.53 4.98-.951.245-1.989.439-2.917.751-1.157.388-2.315 1.524-3.595 1.407-.652-.614-1.261-1.375-1.754-2.12-4.894 1.025-5.241 1.776-10.798.326-2.336.507-4.53 1.025-6.758 1.33a54.42 54.42 0 00-1.436 3.054c-.665.151-2.041.303-2.704.016.076-1.147-.125-2.639-.6-3.694l-1.718-.53-1.135.556-.384-.68c.777-.444 1.448-.796 2.271-1.121l-.089-.718-.515-.518c-.782-.494-2.195.232-2.95.481-1.012.334-2.878.098-3.643.987-.081.99.082 2.371.551 3.265l-.245.463-.777-.2-.566-.95-1.425-.563-.515-2.983c.717-1.567 1.185-3.175 1.669-4.82l-.568-.95-1.519-.115-1.163-.884.077-.586c1.157-.04 2.435-.321 3.53-.69-.366-.481-1.073-.932-1.643-1.116-1.844.912-3.95 1.534-5.917 2.12-3.57.254-11.939-7.51-14.865-10.459l.06-.734.934-.978.927.188-.81-1.647c-.885.167-2.239.206-2.902.912l-1.131-.591-1.364 1.171-.813-.486-1.005.408-2.077-2.075-1.966-.061c-.293-.405-.235-1.303-.068-1.734l-1.072-1.32c-1.988.531-4.527.849-6.136-.735l-1.563.763c-.39-.037-2.232-2.294-2.76-2.717-1.129-.067-3.055.116-4.11-.242-3.548-1.203-7.146-2.764-10.167-5.026-1.131-.102-3.145.42-3.908 1.337-.789 2.04-1.972 3.948-3.016 5.866.901 1.391 4.631 3.714 6.203 4.766 1.877 3.233-.556 4.769 2.963 8.918a14.746 14.746 0 00-.082 2.91l1.817 2.391c2.221.566 8 2.423 8.877 4.596l.64 3.838c-.179.825-.913 2.428-1.751 2.815.545 1.786 1.596 3.645 2.62 5.191a20.92 20.92 0 01-1.21 2.319l-1.744.491c-1.994-1.133-2.394-3.554-3.544-5.373-.746.154-1.72.885-2.226 1.424l.368 1.689c-.446.525-1.928 1.019-2.559 1.175-2.639-.553-3.973-.989-6.534.636-.408 1.672-1.102 3.498-2.58 4.512l-2.033-.624c-.165-.62-.813-1.607-1.444-1.854-.916.504-1.954 1.336-2.571 2.192l-.374 1.783-2.07.248c-.4.69-1.092 1.591-1.351 2.335-.39 1.127-.548 2.533-1.033 3.605-.706 1.554-2.378 3.602-3.75 4.656l-2.384.143a132.215 132.215 0 01-3.757 6.837c-1.774.515-2.442.399-4.235.122-1.414-.219-2.528-.991-3.53-2.064l-2.397.004c-1.399-1.394-3.005-2.67-3.619-4.627l-3.164-1.204-.485-.675.702-1.44-.209-.576c-.617-.392-3.021-2.083-3.08-2.877.866-2.433-.255-2.978-.49-4.71-.096-.709.212-2.927.678-3.595l-.935-1.546.237-.851c.076-1.026-2.22-2.858-2.982-3.622h-.857l-1.025-.668-1.339-3.38c-2.626-.576-2.352-2.089-3.777-3.854-.485-.604-1.319-.922-1.864-1.63-.698-2.305-.793-1.544-1.976-3.224-.736-1.045-1.361-2.293-2.017-3.396-.038-.066-.642-.53-.736-.607-1.97-.117-3.939-.02-5.902-.242-.987-1.441-2.636-3.138-3.352-4.656-.8-1.696.471-3.736-.819-5.986-1.481-1.082-4.937-1.276-6.643-1.044l-3.566 2.629c-.309-.652-1.203-1.702-1.931-1.926l-.451-1.105.385-.485-1.109-1.452-1.379-.109.357-1.789-.961-1.476-1.376-.11-.961.701-1.247-.276c-.456-3.991-1.918-2.889-2.422-6.505.295-.423.609-.839.882-1.276l1.359-.027 1.2 1.004 1.357-.028.346-.767-.843-.618-.515-1.529.9-1.133 1.529.101.309-1.056.95.31.238-.464-.543-.657c.472-.379 1.491-.512 2.064-.409l.376-1.641 1.72.359c1.134-.361 3.296-1.284 4.079-2.259l-.25-.69-.991-.601.16-1.032 1.278-.596c1.035 1.057 3.323 2.093 4.825 1.999 2.36-.617 2.721-3.978 5.631-5.351.205-.673.462-2.395.034-3.049.8-.698 1.455-1.473 2.111-2.296-.446-1.016-.709-2.277-.765-3.38l.537-.504 1.252.277c.943-.474 2.799-.906 3.86-.63.321-.73-.035-1.754-.324-2.373-1.777-3.795-3.691-4.076-6.245-6.81-1.741-1.866-2.575-4.23-5.135-5.303l-.954-2.491c-4.073-2.743-5.045-.084-8.603-.652-1.667-1.344-4.247-2.233-6.396-2.236-1.556 1.152-2.061 4.824-2.108 6.654l-1.038 1.293c-.985-.12-2.605.673-3.312 1.292-1.476-1.89-4.268-6.328-7.046-5.77l-1.524-1.11c-1.145-.034-2.257-.06-3.389-.286-.152.245-1.251 2.1-1.358 2.207-.683.679-1.879 1.314-2.447 2.055-1.026 1.337-1.102 5.222-2.063 5.782l-1.295-.558-1.905 1.55c-1.297-.375-2.64-.3-3.949-.093a10.122 10.122 0 01-1.516-1.619c1.321-1.727 1.33-4.399 1.601-6.448.319-2.419-1.01-5.715-1.887-8.062-1.986-1.676-4.728-.957-6.895-.094-.572.227-1.091.762-1.663.99-.212.083-.996.095-1.269.17-1.124.31-2.251.745-3.36 1.11l-.77 1.098-2.608-.584c.375-2.389-.9-5.058-1.545-7.283-1.367-.386-2.309-2.28-2.914-3.413.796-3.1-2.417-6.962-4.423-5.147-.166.741-1.019 1.683-1.657 2.049-.584.14-1.591-.076-2.052-.47-1.476-.069-2.993.878-3.865 2.017l-1.571-.823-3.382.155c-.37-.21-2.099-1.044-2.165-1.44l.212-1.305c-1.078-1.276-5.129-2.109-6.75-2.064-3.3-3.645-4.952-3.326-9.346-2.817-1.018-1.144-4.006-.785-5.244-.326l-1.611-2.06c-1.013-.69-1.542 1.227-4.879-.83-.505-.312-1.207-.82-1.42-1.445l-1.375-.518-.826-2.247c-1.44-.503-2.389.73-3.37 1.59-.061 2.72-2.034 4.046-3.533 6.007-1.106-.298-1.696-.431-2.613-1.027-.643-1.46-.135-2.845-1.349-4.224 1.318-3.245.752-6.828-1.473-9.5-.054-.067-.217-.126-.294-.17-1.743-1.01-3.538-2.32-5.564-2.635-.975-2.04-2.612-4.093-4.158-5.72.626-1.292-1.003-4.326-1.449-5.473l.544-2.866c1.132-1.238 2.321-2.371 3.036-3.922-1.968-1.88-2.317-1.2-2.31-3.96l-.688-1.088-2.917-.182-.875-.734-.678-2.733-5.302 1.937-.173 1.033-.666.708c-.686-.093-1.736-.481-2.243-.978.003-2.322.145-4.493-.291-6.758-.843.135-3.52.71-4.125 1.38l-1.03 2.544 1.127 1.082-1.009.757c-.908-.275-4.535-1.139-5.033-1.867l-.19-.846 1.164-1.661-.525-.42-2.922-.176-2.321-1.579-.595 1.768c-.922.312-1.838.654-2.768.939l-.439-.779c.34-.47-.061-1.575-.18-2.127l-.518-.514-.051-.778-1.747 1.32-.196 1.63c-.184.352-2.913.831-3.194.894l-2.152 3.931 1.138 1.354c.608.154 1.623-.228 2.054-.648l1.817.144c.097 1.065 1.128 2.718 1.75 3.53l-1.051.712c-.476.412.306 3.456.421 4.086-1.581 2.078-2.053 3.166-4.471 4.077l.295 1.175c.689.532 1.371 1.08 2.075 1.595l.222.575-.861 2.374c.157.858.836 3.579.583 4.456-.267.214-.509.465-.759.695l-2.012.333c-.581.095-1.205.754-1.787.86-1.43.264-6.677-1.955-8.764-2.517l-.758 1.326c-.621-.058-1.545-.63-1.832-1.199l-1.485-.431c-.937 3.016-3.772 2.18-5.852 1.077M362.512 37.854c-.163 2.557-2.304 3.757-2.85 5.97-.278 1.12-.377 2.403-.556 3.55-.012.07-.318.601-.371.695l-1.372-.6c-2.708 1.466-3.449-.621-6.365-1.028l-1.408 1-1.104-.022-.156-1.16.236-.388c-.105-.447-.589-1.145-1.053-1.297l-2.445-.028c-2.024-1.663-3.503-2.785-6.119-2.364-.81-1.202-2.751-1.006-3.806-2.08.173-1.288.663-1.713 1.073-2.68 1.031-2.426.742-4.838 2.771-6.665 0 0 .345-.823.344-.88l-.134-3.49c-.136-.587-1.321-1.208-1.816-1.374l-.798 1.518c-2.087.72-6.228 3.03-8.081 2.104l-.81-.95.013-.955c1.363-2.19 3.928-5.823 3.925-8.383l.461-.227-.303-.305.023-2.331c-1.836-1.424-2.99-3.189-4.087-5.214-.771.362-2.933 1.309-3.806 1.264l-.301-.76.421-.785-.115-.652-.538-.37c-.976.264-3.257.18-3.912-.807l-.228-1.441 1.166-2.214-.642-1.619-.9-.133c-.804 1.376-.48 3.406-1.469 4.518l-1.157-.028-1.566-1.525c-.918-.156-1.377-.217-2.254-.089l-2.497 2.083c-2.591.84-4.813.428-6.56-1.745.086-.539-.158-1.393-.476-1.828l-2.313-.867c-.698.283-2.012 1.037-2.733.734-.787-1.101-2.031-2.242-3.206-2.916l-1.158.022-1.084.673c-.285 1.085-1.345 2.46-2.179 3.17l.512 1.967-.643 1.037.051 1.332c-.82.192-2.054.777-2.613 1.435l.995 1.469-1.527 1.63.685 1.252c1.112.09 1.874.66 2.759 1.233l.074.646c1.083.03 2.852-.902 3.679-1.513l1.631.066.403 1.597-.637.53c-.692-.032-1.829.281-2.348.773l.217 1.122 1.179.663.077 1.513c1.078.55 2.225.008 3.19.314 3.181 1.006.601 1.362 5.931 1.834l1.558.137c2.007.925.643 3.98-.421 5.118l-.051 2.236-.583.9c-.791.63-2.991.444-3.867.216l-.472.774c-1.797.823-3.235.512-5.037.789-1.125.172-2.33 1.103-3.506.431l-1.703-1.579c-1.308.092-1.861.868-2.918 1.22-.171.056-1.668.21-1.936.242-.234.03-.887.62-1.108.79l.56.601c.25 1.488-2.34 5.023-3.722 5.578-1.655.667-4.338 1.126-6.167 1.098-1.679 1.385-3.915 2.71-5.937 3.495-.191.074-.831-.031-1.012.044l-2.197 1.298c-.854.72-1.476 2.255-2.667 2.535-.515.12-1.659-.112-2.116-.387-.787-.057-2.402.963-2.978 1.408-.52.01-1.373-.792-1.656-1.16l-1.737.11-.802-1.537c-1.55.126-5.16 2.185-6.104 3.402-.175.227-.463 1.309-.642 1.54-1.491 1.948-3.61 1.051-5.611.67l-.533-.101c-.425 1.725-.852 2.858-1.95 4.367l.316 1.783 1.384 1.454.15.877c-.311.67-1.106 1.773-1.796 2.12-1.028.05-2.463-.128-3.386-.635l-.372 2.248-1.092.86-3.104.397-2.371-1.635c-5.556.042-4.744-2.014-8.666.995-.514.094-1.348-.328-1.708-.657l-.723.07c-.887.544-1.199 1.254-1.602 2.138l-1.081.767c-.782-.017-1.467-.18-2.209-.382-.952-1.091-1.841-1.666-3.101-2.512-1.279-.048-5.101 1.79-5.233 3.092-1.308.386-2.626.745-3.939 1.11l-1.255-.388-.983.275-.533-.408c-.709.24-1.882.148-2.575-.094l-1.757.894c-.596 1.17-.244.851-1.249 1.536l-.117.718c.416.474 1.777 2.186 1.78 2.854l-.655 2.314.3.85-1.563-.138-.397.188-2.116 3.103.146.47.537.363.785-.204.148.927-.662 1.447-2.185.861c-.62 1.635-2.06 2.045-3.072 3.197-.788.894-1.491 2.192-2.167 3.188-.851-.34-2.116-1.04-2.695-1.783l-1.966-.354c-.037-.075-.241-.54-.28-.575-.579-.497-1.468-1.1-1.945-1.674-.502-.603-.62-1.655-1.878-2.871-.775-.753-1.885-1.332-2.446-2.256l-.466-.765c.031 1.101-.102 3.964.512 4.698-.652.331-1.399 1.268-1.614 1.96-.659.437-2.472 1.417-3.321 1.315l-.717 1.032-1.113.133c-.785 1.054-.691 3.062-.25 4.223l-.551.823c-.579.356-2.017.377-2.653.321l-.86.519-1.038-.09-1.126-2.788-.401-.31-2.653-.176-2.285 3.05.345.893c.013.427-1.999 1.907-2.376 2.22l.727 2.248a6.997 6.997 0 01-.717 1.082l.122.741c-.861 1.44-2.363 4.428-3.648 5.489l.331 1.076-.441.647c-2.388.787-4.682-.892-6.992-.038-.653-2.146.021-1.626-1.937-2.303-2.44 2.595-5.428 4.361-9.165 3.485l-1.365-1.75-1.804-.607c-.215 1.898-.209 3.023-1.185 4.787l.199 1.52c-.362.789-.745 1.559-1.023 2.379l.77 3.12-.615 1.59-3.543 2.535-.494 1.745c-.103.088-1.375 1.191-1.433 1.204-1.265.308-4.653.754-5.351 1.989l-3.597-2.895-1.268-.143c-1.761-1.544-8.377-6.266-10.844-7.02.142 1.103-1.558 3.306-2.243 4.014l-1.012-2.083-.567-.049c-2.699 2.02-5.124 1.538-7.673 4.356l-3.413 3.76.272 1.255-.732.811c-1.374-.581-3.074-2.627-4.196-3.743-1.463 1.475-2.853 1.539-4.844 1.175l-.836-.795-1.664.01-2.16 2.026-2.186-.53c-.826.827-2.395 1.525-3.476 1.879l-1.299-.376-.65.409-1.446-.338-3.403 1.612c.115 1.315-.905 2.705-2.108 3.169-.677 1.368.446 4.402-.217 5.048l-.785.304-1.961-.375c-1.19.622-2.91 1.656-3.814 2.683l.108 1.601-.68.767c-1.845-.356-2.724.436-4.39.41l-.244 2.535c-.055.57.755 1.284.108 3.378l-.948.614c-.67-.11-1.739.204-2.275.608l-.4.884c-.571.271-1.377.996-1.593 1.613l.046 1.194c-.574.286-1.03 1.379-1.1 1.965l.916 2.761-.388 1.38c-.624-.275-1.838-.547-2.525-.364l-1.084 1.147.887 3.099c-.475.698-.97 1.381-1.48 2.054l.086.741 1.442 1.47c-.581 1.627-1.277 3.176-2.02 4.734l-3.754-.911-.525-1.773c-.643-.252-1.279-1.282-1.409-1.921l1.409-1.722-.961-1.619a6.813 6.813 0 001.283-1.911c-.898-1.516-2.53-1.363-3.748-2.229-1.023-.729-2.12-2.063-3.036-2.955l1.03-1.11c.359.414 1.24.8 1.792.718l.509-.464-1.302-3.331c-2.108.061-4.484.428-6.511-.281l-.665-1.138.097-1.911-.618-1.182.253-2.717-1.529-.563-.123-2.563-1.03-.166c-1.543 1.297-4.191-.723-6.825 1.348l-2.08-.056" stroke="#fff" stroke-width="2" stroke-miterlimit="3.86" stroke-linejoin="round"/><path d="M3.652 148.94l2.01 2.237-.789 1.628c.196.962 1.211 2.225 2.023 2.74l.337 1.121c-.796.532-1.996 1.497-2.45 2.374l-.813.127-.456-.216-1.262.459-.421.519.505.856-1.328 1.319.99.663.723-.176 1.3 2.188c2.225.303 3.427.871 5.583 1.799l1.492 3.981.534-.828.523-.01c2.3 2.583 3.863 4.402 4.336 8.151l.72.458.226.788c-.3 1.296-1.484 3.051-2.562 3.828-.377 1.88.678 5.313 1.402 6.985l.934.751 1.874.133.167 1.513 1.795-.049c1.22.917 1.201 1.055 2.03 2.423l1.221.636.495.943-1.576 2.711c2.305.789 6.246.652 7.79 1.569-.043 1.446.74 2.386 1.566 3.441l.767-.762.93.16c.742.494 1.47 1.499 1.793 2.319l1.601.618.517 1.177 1.032.077.404.807 1.048-.155c.935.932 2.469 1.944 3.777 2.241l.905-.162.805.516.016 1.004-.833 1.034.86.971 3.96-1.845c.09.864.857 2.1 1.578 2.579l1.166.139.756 1.149c.09.882-.053 2.611-.6 3.373l-1.393.347c-.546.376-.89 1.507-.874 2.126l.793 1.834.95.436.773-.258.377.619c1.966.938 4.44 1.43 6.57 1.778.071.09.583.707.596.772.148.685.428 1.539.479 2.227.237 3.222-3.115 3.739-3.622 5.285-.517 1.582-.55 3.162-1.584 4.572l-1.65.651-.378 3.573c-.492-.515-2.015-.711-2.664-.701-.836 1.373-.55 3.032-.505 4.56l-.854 1.305.61 4.694-.216.397-8.144 4.672c-.781.448-.668 3.121-.345 3.806.355.751 1.043 1.591 1.505 2.298l1.37.425c.363 1.149 1.783 4.84 2.935 5.456 1.629.049 2.754 1.174 4.378 1.339l.691 1.325c1.409.872 2.864.941 4.45.472l.12 1.973c.44.419 1.254 1.522 1.226 2.187l-.596 1.049.171 1.818-1.346 1.193.357.8.874.162c.262.55-.252 1.75-.546 2.193l.263.749.785.105 1.099 1.447 1.777-.637 1.032.537-.21.849c.5 1.181.917 2.18.698 3.515l1.679 1.727c.344 1.386-.908 2.804-.298 5.765.14.679 1.626 2.901 2.31 3.37l-.396.878c1.142 1.705 4.242 2.184 6.07 2.115l1.17 1.64c-1.208 3.373.93 5.013.202 7.217l-1.629 1.148 2.597 2.983 1.028 6.187c1.5 1.251 4.66 1.913 6.549 1.794l1.614 2.364c1.35.091 3.668 1.887 4.56 2.779.6 1.907.641 2.985.738 5.069.708.545 2.36 1.941 2.69 2.815l-.212 2.032.451.675c2.319.864 6.14.668 8.515.324l1.022 1.084c1.068-.098 2.842.475 3.201 1.626l.887-1.816-.611-1.442.321-1.022 3.602.752.727.695 2.778.079c4.864.135 6.305 5.054 9.688 7.703l2.193.365c1.575 3.095-.816 4.493.066 6.755l.711.878 2.345.242.813.75c.061.633.485 2.216 1.122 2.557l2.193.372c.407.343.789.945 1.034 1.406l-.31 1.437.339.894c.639.219 2.728 1.141 2.936 1.889.006 1.152-.173 2.54.571 3.513.901.535 2.147 1.106 2.948 1.755 1.164.945 2.719 3.892 4.525 3.76l.58.779c.131 1.32-.257 3.011-.744 4.224l.372 1.034a30.19 30.19 0 014.783 3.775c.838.556 1.57 1.052 2.167 1.249 2.152.713 6.082-1.333 7.334-.866l7.826 6.433.501 1.641c1.044.135 3.969 3.334 4.098 4.649l1.889.58 1.183.652.103.418-.868.884-.106.675.917 1.08c.189.736.684 3.408.136 4.071l.805 1.259-.438 4.291 1.619 1.47.772.115.627 1.199 1.267.294c.41.807 2.708 1.785 3.495 2.048.24.489.885 1.334 1.423 1.541l.693.017 1.838 2.038 1.369.125.913-.922-.563-2.833.497-1.413c.892.171 2.534-.411 3.301-.795l1.726 1.254c2.143.491.545-1.266 3.283-.11l.653-.579.825.077c.761.655 1.028.846 1.452 1.684l-.179.937c.512.869.871 1.533 1.639 2.191.747-.566 2.286-.859 3.192-.65l-1.004 1.368c1.903 1.813 4.019 8.673 4.718 9.014l1.018-.043c.644.424.938 2.005.942 2.688l.511.415c.637-.01 2.816-.186 3.247-.751.709.227 1.807.733 2.524.558l1.678-1.669.423 1.365c.797.439 1.899 2.079 2.353 2.822l-.316 1.386 2.403 5.11c1.193.77.781.573 2.414.726.373.616 1.112 1.264 1.385 1.868.742 1.653.301 2.307 2.263 4.136-.06.978-.578 2.833-1.351 3.525 1.158 2.318 2.502 2.225 4.989 2.071M642.163 486.58l-.902-.183-.926-1.412c-.228-2.631 1.783-8.324-.891-10.143.591-.942.851-2.657.795-3.739-.576-.668-2.052-3.587-2.473-3.809l-1.277.088-2.644-.023c-.897.032-1.764.519-2.62.552-.796.033-1.742-.3-2.521-.216-1.383.152-4.608 1.709-5.035 1.684l-1.578-1.567-2.097.305-1.055-.443c-.438-.58-1.025-1.487-1.18-2.214-.668.029-1.81-.544-2.343-.891l-.627-1.004-2.526-.371c-1.051.292-2.368 1.449-3.041 2.259-.671-.048-1.643-1.52-1.895-2.032.528-1.005.762-3.193.841-4.295-.979-3.602-2.373-4.152-5.417-5.424l-1.848 1.465c-.566.1-2.674-.073-3.146-.487-.556-.489-1.34-1.364-1.96-1.722-.309-.178-1.999-.545-2.229-.703-1.332-.901-2.699-3.217-4.377-3.477l-2.268 2.456-3.238.713c-1.19.261-3.21-1.574-5.785-.143-.922 2.349-2.172 4.978-3.652 7.034-.396.555-1.069.98-1.485 1.525-.507.661-.822 1.554-1.351 2.192-.616.745-1.96 1.525-2.748 2.137-.101.078-.826.358-.988.425-1.122-.537-1.75-1.544-2.512-2.486l-.867-.179-1.983 2.28c-.074.01-.489.09-.537.071-.993-.377-5.438-2.136-6.343-2.126-1.196.013-2.601.687-3.816.8-1.55.149-4.059-.482-5.769-.533-.315-.01-.505.048-.814-.025-1.063-.245-1.983-1.243-3.189-1.152-2.901.216-6.234.77-9.14.379-2.093-.28-7.714-2.567-9.442-3.611-1.04-.63-4.438-3.686-5.129-4.888v.95c-.875-.082-1.775-1.679-2.399-2.221-1.375-1.195-2.96-2.276-4.41-3.391l.005-1.143 1.07-1.512c-.798-.858-1.2-1.031-2.251-1.52l-.614 1.939-1.716-1.038.354-2.06-.668-.176-.553-.701-2.36.757-.431-1.339-2.086-.673-1.292-1.544c-.824.257-3.747-.695-3.831-1.74l1.141-1-.188-.714-1.096-.822-1.66.349c-.879-.487-5.939-.614-6.608-.675-.601 1.533-1.932 3.333-3.257 4.314-1.563-.221-4.872-.716-6.274-1.49l-2.792.573c-.303-.733-4.069-4.572-5.055-5.412l-2.535-.396-1.511-1.966c-1.66-.267-3.651-.135-5.29.189-3.173-2.18-4.915-2.504-8.719-3.829-1.221-1.016-.996-3.283-1.881-4.704l-3.324-1.17-.485-1.339-1.327 1.034-.547-.066-.868-.828c-2.407.443-4.503-.627-5.935-2.528l-1.487-.31-2.862-3.121c-1.688-.331-3.552-.445-5.268-.385l-.84 1.231-1.413-.576-1.335.349-.666-.216c-.174-1.113-1.255-2.838-2.341-3.284l-.423 1.231.735 2.004-1.107 2.341-.63.25-.206.568.166.933-1.287.768c-2.718-.565-5.385-1.722-7.684.535-.52.512-.642 1.285-1.43 1.574-1.125-.002-2.063-1.181-2.832-1.879l.032-2.236c-.535-.54-.894-1.745-.913-2.479l-1.731-.652 1.105-.746c.219-.526.142-1.488-.141-1.98-1.535-.945-3.237-.767-4.945-.79l-.767-.585-.926.035-1.455.976c-.753-.272-2.456-.487-3.259-.181-.341-.685-.389-1.903-.206-2.631l-.711-.672c-1.813.506-3.273.503-4.714-.8-1.178.837-2.06 1.1-3.416 1.171.138 1.944-.01 4.014-2.05 4.616-.369.31-1.068 1.32-1.042 1.851.051.994.196 2.092.158 3.08-.071 1.852-.6 2.514.354 4.611l-.913 1.129c.976 1.507 2.427 4.638 2.307 6.521-.214.358-.662 1.438-.446 1.867l-.744.879-.158 2.635-.971.026c-.451.449-.182 3.205-.164 3.869l1.16 1.544-1.338 1.22c-.291 1.868-1.379 3.826-2.1 5.573l.313 1.315c-.655 1.536-.505 1.011-.515 2.916.443.943 2.585 1.157 3.423 1.475.074.029 1.01.844 1.135.95l.257 1.351-.357.739.141.382-2.496 1.319a130.783 130.783 0 01-4-.402c-.27-.224-1.167-1.025-1.302-1.099-.961-.521-4.903-1.364-5.981-1.209l-.194-1.165c-1.392-1.105-3.113.612-4.298.215l-1.259-1.098-1.101.381-1.406-.565-1.929 1.203.073.603-.394.64.665 1.032.008.779c-1.313 2.231-1.843 2.784-.518 5.519-2.977.773-3.149 5.366-6.593 4.81l-.328.463c-2.152.573-3.223 2.301-4.048 4.27l.145 1.202c-1.198 1.454-1.436 4.015-1.828 5.833l.637.479.266.895c-.446.927.018 1.818-.112 2.728-.111.779-.487 1.68-.498 2.457-.007.607.364 1.513.505 2.109-.485 1.02-1.078 2.023-1.611 3.021l.054.74-.72.74c-1.448-.386-3.666.084-5.108.232-.515-1.512-.998-3.94-2.144-5.165l-.684-.026c-.803.705-1.338.833-2.304.983l-1.211-4.104-1.334-.779c-1.35 2.054-5.432 3.325-5.919 4.763-1.068-.563-1.7-1.286-2.565-2.146l-2.069.055-.867-.871-.762-.171c-.404.164-.977.321-1.342.546l-1.096-1.304-.023-1.098-.571-.652-1.066-.342-1.756-2.468c-1.132.185-3.14-.015-3.535 1.37l1.509 2.209c.135.968-1.495 4.623-1.943 5.412-.257.452-2.1 1.987-2.629 2.329-1.325-.851-2.587-.583-4.186-.662l-.682.84c-.22.614.872 2.471 1.2 2.955-.296.754-1.42 1.655-2.128 1.971l-.587-1.382-.579-.154c-1.471.275-3.243 4.7-4.938 6.157l-1.252.145-.817-3.143c-.6-.061-1.987-.316-2.384-.841-.517-.682-1.035-1.498-1.611-2.126-.72-.782-1.558-1.202-2.201-2.186-.868-.229-2.36.114-3.048.691-.788.183-1.672-1.103-2.282-1.414-.161-.08-1.145-.153-1.395-.232-1.605-.509-3.053-1.407-4.805-1.353-.816.78-2.748-.026-3.594-.341-.432-.165-2.353.082-3.391-.272l-2.297 1.413-1.966-.425-.032-1.551-3.804.078-.24-1.757-.871.506-.765-.122-1.514-1.833.869-1.834-.125-.558-.584-.563-.956.409-.856-.177c-.452-.442-2.076-1.746-2.012-2.342l1.843-2.419c.689-.535 2.294-.406 3.036-.11l.967-.955c.298-.858.004-3.032-.839-3.551l-2.034-.291c-.566-.354-3.119-3.731-3.389-4.164-.05-.082-.285-1.193-.323-1.353-.668-.672-2.975-1.334-3.636-.817-.979-.148-2.131-.521-3.087-.8l-.476-1.231-2.009-.563c-.07-.147-.421-.924-.497-1.006-2.843-3.121-7.003-9.053-11.964-8.637" stroke="#fff" stroke-width="2" stroke-miterlimit="3.86" stroke-linejoin="round"/><path d="M895.741 306.772c-.768.377-19.169 7.065-20.32 7.027-1.907-.064-4.159-.637-6.068-.929-1.872-.286-3.801-1.205-5.581-1.842-5.18 1.467-6.714 1.492-9.886 6.582-.44.708-.704 1.518-1.188 2.198-2.164 3.044-4.463 6.192-7.081 8.875-.878.899-1.971 1.609-2.915 2.435-.69.604-1.345 1.194-1.7 2.071-.871 2.142-.326 4.904-1.417 6.901-.395.723-.875 1.925-1.389 2.541-1.522 1.83-6.298 4.249-8.561 5.014-1.774.598-3.755.827-5.57 1.393-2.616.813-5.158 1.915-7.809 2.588-2.215.563-5.914 1.536-7.714 3.044-1.125.943-2.514 4.524-2.95 5.854-.163.492-.038 1.2-.16 1.717-.492 2.093-1.882 4.174-.508 6.286-.413 1.105-1.894 6.781-2.505 7.698-1.012 1.515-2.336 2.817-3.355 4.378-.07.105-.103.281-.146.4-2.639 7.263-.418 11.649-6.481 18.033-1.582 1.665-3.045 3.408-4.682 5.02-1.545.043-3.19 1.361-4.696 1.883-1.703.591-3.635.165-5.216.817-2.56 1.06-9.188 9.138-10.799 11.2-1.163 1.491-2.755 3.826-4.282 4.871-.872.596-5.81 1.867-7.054 1.85-.424-.005-4.143-.53-4.592-.635-2.337.955-4.63 4.275-5.377 6.572-.675 2.083-2.691 6.727-4.144 8.083-1.351 1.263-7.37 2.284-8.908 2.982-4.323 1.961-9.06 7.942-14.009 3.794-1.162-.972-2.334-1.932-3.555-2.833-6.86-1.694-7.33 4.073-14.981 4.579-5.765.382-11.731-5.728-16.899-7.929-.351-.151-2.208-.994-2.299-.999-.266-.02-2.404-.196-2.531-.176-1.436.218-3.253 1.129-4.747 1.524-1.706.449-4.801 2.42-6.392 3.622-2.692 2.033-4.117 4.282-6.151 6.863-1.211 1.538-2.506 2.399-3.924 3.663-4.066 3.624-5.863 8.894-6.778 14.104-.347 1.982-2.356 2.69-3.531 4.18-.65.822-.726 1.645-.864 2.641-.168 1.218-.202 2.501-.411 3.699-.329 1.882-2.59 6.302-3.457 8.174" stroke="#fff" stroke-width="2" stroke-miterlimit="3.86" stroke-linejoin="round"/></svg>